<?xml version="1.0" encoding="utf-8" standalone="no"?>
<!DOCTYPE svg PUBLIC "-//W3C//DTD SVG 1.1//EN"
  "http://www.w3.org/Graphics/SVG/1.1/DTD/svg11.dtd">
<svg xmlns:xlink="http://www.w3.org/1999/xlink" width="460.8pt" height="345.6pt" viewBox="0 0 460.8 345.6" xmlns="http://www.w3.org/2000/svg" version="1.1">
 <metadata>
  <rdf:RDF xmlns:dc="http://purl.org/dc/elements/1.1/" xmlns:cc="http://creativecommons.org/ns#" xmlns:rdf="http://www.w3.org/1999/02/22-rdf-syntax-ns#">
   <cc:Work>
    <dc:type rdf:resource="http://purl.org/dc/dcmitype/StillImage"/>
    <dc:date>2024-06-13T00:38:58.917882</dc:date>
    <dc:format>image/svg+xml</dc:format>
    <dc:creator>
     <cc:Agent>
      <dc:title>Matplotlib v3.8.4, https://matplotlib.org/</dc:title>
     </cc:Agent>
    </dc:creator>
   </cc:Work>
  </rdf:RDF>
 </metadata>
 <defs>
  <style type="text/css">*{stroke-linejoin: round; stroke-linecap: butt}</style>
 </defs>
 <g id="figure_1">
  <g id="patch_1">
   <path d="M 0 345.6 
L 460.8 345.6 
L 460.8 0 
L 0 0 
z
" style="fill: #ffffff"/>
  </g>
  <g id="axes_1">
   <g id="patch_2">
    <path d="M 57.6 307.584 
L 343.296 307.584 
L 343.296 41.472 
L 57.6 41.472 
z
" style="fill: #ffffff"/>
   </g>
   <g id="QuadContourSet_1">
    <path d="M 189.459692 307.584 
L 196.785231 307.584 
L 204.110769 307.584 
L 211.436308 307.584 
L 218.761846 307.584 
L 226.087385 307.584 
L 233.412923 307.584 
L 240.738462 307.584 
L 248.064 307.584 
L 255.389538 307.584 
L 262.715077 307.584 
L 270.040615 307.584 
L 277.366154 307.584 
L 284.691692 307.584 
L 292.017231 307.584 
L 299.342769 307.584 
L 306.668308 307.584 
L 313.993846 307.584 
L 321.319385 307.584 
L 328.644923 307.584 
L 335.970462 307.584 
L 343.296 307.584 
L 343.296 300.760615 
L 343.296 293.937231 
L 343.296 287.113846 
L 343.296 280.290462 
L 343.296 273.467077 
L 343.296 266.643692 
L 343.296 259.820308 
L 343.296 252.996923 
L 343.296 246.173538 
L 343.296 239.350154 
L 343.296 232.526769 
L 343.296 225.703385 
L 343.296 218.88 
L 343.296 212.056615 
L 343.296 205.233231 
L 343.296 198.409846 
L 343.296 191.586462 
L 343.296 184.763077 
L 343.296 177.939692 
L 343.296 171.116308 
L 343.296 164.292923 
L 343.296 163.663156 
L 335.970462 163.075938 
L 328.644923 162.728086 
L 321.319385 162.122944 
L 313.993846 161.483969 
L 306.668308 160.540022 
L 299.342769 159.618156 
L 292.017231 158.476838 
L 287.584217 157.469538 
L 284.691692 156.4953 
L 277.366154 153.008552 
L 273.39436 150.646154 
L 270.040615 149.2882 
L 262.715077 146.32945 
L 256.932814 143.822769 
L 255.389538 143.219946 
L 248.064 139.97722 
L 243.003371 136.999385 
L 240.738462 135.643073 
L 233.412923 131.174441 
L 231.673163 130.176 
L 226.087385 127.278798 
L 219.230918 123.352615 
L 218.761846 123.110108 
L 211.436308 119.532331 
L 205.28479 116.529231 
L 204.110769 116.047818 
L 196.785231 113.587186 
L 189.459692 110.595772 
L 187.470458 109.705846 
L 182.134154 107.749309 
L 174.808615 104.86402 
L 170.290157 102.882462 
L 167.483077 101.865831 
L 160.157538 99.141294 
L 153.015928 96.059077 
L 152.832 95.991065 
L 145.506462 93.932571 
L 140.878606 96.059077 
L 138.180923 97.918993 
L 132.56884 102.882462 
L 130.855385 104.610781 
L 126.469593 109.705846 
L 123.529846 113.129135 
L 120.948834 116.529231 
L 116.288802 123.352615 
L 116.204308 123.4575 
L 108.878769 129.084328 
L 107.388352 130.176 
L 103.00155 136.999385 
L 101.553231 143.405679 
L 101.475422 143.822769 
L 101.534751 150.646154 
L 100.710426 157.469538 
L 97.55405 164.292923 
L 95.518485 171.116308 
L 95.122717 177.939692 
L 96.456469 184.763077 
L 98.762505 191.586462 
L 101.553231 197.567347 
L 101.982984 198.409846 
L 105.357917 205.233231 
L 108.878769 210.302331 
L 110.206193 212.056615 
L 113.057157 218.88 
L 116.204308 224.502279 
L 117.008791 225.703385 
L 121.984098 232.526769 
L 123.529846 234.941608 
L 126.694007 239.350154 
L 130.855385 245.151593 
L 131.66958 246.173538 
L 138.072572 252.996923 
L 138.180923 253.093916 
L 145.506462 258.631541 
L 147.762818 259.820308 
L 152.832 261.770695 
L 160.157538 263.64649 
L 165.85279 266.643692 
L 167.483077 267.460671 
L 173.019615 273.467077 
L 174.808615 275.673356 
L 177.460895 280.290462 
L 180.556397 287.113846 
L 182.134154 290.810915 
L 183.361927 293.937231 
L 185.685679 300.760615 
L 187.545417 307.584 
z
" clip-path="url(#pbf358c28c7)" style="fill: #450457"/>
    <path d="M 182.134154 307.584 
L 187.545417 307.584 
L 185.685679 300.760615 
L 183.361927 293.937231 
L 182.134154 290.810915 
L 180.556397 287.113846 
L 177.460895 280.290462 
L 174.808615 275.673356 
L 173.019615 273.467077 
L 167.483077 267.460671 
L 165.85279 266.643692 
L 160.157538 263.64649 
L 152.832 261.770695 
L 147.762818 259.820308 
L 145.506462 258.631541 
L 138.180923 253.093916 
L 138.072572 252.996923 
L 131.66958 246.173538 
L 130.855385 245.151593 
L 126.694007 239.350154 
L 123.529846 234.941608 
L 121.984098 232.526769 
L 117.008791 225.703385 
L 116.204308 224.502279 
L 113.057157 218.88 
L 110.206193 212.056615 
L 108.878769 210.302331 
L 105.357917 205.233231 
L 101.982984 198.409846 
L 101.553231 197.567347 
L 98.762505 191.586462 
L 96.456469 184.763077 
L 95.122717 177.939692 
L 95.518485 171.116308 
L 97.55405 164.292923 
L 100.710426 157.469538 
L 101.534751 150.646154 
L 101.475422 143.822769 
L 101.553231 143.405679 
L 103.00155 136.999385 
L 107.388352 130.176 
L 108.878769 129.084328 
L 116.204308 123.4575 
L 116.288802 123.352615 
L 120.948834 116.529231 
L 123.529846 113.129135 
L 126.469593 109.705846 
L 130.855385 104.610781 
L 132.56884 102.882462 
L 138.180923 97.918993 
L 140.878606 96.059077 
L 145.506462 93.932571 
L 152.832 95.991065 
L 153.015928 96.059077 
L 160.157538 99.141294 
L 167.483077 101.865831 
L 170.290157 102.882462 
L 174.808615 104.86402 
L 182.134154 107.749309 
L 187.470458 109.705846 
L 189.459692 110.595772 
L 196.785231 113.587186 
L 204.110769 116.047818 
L 205.28479 116.529231 
L 211.436308 119.532331 
L 218.761846 123.110108 
L 219.230918 123.352615 
L 226.087385 127.278798 
L 231.673163 130.176 
L 233.412923 131.174441 
L 240.738462 135.643073 
L 243.003371 136.999385 
L 248.064 139.97722 
L 255.389538 143.219946 
L 256.932814 143.822769 
L 262.715077 146.32945 
L 270.040615 149.2882 
L 273.39436 150.646154 
L 277.366154 153.008552 
L 284.691692 156.4953 
L 287.584217 157.469538 
L 292.017231 158.476838 
L 299.342769 159.618156 
L 306.668308 160.540022 
L 313.993846 161.483969 
L 321.319385 162.122944 
L 328.644923 162.728086 
L 335.970462 163.075938 
L 343.296 163.663156 
L 343.296 157.469538 
L 343.296 150.646154 
L 343.296 149.717441 
L 335.970462 150.01581 
L 328.644923 149.986799 
L 321.319385 149.473858 
L 313.993846 148.300373 
L 306.668308 146.282985 
L 300.821668 143.822769 
L 299.342769 143.353756 
L 292.017231 141.115643 
L 284.691692 138.843216 
L 279.681502 136.999385 
L 277.366154 136.227642 
L 270.040615 133.434443 
L 262.83241 130.176 
L 262.715077 130.127131 
L 255.389538 126.671568 
L 250.024106 123.352615 
L 248.064 122.238977 
L 240.738462 117.914473 
L 238.34964 116.529231 
L 233.412923 113.998147 
L 226.087385 110.081331 
L 225.407231 109.705846 
L 218.761846 106.448843 
L 211.436308 103.533184 
L 209.810835 102.882462 
L 204.110769 100.940467 
L 196.785231 98.57688 
L 189.459692 96.124998 
L 189.282923 96.059077 
L 182.134154 93.779459 
L 174.808615 91.259854 
L 169.667561 89.235692 
L 167.483077 88.486638 
L 160.157538 86.035277 
L 152.832 82.931088 
L 151.691293 82.412308 
L 145.506462 79.957694 
L 138.180923 77.826829 
L 130.855385 81.545797 
L 129.549767 82.412308 
L 123.529846 86.792675 
L 120.534955 89.235692 
L 116.204308 93.266278 
L 113.787591 96.059077 
L 108.878769 102.155015 
L 108.303198 102.882462 
L 103.202767 109.705846 
L 101.553231 111.840574 
L 97.812058 116.529231 
L 94.227692 119.296956 
L 89.947905 123.352615 
L 86.902154 129.009491 
L 86.285632 130.176 
L 83.096945 136.999385 
L 81.946381 143.822769 
L 81.201323 150.646154 
L 79.576615 154.651359 
L 78.467004 157.469538 
L 75.952005 164.292923 
L 73.634573 171.116308 
L 74.533573 177.939692 
L 75.979453 184.763077 
L 78.942921 191.586462 
L 79.576615 193.111076 
L 81.990741 198.409846 
L 85.355833 205.233231 
L 86.902154 208.495015 
L 88.727061 212.056615 
L 92.27901 218.88 
L 94.227692 222.422292 
L 96.153872 225.703385 
L 100.348457 232.526769 
L 101.553231 234.348182 
L 105.0867 239.350154 
L 108.878769 245.415047 
L 109.393378 246.173538 
L 114.165612 252.996923 
L 116.204308 256.106649 
L 118.813674 259.820308 
L 123.529846 266.089172 
L 124.063074 266.643692 
L 130.855385 272.908095 
L 131.727288 273.467077 
L 138.180923 276.530595 
L 145.506462 279.095345 
L 150.018882 280.290462 
L 152.832 280.918253 
L 160.157538 282.400079 
L 167.37544 287.113846 
L 167.483077 287.19261 
L 171.90923 293.937231 
L 174.808615 299.015234 
L 175.717209 300.760615 
L 179.028266 307.584 
z
" clip-path="url(#pbf358c28c7)" style="fill: #470d60"/>
    <path d="M 167.483077 302.965168 
L 170.433551 307.584 
L 174.808615 307.584 
L 179.028266 307.584 
L 175.717209 300.760615 
L 174.808615 299.015234 
L 171.90923 293.937231 
L 167.483077 287.19261 
L 167.37544 287.113846 
L 160.157538 282.400079 
L 152.832 280.918253 
L 150.018882 280.290462 
L 145.506462 279.095345 
L 138.180923 276.530595 
L 131.727288 273.467077 
L 130.855385 272.908095 
L 124.063074 266.643692 
L 123.529846 266.089172 
L 118.813674 259.820308 
L 116.204308 256.106649 
L 114.165612 252.996923 
L 109.393378 246.173538 
L 108.878769 245.415047 
L 105.0867 239.350154 
L 101.553231 234.348182 
L 100.348457 232.526769 
L 96.153872 225.703385 
L 94.227692 222.422292 
L 92.27901 218.88 
L 88.727061 212.056615 
L 86.902154 208.495015 
L 85.355833 205.233231 
L 81.990741 198.409846 
L 79.576615 193.111076 
L 78.942921 191.586462 
L 75.979453 184.763077 
L 74.533573 177.939692 
L 73.634573 171.116308 
L 75.952005 164.292923 
L 78.467004 157.469538 
L 79.576615 154.651359 
L 81.201323 150.646154 
L 81.946381 143.822769 
L 83.096945 136.999385 
L 86.285632 130.176 
L 86.902154 129.009491 
L 89.947905 123.352615 
L 94.227692 119.296956 
L 97.812058 116.529231 
L 101.553231 111.840574 
L 103.202767 109.705846 
L 108.303198 102.882462 
L 108.878769 102.155015 
L 113.787591 96.059077 
L 116.204308 93.266278 
L 120.534955 89.235692 
L 123.529846 86.792675 
L 129.549767 82.412308 
L 130.855385 81.545797 
L 138.180923 77.826829 
L 145.506462 79.957694 
L 151.691293 82.412308 
L 152.832 82.931088 
L 160.157538 86.035277 
L 167.483077 88.486638 
L 169.667561 89.235692 
L 174.808615 91.259854 
L 182.134154 93.779459 
L 189.282923 96.059077 
L 189.459692 96.124998 
L 196.785231 98.57688 
L 204.110769 100.940467 
L 209.810835 102.882462 
L 211.436308 103.533184 
L 218.761846 106.448843 
L 225.407231 109.705846 
L 226.087385 110.081331 
L 233.412923 113.998147 
L 238.34964 116.529231 
L 240.738462 117.914473 
L 248.064 122.238977 
L 250.024106 123.352615 
L 255.389538 126.671568 
L 262.715077 130.127131 
L 262.83241 130.176 
L 270.040615 133.434443 
L 277.366154 136.227642 
L 279.681502 136.999385 
L 284.691692 138.843216 
L 292.017231 141.115643 
L 299.342769 143.353756 
L 300.821668 143.822769 
L 306.668308 146.282985 
L 313.993846 148.300373 
L 321.319385 149.473858 
L 328.644923 149.986799 
L 335.970462 150.01581 
L 343.296 149.717441 
L 343.296 143.822769 
L 343.296 142.675391 
L 335.970462 142.029707 
L 328.644923 140.812284 
L 321.319385 139.425456 
L 313.993846 137.419031 
L 312.62887 136.999385 
L 306.668308 135.58514 
L 299.342769 133.519779 
L 292.017231 131.030486 
L 289.611354 130.176 
L 284.691692 128.499102 
L 277.366154 125.659004 
L 272.051432 123.352615 
L 270.040615 122.4955 
L 262.715077 118.701644 
L 259.051202 116.529231 
L 255.389538 114.587624 
L 248.064 110.019211 
L 247.528184 109.705846 
L 240.738462 106.20926 
L 234.625188 102.882462 
L 233.412923 102.257749 
L 226.087385 98.557301 
L 220.308146 96.059077 
L 218.761846 95.513559 
L 211.436308 93.183561 
L 204.110769 90.654862 
L 199.715822 89.235692 
L 196.785231 88.430593 
L 189.459692 86.418924 
L 182.134154 84.157883 
L 176.998866 82.412308 
L 174.808615 81.762099 
L 167.483077 79.372947 
L 160.157538 76.924773 
L 156.61579 75.588923 
L 152.832 74.358671 
L 145.506462 71.567011 
L 138.180923 68.803687 
L 137.963132 68.765538 
L 130.855385 67.518364 
L 128.302052 68.765538 
L 123.529846 72.133417 
L 118.049367 75.588923 
L 116.204308 76.960174 
L 109.290236 82.412308 
L 108.878769 82.786868 
L 103.24073 89.235692 
L 101.553231 91.429444 
L 97.996843 96.059077 
L 94.227692 100.790274 
L 92.634889 102.882462 
L 86.902154 109.671923 
L 86.871405 109.705846 
L 79.576615 116.520103 
L 79.56919 116.529231 
L 76.118253 123.352615 
L 72.251077 129.593315 
L 71.90732 130.176 
L 69.171894 136.999385 
L 67.562172 143.822769 
L 65.159 150.646154 
L 64.925538 151.310341 
L 63.033867 157.469538 
L 60.713325 164.292923 
L 58.66246 171.116308 
L 59.828873 177.939692 
L 61.572597 184.763077 
L 64.488025 191.586462 
L 64.925538 192.480716 
L 67.929702 198.409846 
L 71.545747 205.233231 
L 72.251077 206.61013 
L 75.109023 212.056615 
L 78.567889 218.88 
L 79.576615 220.862482 
L 82.272933 225.703385 
L 86.170895 232.526769 
L 86.902154 233.808454 
L 90.504703 239.350154 
L 94.227692 245.581039 
L 94.607755 246.173538 
L 99.121974 252.996923 
L 101.553231 256.800364 
L 103.64334 259.820308 
L 108.14222 266.643692 
L 108.878769 267.922719 
L 112.538459 273.467077 
L 116.204308 277.993583 
L 118.549332 280.290462 
L 123.529846 284.417473 
L 129.04578 287.113846 
L 130.855385 287.79443 
L 138.180923 290.201531 
L 145.506462 292.059942 
L 152.832 293.848089 
L 153.207534 293.937231 
L 160.157538 295.352823 
L 165.730217 300.760615 
z
" clip-path="url(#pbf358c28c7)" style="fill: #481668"/>
    <path d="M 145.506462 302.255992 
L 152.832 303.819372 
L 160.157538 305.53794 
L 161.910402 307.584 
L 167.483077 307.584 
L 170.433551 307.584 
L 167.483077 302.965168 
L 165.730217 300.760615 
L 160.157538 295.352823 
L 153.207534 293.937231 
L 152.832 293.848089 
L 145.506462 292.059942 
L 138.180923 290.201531 
L 130.855385 287.79443 
L 129.04578 287.113846 
L 123.529846 284.417473 
L 118.549332 280.290462 
L 116.204308 277.993583 
L 112.538459 273.467077 
L 108.878769 267.922719 
L 108.14222 266.643692 
L 103.64334 259.820308 
L 101.553231 256.800364 
L 99.121974 252.996923 
L 94.607755 246.173538 
L 94.227692 245.581039 
L 90.504703 239.350154 
L 86.902154 233.808454 
L 86.170895 232.526769 
L 82.272933 225.703385 
L 79.576615 220.862482 
L 78.567889 218.88 
L 75.109023 212.056615 
L 72.251077 206.61013 
L 71.545747 205.233231 
L 67.929702 198.409846 
L 64.925538 192.480716 
L 64.488025 191.586462 
L 61.572597 184.763077 
L 59.828873 177.939692 
L 58.66246 171.116308 
L 60.713325 164.292923 
L 63.033867 157.469538 
L 64.925538 151.310341 
L 65.159 150.646154 
L 67.562172 143.822769 
L 69.171894 136.999385 
L 71.90732 130.176 
L 72.251077 129.593315 
L 76.118253 123.352615 
L 79.56919 116.529231 
L 79.576615 116.520103 
L 86.871405 109.705846 
L 86.902154 109.671923 
L 92.634889 102.882462 
L 94.227692 100.790274 
L 97.996843 96.059077 
L 101.553231 91.429444 
L 103.24073 89.235692 
L 108.878769 82.786868 
L 109.290236 82.412308 
L 116.204308 76.960174 
L 118.049367 75.588923 
L 123.529846 72.133417 
L 128.302052 68.765538 
L 130.855385 67.518364 
L 137.963132 68.765538 
L 138.180923 68.803687 
L 145.506462 71.567011 
L 152.832 74.358671 
L 156.61579 75.588923 
L 160.157538 76.924773 
L 167.483077 79.372947 
L 174.808615 81.762099 
L 176.998866 82.412308 
L 182.134154 84.157883 
L 189.459692 86.418924 
L 196.785231 88.430593 
L 199.715822 89.235692 
L 204.110769 90.654862 
L 211.436308 93.183561 
L 218.761846 95.513559 
L 220.308146 96.059077 
L 226.087385 98.557301 
L 233.412923 102.257749 
L 234.625188 102.882462 
L 240.738462 106.20926 
L 247.528184 109.705846 
L 248.064 110.019211 
L 255.389538 114.587624 
L 259.051202 116.529231 
L 262.715077 118.701644 
L 270.040615 122.4955 
L 272.051432 123.352615 
L 277.366154 125.659004 
L 284.691692 128.499102 
L 289.611354 130.176 
L 292.017231 131.030486 
L 299.342769 133.519779 
L 306.668308 135.58514 
L 312.62887 136.999385 
L 313.993846 137.419031 
L 321.319385 139.425456 
L 328.644923 140.812284 
L 335.970462 142.029707 
L 343.296 142.675391 
L 343.296 136.999385 
L 343.296 135.583671 
L 335.970462 134.695837 
L 328.644923 133.532757 
L 321.319385 132.169318 
L 313.993846 130.21787 
L 313.85634 130.176 
L 306.668308 128.182777 
L 299.342769 125.768693 
L 293.148416 123.352615 
L 292.017231 122.945334 
L 284.691692 120.312431 
L 277.366154 117.268423 
L 275.896267 116.529231 
L 270.040615 113.349564 
L 263.678771 109.705846 
L 262.715077 109.209382 
L 255.389538 105.092815 
L 251.765018 102.882462 
L 248.064 100.904441 
L 240.738462 96.916686 
L 239.166773 96.059077 
L 233.412923 93.190105 
L 226.087385 89.673318 
L 224.8554 89.235692 
L 218.761846 87.399874 
L 211.436308 85.129686 
L 204.110769 82.689021 
L 203.177085 82.412308 
L 196.785231 80.711943 
L 189.459692 78.54983 
L 182.134154 76.476262 
L 179.351177 75.588923 
L 174.808615 74.320457 
L 167.483077 72.102519 
L 160.157538 69.7756 
L 157.296326 68.765538 
L 152.832 67.398888 
L 145.506462 64.949622 
L 138.180923 62.631756 
L 136.294302 61.942154 
L 130.855385 60.21927 
L 123.529846 60.613104 
L 121.33072 61.942154 
L 116.204308 65.33212 
L 111.042804 68.765538 
L 108.878769 70.354493 
L 102.331081 75.588923 
L 101.553231 76.299208 
L 96.250657 82.412308 
L 94.227692 85.035958 
L 91.01325 89.235692 
L 86.902154 94.398804 
L 85.633691 96.059077 
L 79.881263 102.882462 
L 79.576615 103.209026 
L 72.251077 109.705612 
L 72.250867 109.705846 
L 68.919698 116.529231 
L 64.925538 122.946536 
L 64.674911 123.352615 
L 60.701276 130.176 
L 57.938546 136.999385 
L 57.6 138.071102 
L 57.6 143.822769 
L 57.6 150.646154 
L 57.6 157.469538 
L 57.6 164.292923 
L 57.6 171.116308 
L 57.6 177.939692 
L 57.6 184.763077 
L 57.6 191.586462 
L 57.6 198.409846 
L 57.6 200.535402 
L 60.107128 205.233231 
L 64.086416 212.056615 
L 64.925538 213.561524 
L 67.985401 218.88 
L 71.441881 225.703385 
L 72.251077 227.146079 
L 75.49562 232.526769 
L 79.354457 239.350154 
L 79.576615 239.762704 
L 83.38134 246.173538 
L 86.902154 252.158189 
L 87.447399 252.996923 
L 91.992024 259.820308 
L 94.227692 263.241314 
L 96.546924 266.643692 
L 100.334845 273.467077 
L 101.553231 275.580445 
L 104.651895 280.290462 
L 108.878769 285.731964 
L 110.207789 287.113846 
L 116.204308 292.472391 
L 118.7319 293.937231 
L 123.529846 296.025849 
L 130.855385 298.545092 
L 138.180923 300.613636 
L 138.778124 300.760615 
z
" clip-path="url(#pbf358c28c7)" style="fill: #481d6f"/>
    <path d="M 116.204308 302.568163 
L 123.529846 305.11868 
L 130.855385 307.422172 
L 131.497785 307.584 
L 138.180923 307.584 
L 145.506462 307.584 
L 152.832 307.584 
L 160.157538 307.584 
L 161.910402 307.584 
L 160.157538 305.53794 
L 152.832 303.819372 
L 145.506462 302.255992 
L 138.778124 300.760615 
L 138.180923 300.613636 
L 130.855385 298.545092 
L 123.529846 296.025849 
L 118.7319 293.937231 
L 116.204308 292.472391 
L 110.207789 287.113846 
L 108.878769 285.731964 
L 104.651895 280.290462 
L 101.553231 275.580445 
L 100.334845 273.467077 
L 96.546924 266.643692 
L 94.227692 263.241314 
L 91.992024 259.820308 
L 87.447399 252.996923 
L 86.902154 252.158189 
L 83.38134 246.173538 
L 79.576615 239.762704 
L 79.354457 239.350154 
L 75.49562 232.526769 
L 72.251077 227.146079 
L 71.441881 225.703385 
L 67.985401 218.88 
L 64.925538 213.561524 
L 64.086416 212.056615 
L 60.107128 205.233231 
L 57.6 200.535402 
L 57.6 205.233231 
L 57.6 212.056615 
L 57.6 216.701188 
L 58.902147 218.88 
L 62.608785 225.703385 
L 64.925538 229.969463 
L 66.422599 232.526769 
L 70.440626 239.350154 
L 72.251077 242.645847 
L 74.286881 246.173538 
L 77.905876 252.996923 
L 79.576615 255.750157 
L 82.328598 259.820308 
L 86.753335 266.643692 
L 86.902154 266.9028 
L 90.755293 273.467077 
L 94.227692 280.040047 
L 94.37744 280.290462 
L 98.890323 287.113846 
L 101.553231 290.638112 
L 104.567157 293.937231 
L 108.878769 297.991544 
L 112.837274 300.760615 
z
M 57.938546 136.999385 
L 60.701276 130.176 
L 64.674911 123.352615 
L 64.925538 122.946536 
L 68.919698 116.529231 
L 72.250867 109.705846 
L 72.251077 109.705612 
L 79.576615 103.209026 
L 79.881263 102.882462 
L 85.633691 96.059077 
L 86.902154 94.398804 
L 91.01325 89.235692 
L 94.227692 85.035958 
L 96.250657 82.412308 
L 101.553231 76.299208 
L 102.331081 75.588923 
L 108.878769 70.354493 
L 111.042804 68.765538 
L 116.204308 65.33212 
L 121.33072 61.942154 
L 123.529846 60.613104 
L 130.855385 60.21927 
L 136.294302 61.942154 
L 138.180923 62.631756 
L 145.506462 64.949622 
L 152.832 67.398888 
L 157.296326 68.765538 
L 160.157538 69.7756 
L 167.483077 72.102519 
L 174.808615 74.320457 
L 179.351177 75.588923 
L 182.134154 76.476262 
L 189.459692 78.54983 
L 196.785231 80.711943 
L 203.177085 82.412308 
L 204.110769 82.689021 
L 211.436308 85.129686 
L 218.761846 87.399874 
L 224.8554 89.235692 
L 226.087385 89.673318 
L 233.412923 93.190105 
L 239.166773 96.059077 
L 240.738462 96.916686 
L 248.064 100.904441 
L 251.765018 102.882462 
L 255.389538 105.092815 
L 262.715077 109.209382 
L 263.678771 109.705846 
L 270.040615 113.349564 
L 275.896267 116.529231 
L 277.366154 117.268423 
L 284.691692 120.312431 
L 292.017231 122.945334 
L 293.148416 123.352615 
L 299.342769 125.768693 
L 306.668308 128.182777 
L 313.85634 130.176 
L 313.993846 130.21787 
L 321.319385 132.169318 
L 328.644923 133.532757 
L 335.970462 134.695837 
L 343.296 135.583671 
L 343.296 130.317956 
L 342.145742 130.176 
L 335.970462 129.488468 
L 328.644923 128.0596 
L 321.319385 126.289627 
L 313.993846 124.217409 
L 311.314746 123.352615 
L 306.668308 121.879059 
L 299.342769 119.089019 
L 292.807546 116.529231 
L 292.017231 116.246005 
L 284.691692 113.32681 
L 277.949113 109.705846 
L 277.366154 109.373738 
L 270.040615 105.486738 
L 265.226726 102.882462 
L 262.715077 101.54397 
L 255.389538 97.089078 
L 253.527367 96.059077 
L 248.064 93.211571 
L 240.901208 89.235692 
L 240.738462 89.154198 
L 233.412923 85.734215 
L 226.087385 82.67743 
L 225.260649 82.412308 
L 218.761846 80.636414 
L 211.436308 78.414192 
L 204.110769 76.184761 
L 202.193155 75.588923 
L 196.785231 74.0369 
L 189.459692 71.912131 
L 182.134154 69.967923 
L 177.980256 68.765538 
L 174.808615 67.959308 
L 167.483077 66.001348 
L 160.157538 63.860825 
L 154.381488 61.942154 
L 152.832 61.489186 
L 145.506462 59.256459 
L 138.180923 57.273948 
L 131.578905 55.118769 
L 130.855385 54.917948 
L 123.529846 52.977013 
L 117.539357 55.118769 
L 116.204308 55.956496 
L 108.878769 60.627454 
L 106.888953 61.942154 
L 101.553231 65.829051 
L 97.882431 68.765538 
L 94.227692 72.141105 
L 91.261338 75.588923 
L 86.902154 81.195307 
L 85.958126 82.412308 
L 80.817092 89.235692 
L 79.576615 90.783035 
L 75.201876 96.059077 
L 72.251077 99.383044 
L 68.654018 102.882462 
L 64.925538 107.266623 
L 63.457512 109.705846 
L 59.587436 116.529231 
L 57.6 119.543 
L 57.6 123.352615 
L 57.6 130.176 
L 57.6 136.999385 
L 57.6 138.071102 
z
" clip-path="url(#pbf358c28c7)" style="fill: #482576"/>
    <path d="M 101.553231 301.857649 
L 108.540399 307.584 
L 108.878769 307.584 
L 116.204308 307.584 
L 123.529846 307.584 
L 130.855385 307.584 
L 131.497785 307.584 
L 130.855385 307.422172 
L 123.529846 305.11868 
L 116.204308 302.568163 
L 112.837274 300.760615 
L 108.878769 297.991544 
L 104.567157 293.937231 
L 101.553231 290.638112 
L 98.890323 287.113846 
L 94.37744 280.290462 
L 94.227692 280.040047 
L 90.755293 273.467077 
L 86.902154 266.9028 
L 86.753335 266.643692 
L 82.328598 259.820308 
L 79.576615 255.750157 
L 77.905876 252.996923 
L 74.286881 246.173538 
L 72.251077 242.645847 
L 70.440626 239.350154 
L 66.422599 232.526769 
L 64.925538 229.969463 
L 62.608785 225.703385 
L 58.902147 218.88 
L 57.6 216.701188 
L 57.6 218.88 
L 57.6 225.703385 
L 57.6 230.858633 
L 58.546246 232.526769 
L 62.639298 239.350154 
L 64.925538 243.481719 
L 66.493602 246.173538 
L 70.073416 252.996923 
L 72.251077 257.147138 
L 73.878789 259.820308 
L 78.435552 266.643692 
L 79.576615 268.501249 
L 82.659756 273.467077 
L 85.985871 280.290462 
L 86.902154 282.027916 
L 89.952303 287.113846 
L 94.227692 293.579573 
L 94.500013 293.937231 
L 100.472984 300.760615 
z
M 343.296 130.317956 
L 343.296 130.176 
L 343.296 126.07841 
L 335.970462 124.73803 
L 330.400074 123.352615 
L 328.644923 122.945463 
L 321.319385 121.072236 
L 313.993846 118.859546 
L 307.921143 116.529231 
L 306.668308 116.062754 
L 299.342769 113.336946 
L 292.017231 110.417567 
L 290.458364 109.705846 
L 284.691692 106.604336 
L 278.240455 102.882462 
L 277.366154 102.435367 
L 270.040615 98.757646 
L 265.351903 96.059077 
L 262.715077 94.540743 
L 255.389538 90.476466 
L 253.188475 89.235692 
L 248.064 86.547322 
L 240.738462 82.660139 
L 240.2315 82.412308 
L 233.412923 79.468398 
L 226.087385 76.837315 
L 221.694537 75.588923 
L 218.761846 74.850412 
L 211.436308 72.587052 
L 204.110769 70.436665 
L 198.861166 68.765538 
L 196.785231 68.162733 
L 189.459692 66.169748 
L 182.134154 64.339795 
L 174.808615 62.35125 
L 173.255116 61.942154 
L 167.483077 60.621058 
L 160.157538 58.699705 
L 152.832 56.434044 
L 148.771842 55.118769 
L 145.506462 54.18763 
L 138.180923 52.459172 
L 130.855385 50.448618 
L 124.494991 48.295385 
L 123.529846 48.014631 
L 116.204308 48.14896 
L 115.897514 48.295385 
L 108.878769 52.373055 
L 104.533455 55.118769 
L 101.553231 57.111973 
L 95.072967 61.942154 
L 94.227692 62.623696 
L 87.650786 68.765538 
L 86.902154 69.641332 
L 82.432775 75.588923 
L 79.576615 79.140223 
L 77.159695 82.412308 
L 72.251077 88.751323 
L 71.857187 89.235692 
L 65.924677 96.059077 
L 64.925538 97.022055 
L 59.359032 102.882462 
L 57.6 105.852823 
L 57.6 109.705846 
L 57.6 116.529231 
L 57.6 119.543 
L 59.587436 116.529231 
L 63.457512 109.705846 
L 64.925538 107.266623 
L 68.654018 102.882462 
L 72.251077 99.383044 
L 75.201876 96.059077 
L 79.576615 90.783035 
L 80.817092 89.235692 
L 85.958126 82.412308 
L 86.902154 81.195307 
L 91.261338 75.588923 
L 94.227692 72.141105 
L 97.882431 68.765538 
L 101.553231 65.829051 
L 106.888953 61.942154 
L 108.878769 60.627454 
L 116.204308 55.956496 
L 117.539357 55.118769 
L 123.529846 52.977013 
L 130.855385 54.917948 
L 131.578905 55.118769 
L 138.180923 57.273948 
L 145.506462 59.256459 
L 152.832 61.489186 
L 154.381488 61.942154 
L 160.157538 63.860825 
L 167.483077 66.001348 
L 174.808615 67.959308 
L 177.980256 68.765538 
L 182.134154 69.967923 
L 189.459692 71.912131 
L 196.785231 74.0369 
L 202.193155 75.588923 
L 204.110769 76.184761 
L 211.436308 78.414192 
L 218.761846 80.636414 
L 225.260649 82.412308 
L 226.087385 82.67743 
L 233.412923 85.734215 
L 240.738462 89.154198 
L 240.901208 89.235692 
L 248.064 93.211571 
L 253.527367 96.059077 
L 255.389538 97.089078 
L 262.715077 101.54397 
L 265.226726 102.882462 
L 270.040615 105.486738 
L 277.366154 109.373738 
L 277.949113 109.705846 
L 284.691692 113.32681 
L 292.017231 116.246005 
L 292.807546 116.529231 
L 299.342769 119.089019 
L 306.668308 121.879059 
L 311.314746 123.352615 
L 313.993846 124.217409 
L 321.319385 126.289627 
L 328.644923 128.0596 
L 335.970462 129.488468 
L 342.145742 130.176 
z
" clip-path="url(#pbf358c28c7)" style="fill: #472d7b"/>
    <path d="M 94.227692 304.08718 
L 97.672177 307.584 
L 101.553231 307.584 
L 108.540399 307.584 
L 101.553231 301.857649 
L 100.472984 300.760615 
L 94.500013 293.937231 
L 94.227692 293.579573 
L 89.952303 287.113846 
L 86.902154 282.027916 
L 85.985871 280.290462 
L 82.659756 273.467077 
L 79.576615 268.501249 
L 78.435552 266.643692 
L 73.878789 259.820308 
L 72.251077 257.147138 
L 70.073416 252.996923 
L 66.493602 246.173538 
L 64.925538 243.481719 
L 62.639298 239.350154 
L 58.546246 232.526769 
L 57.6 230.858633 
L 57.6 232.526769 
L 57.6 239.350154 
L 57.6 242.782357 
L 59.590706 246.173538 
L 63.262245 252.996923 
L 64.925538 256.448333 
L 66.72915 259.820308 
L 70.99794 266.643692 
L 72.251077 268.551266 
L 75.49313 273.467077 
L 78.828987 280.290462 
L 79.576615 281.857865 
L 82.38125 287.113846 
L 86.397711 293.937231 
L 86.902154 294.694527 
L 91.475839 300.760615 
z
M 335.970462 124.73803 
L 343.296 126.07841 
L 343.296 123.352615 
L 343.296 121.977712 
L 335.970462 120.390714 
L 328.644923 118.514662 
L 322.026644 116.529231 
L 321.319385 116.324394 
L 313.993846 113.902317 
L 306.668308 110.968126 
L 303.46929 109.705846 
L 299.342769 108.136193 
L 292.017231 104.471741 
L 289.321921 102.882462 
L 284.691692 100.245386 
L 277.366154 96.34955 
L 276.80861 96.059077 
L 270.040615 92.631775 
L 264.415259 89.235692 
L 262.715077 88.316185 
L 255.389538 84.564555 
L 251.401255 82.412308 
L 248.064 80.77766 
L 240.738462 77.16376 
L 237.28505 75.588923 
L 233.412923 73.982721 
L 226.087385 71.696781 
L 218.761846 69.713513 
L 215.958416 68.765538 
L 211.436308 67.36948 
L 204.110769 65.292785 
L 196.785231 62.985353 
L 193.106482 61.942154 
L 189.459692 61.028471 
L 182.134154 59.334085 
L 174.808615 57.480908 
L 167.483077 55.746863 
L 165.08331 55.118769 
L 160.157538 54.011277 
L 152.832 51.958209 
L 145.506462 49.737828 
L 139.577067 48.295385 
L 138.180923 47.99861 
L 130.855385 46.274532 
L 123.529846 44.1743 
L 116.204308 41.745608 
L 108.878769 45.037726 
L 103.653649 48.295385 
L 101.553231 49.672064 
L 94.227692 54.761831 
L 93.762736 55.118769 
L 86.902154 60.733653 
L 85.622536 61.942154 
L 79.833859 68.765538 
L 79.576615 69.095533 
L 74.487361 75.588923 
L 72.251077 78.615496 
L 69.576726 82.412308 
L 64.925538 87.966688 
L 63.849513 89.235692 
L 57.6 96.00295 
L 57.6 96.059077 
L 57.6 102.882462 
L 57.6 105.852823 
L 59.359032 102.882462 
L 64.925538 97.022055 
L 65.924677 96.059077 
L 71.857187 89.235692 
L 72.251077 88.751323 
L 77.159695 82.412308 
L 79.576615 79.140223 
L 82.432775 75.588923 
L 86.902154 69.641332 
L 87.650786 68.765538 
L 94.227692 62.623696 
L 95.072967 61.942154 
L 101.553231 57.111973 
L 104.533455 55.118769 
L 108.878769 52.373055 
L 115.897514 48.295385 
L 116.204308 48.14896 
L 123.529846 48.014631 
L 124.494991 48.295385 
L 130.855385 50.448618 
L 138.180923 52.459172 
L 145.506462 54.18763 
L 148.771842 55.118769 
L 152.832 56.434044 
L 160.157538 58.699705 
L 167.483077 60.621058 
L 173.255116 61.942154 
L 174.808615 62.35125 
L 182.134154 64.339795 
L 189.459692 66.169748 
L 196.785231 68.162733 
L 198.861166 68.765538 
L 204.110769 70.436665 
L 211.436308 72.587052 
L 218.761846 74.850412 
L 221.694537 75.588923 
L 226.087385 76.837315 
L 233.412923 79.468398 
L 240.2315 82.412308 
L 240.738462 82.660139 
L 248.064 86.547322 
L 253.188475 89.235692 
L 255.389538 90.476466 
L 262.715077 94.540743 
L 265.351903 96.059077 
L 270.040615 98.757646 
L 277.366154 102.435367 
L 278.240455 102.882462 
L 284.691692 106.604336 
L 290.458364 109.705846 
L 292.017231 110.417567 
L 299.342769 113.336946 
L 306.668308 116.062754 
L 307.921143 116.529231 
L 313.993846 118.859546 
L 321.319385 121.072236 
L 328.644923 122.945463 
L 330.400074 123.352615 
z
" clip-path="url(#pbf358c28c7)" style="fill: #463480"/>
    <path d="M 86.902154 304.78222 
L 89.231887 307.584 
L 94.227692 307.584 
L 97.672177 307.584 
L 94.227692 304.08718 
L 91.475839 300.760615 
L 86.902154 294.694527 
L 86.397711 293.937231 
L 82.38125 287.113846 
L 79.576615 281.857865 
L 78.828987 280.290462 
L 75.49313 273.467077 
L 72.251077 268.551266 
L 70.99794 266.643692 
L 66.72915 259.820308 
L 64.925538 256.448333 
L 63.262245 252.996923 
L 59.590706 246.173538 
L 57.6 242.782357 
L 57.6 246.173538 
L 57.6 252.996923 
L 57.6 254.012036 
L 60.589747 259.820308 
L 64.29461 266.643692 
L 64.925538 267.648572 
L 68.903776 273.467077 
L 72.251077 279.969071 
L 72.417634 280.290462 
L 75.808117 287.113846 
L 79.381193 293.937231 
L 79.576615 294.26674 
L 83.951501 300.760615 
z
M 328.644923 118.514662 
L 335.970462 120.390714 
L 343.296 121.977712 
L 343.296 118.079645 
L 337.152123 116.529231 
L 335.970462 116.259841 
L 328.644923 114.388913 
L 321.319385 112.046788 
L 315.23381 109.705846 
L 313.993846 109.234057 
L 306.668308 106.33176 
L 299.342769 103.224928 
L 298.706769 102.882462 
L 292.017231 98.758353 
L 287.347772 96.059077 
L 284.691692 94.68271 
L 277.366154 91.003503 
L 274.151803 89.235692 
L 270.040615 87.026305 
L 262.715077 83.016911 
L 261.588586 82.412308 
L 255.389538 79.279831 
L 248.176377 75.588923 
L 248.064 75.535648 
L 240.738462 72.158355 
L 233.412923 69.019074 
L 232.599743 68.765538 
L 226.087385 67.0216 
L 218.761846 65.06373 
L 211.436308 62.679656 
L 209.018696 61.942154 
L 204.110769 60.570543 
L 196.785231 58.360755 
L 189.459692 56.454135 
L 183.925355 55.118769 
L 182.134154 54.731277 
L 174.808615 52.990942 
L 167.483077 51.375249 
L 160.157538 49.824173 
L 154.889661 48.295385 
L 152.832 47.766054 
L 145.506462 45.691414 
L 138.180923 44.110401 
L 130.855385 42.37493 
L 127.642186 41.472 
L 123.529846 41.472 
L 116.204308 41.472 
L 108.878769 41.472 
L 104.124881 41.472 
L 101.553231 43.125878 
L 94.227692 47.819244 
L 93.573515 48.295385 
L 86.902154 53.486931 
L 84.907655 55.118769 
L 79.576615 60.154459 
L 78.068024 61.942154 
L 72.788273 68.765538 
L 72.251077 69.429097 
L 67.740397 75.588923 
L 64.925538 79.319917 
L 62.481896 82.412308 
L 57.6 88.011878 
L 57.6 89.235692 
L 57.6 96.00295 
L 63.849513 89.235692 
L 64.925538 87.966688 
L 69.576726 82.412308 
L 72.251077 78.615496 
L 74.487361 75.588923 
L 79.576615 69.095533 
L 79.833859 68.765538 
L 85.622536 61.942154 
L 86.902154 60.733653 
L 93.762736 55.118769 
L 94.227692 54.761831 
L 101.553231 49.672064 
L 103.653649 48.295385 
L 108.878769 45.037726 
L 116.204308 41.745608 
L 123.529846 44.1743 
L 130.855385 46.274532 
L 138.180923 47.99861 
L 139.577067 48.295385 
L 145.506462 49.737828 
L 152.832 51.958209 
L 160.157538 54.011277 
L 165.08331 55.118769 
L 167.483077 55.746863 
L 174.808615 57.480908 
L 182.134154 59.334085 
L 189.459692 61.028471 
L 193.106482 61.942154 
L 196.785231 62.985353 
L 204.110769 65.292785 
L 211.436308 67.36948 
L 215.958416 68.765538 
L 218.761846 69.713513 
L 226.087385 71.696781 
L 233.412923 73.982721 
L 237.28505 75.588923 
L 240.738462 77.16376 
L 248.064 80.77766 
L 251.401255 82.412308 
L 255.389538 84.564555 
L 262.715077 88.316185 
L 264.415259 89.235692 
L 270.040615 92.631775 
L 276.80861 96.059077 
L 277.366154 96.34955 
L 284.691692 100.245386 
L 289.321921 102.882462 
L 292.017231 104.471741 
L 299.342769 108.136193 
L 303.46929 109.705846 
L 306.668308 110.968126 
L 313.993846 113.902317 
L 321.319385 116.324394 
L 322.026644 116.529231 
z
" clip-path="url(#pbf358c28c7)" style="fill: #443b84"/>
    <path d="M 79.576615 304.094911 
L 82.167181 307.584 
L 86.902154 307.584 
L 89.231887 307.584 
L 86.902154 304.78222 
L 83.951501 300.760615 
L 79.576615 294.26674 
L 79.381193 293.937231 
L 75.808117 287.113846 
L 72.417634 280.290462 
L 72.251077 279.969071 
L 68.903776 273.467077 
L 64.925538 267.648572 
L 64.29461 266.643692 
L 60.589747 259.820308 
L 57.6 254.012036 
L 57.6 259.820308 
L 57.6 265.090342 
L 58.445968 266.643692 
L 62.788052 273.467077 
L 64.925538 277.37714 
L 66.559756 280.290462 
L 69.948213 287.113846 
L 72.251077 291.97946 
L 73.292733 293.937231 
L 77.348152 300.760615 
z
M 343.296 118.079645 
L 343.296 116.529231 
L 343.296 114.572447 
L 335.970462 112.738302 
L 328.644923 110.51084 
L 326.342096 109.705846 
L 321.319385 107.975196 
L 313.993846 105.002981 
L 308.979485 102.882462 
L 306.668308 101.874681 
L 299.342769 97.882412 
L 296.450421 96.059077 
L 292.017231 93.553992 
L 284.691692 89.642155 
L 283.901593 89.235692 
L 277.366154 86.121942 
L 270.935493 82.412308 
L 270.040615 81.9115 
L 262.715077 78.171691 
L 257.773044 75.588923 
L 255.389538 74.448494 
L 248.064 70.913184 
L 243.591801 68.765538 
L 240.738462 67.508158 
L 233.412923 64.741501 
L 226.087385 62.758342 
L 223.303672 61.942154 
L 218.761846 60.705757 
L 211.436308 58.490787 
L 204.110769 56.274066 
L 200.503494 55.118769 
L 196.785231 54.031628 
L 189.459692 52.290417 
L 182.134154 50.630068 
L 174.808615 48.811726 
L 172.584026 48.295385 
L 167.483077 47.234801 
L 160.157538 45.911629 
L 152.832 44.054508 
L 145.506462 41.83848 
L 143.833721 41.472 
L 138.180923 41.472 
L 130.855385 41.472 
L 127.642186 41.472 
L 130.855385 42.37493 
L 138.180923 44.110401 
L 145.506462 45.691414 
L 152.832 47.766054 
L 154.889661 48.295385 
L 160.157538 49.824173 
L 167.483077 51.375249 
L 174.808615 52.990942 
L 182.134154 54.731277 
L 183.925355 55.118769 
L 189.459692 56.454135 
L 196.785231 58.360755 
L 204.110769 60.570543 
L 209.018696 61.942154 
L 211.436308 62.679656 
L 218.761846 65.06373 
L 226.087385 67.0216 
L 232.599743 68.765538 
L 233.412923 69.019074 
L 240.738462 72.158355 
L 248.064 75.535648 
L 248.176377 75.588923 
L 255.389538 79.279831 
L 261.588586 82.412308 
L 262.715077 83.016911 
L 270.040615 87.026305 
L 274.151803 89.235692 
L 277.366154 91.003503 
L 284.691692 94.68271 
L 287.347772 96.059077 
L 292.017231 98.758353 
L 298.706769 102.882462 
L 299.342769 103.224928 
L 306.668308 106.33176 
L 313.993846 109.234057 
L 315.23381 109.705846 
L 321.319385 112.046788 
L 328.644923 114.388913 
L 335.970462 116.259841 
L 337.152123 116.529231 
z
M 62.481896 82.412308 
L 64.925538 79.319917 
L 67.740397 75.588923 
L 72.251077 69.429097 
L 72.788273 68.765538 
L 78.068024 61.942154 
L 79.576615 60.154459 
L 84.907655 55.118769 
L 86.902154 53.486931 
L 93.573515 48.295385 
L 94.227692 47.819244 
L 101.553231 43.125878 
L 104.124881 41.472 
L 101.553231 41.472 
L 94.552138 41.472 
L 94.227692 41.682834 
L 86.902154 47.054173 
L 85.319628 48.295385 
L 79.576615 53.025431 
L 77.362919 55.118769 
L 72.251077 61.23162 
L 71.71775 61.942154 
L 66.278205 68.765538 
L 64.925538 70.628358 
L 61.476026 75.588923 
L 57.6 80.375106 
L 57.6 82.412308 
L 57.6 88.011878 
z
" clip-path="url(#pbf358c28c7)" style="fill: #414287"/>
    <path d="M 72.251077 302.17616 
L 75.896274 307.584 
L 79.576615 307.584 
L 82.167181 307.584 
L 79.576615 304.094911 
L 77.348152 300.760615 
L 73.292733 293.937231 
L 72.251077 291.97946 
L 69.948213 287.113846 
L 66.559756 280.290462 
L 64.925538 277.37714 
L 62.788052 273.467077 
L 58.445968 266.643692 
L 57.6 265.090342 
L 57.6 266.643692 
L 57.6 273.467077 
L 57.6 274.236909 
L 61.208099 280.290462 
L 64.558664 287.113846 
L 64.925538 287.914217 
L 67.836089 293.937231 
L 71.415949 300.760615 
z
M 328.644923 110.51084 
L 335.970462 112.738302 
L 343.296 114.572447 
L 343.296 111.323382 
L 337.568303 109.705846 
L 335.970462 109.26341 
L 328.644923 106.976104 
L 321.319385 104.152623 
L 318.390594 102.882462 
L 313.993846 101.0347 
L 306.668308 97.511969 
L 304.213476 96.059077 
L 299.342769 92.968666 
L 292.859509 89.235692 
L 292.017231 88.798659 
L 284.691692 85.291004 
L 279.082789 82.412308 
L 277.366154 81.523511 
L 270.040615 77.382726 
L 266.652999 75.588923 
L 262.715077 73.66127 
L 255.389538 70.066085 
L 252.777086 68.765538 
L 248.064 66.560468 
L 240.738462 63.266407 
L 237.231185 61.942154 
L 233.412923 60.681664 
L 226.087385 58.844018 
L 218.761846 56.747508 
L 213.636432 55.118769 
L 211.436308 54.480233 
L 204.110769 52.367592 
L 196.785231 50.109302 
L 189.459692 48.295989 
L 189.457119 48.295385 
L 182.134154 46.738298 
L 174.808615 45.119071 
L 167.483077 43.491096 
L 160.157538 42.156982 
L 157.411231 41.472 
L 152.832 41.472 
L 145.506462 41.472 
L 143.833721 41.472 
L 145.506462 41.83848 
L 152.832 44.054508 
L 160.157538 45.911629 
L 167.483077 47.234801 
L 172.584026 48.295385 
L 174.808615 48.811726 
L 182.134154 50.630068 
L 189.459692 52.290417 
L 196.785231 54.031628 
L 200.503494 55.118769 
L 204.110769 56.274066 
L 211.436308 58.490787 
L 218.761846 60.705757 
L 223.303672 61.942154 
L 226.087385 62.758342 
L 233.412923 64.741501 
L 240.738462 67.508158 
L 243.591801 68.765538 
L 248.064 70.913184 
L 255.389538 74.448494 
L 257.773044 75.588923 
L 262.715077 78.171691 
L 270.040615 81.9115 
L 270.935493 82.412308 
L 277.366154 86.121942 
L 283.901593 89.235692 
L 284.691692 89.642155 
L 292.017231 93.553992 
L 296.450421 96.059077 
L 299.342769 97.882412 
L 306.668308 101.874681 
L 308.979485 102.882462 
L 313.993846 105.002981 
L 321.319385 107.975196 
L 326.342096 109.705846 
z
M 61.476026 75.588923 
L 64.925538 70.628358 
L 66.278205 68.765538 
L 71.71775 61.942154 
L 72.251077 61.23162 
L 77.362919 55.118769 
L 79.576615 53.025431 
L 85.319628 48.295385 
L 86.902154 47.054173 
L 94.227692 41.682834 
L 94.552138 41.472 
L 94.227692 41.472 
L 86.902154 41.472 
L 86.470516 41.472 
L 79.576615 46.941948 
L 77.961977 48.295385 
L 72.251077 53.696417 
L 71.017435 55.118769 
L 65.789802 61.942154 
L 64.925538 63.004255 
L 60.696752 68.765538 
L 57.6 72.910699 
L 57.6 75.588923 
L 57.6 80.375106 
z
" clip-path="url(#pbf358c28c7)" style="fill: #3e4989"/>
    <path d="M 72.251077 307.584 
L 75.896274 307.584 
L 72.251077 302.17616 
L 71.415949 300.760615 
L 67.836089 293.937231 
L 64.925538 287.914217 
L 64.558664 287.113846 
L 61.208099 280.290462 
L 57.6 274.236909 
L 57.6 280.290462 
L 57.6 283.317482 
L 59.506407 287.113846 
L 62.809845 293.937231 
L 64.925538 298.398272 
L 66.182484 300.760615 
L 70.210447 307.584 
z
M 343.296 111.323382 
L 343.296 109.705846 
L 343.296 108.230534 
L 335.970462 106.077736 
L 328.644923 103.531305 
L 327.033151 102.882462 
L 321.319385 100.552246 
L 313.993846 97.330454 
L 311.504943 96.059077 
L 306.668308 93.108128 
L 300.715575 89.235692 
L 299.342769 88.418416 
L 292.017231 84.583955 
L 287.546835 82.412308 
L 284.691692 81.14205 
L 277.366154 77.195058 
L 274.578135 75.588923 
L 270.040615 73.137942 
L 262.715077 69.474665 
L 261.293145 68.765538 
L 255.389538 66.006966 
L 248.064 62.441839 
L 246.965586 61.942154 
L 240.738462 59.340961 
L 233.412923 56.972995 
L 226.473032 55.118769 
L 226.087385 55.022998 
L 218.761846 53.057282 
L 211.436308 50.865146 
L 204.110769 48.604558 
L 203.139541 48.295385 
L 196.785231 46.436082 
L 189.459692 44.782252 
L 182.134154 43.123329 
L 174.808615 41.495004 
L 174.709047 41.472 
L 167.483077 41.472 
L 160.157538 41.472 
L 157.411231 41.472 
L 160.157538 42.156982 
L 167.483077 43.491096 
L 174.808615 45.119071 
L 182.134154 46.738298 
L 189.457119 48.295385 
L 189.459692 48.295989 
L 196.785231 50.109302 
L 204.110769 52.367592 
L 211.436308 54.480233 
L 213.636432 55.118769 
L 218.761846 56.747508 
L 226.087385 58.844018 
L 233.412923 60.681664 
L 237.231185 61.942154 
L 240.738462 63.266407 
L 248.064 66.560468 
L 252.777086 68.765538 
L 255.389538 70.066085 
L 262.715077 73.66127 
L 266.652999 75.588923 
L 270.040615 77.382726 
L 277.366154 81.523511 
L 279.082789 82.412308 
L 284.691692 85.291004 
L 292.017231 88.798659 
L 292.859509 89.235692 
L 299.342769 92.968666 
L 304.213476 96.059077 
L 306.668308 97.511969 
L 313.993846 101.0347 
L 318.390594 102.882462 
L 321.319385 104.152623 
L 328.644923 106.976104 
L 335.970462 109.26341 
L 337.568303 109.705846 
z
M 60.696752 68.765538 
L 64.925538 63.004255 
L 65.789802 61.942154 
L 71.017435 55.118769 
L 72.251077 53.696417 
L 77.961977 48.295385 
L 79.576615 46.941948 
L 86.470516 41.472 
L 79.576615 41.472 
L 79.452831 41.472 
L 72.251077 47.535369 
L 71.463583 48.295385 
L 65.558512 55.118769 
L 64.925538 55.934293 
L 60.245554 61.942154 
L 57.6 65.587971 
L 57.6 68.765538 
L 57.6 72.910699 
z
" clip-path="url(#pbf358c28c7)" style="fill: #3c508b"/>
    <path d="M 64.925538 307.486576 
L 64.98307 307.584 
L 70.210447 307.584 
L 66.182484 300.760615 
L 64.925538 298.398272 
L 62.809845 293.937231 
L 59.506407 287.113846 
L 57.6 283.317482 
L 57.6 287.113846 
L 57.6 292.859123 
L 58.14505 293.937231 
L 61.414206 300.760615 
z
M 328.644923 103.531305 
L 335.970462 106.077736 
L 343.296 108.230534 
L 343.296 105.292563 
L 335.970462 102.892063 
L 335.94336 102.882462 
L 328.644923 100.251334 
L 321.319385 97.062442 
L 319.08894 96.059077 
L 313.993846 93.450573 
L 307.438855 89.235692 
L 306.668308 88.748801 
L 299.342769 84.369452 
L 295.685205 82.412308 
L 292.017231 80.716577 
L 284.691692 77.282047 
L 281.681841 75.588923 
L 277.366154 73.201516 
L 270.040615 69.07942 
L 269.416635 68.765538 
L 262.715077 65.663343 
L 255.389538 62.084275 
L 255.099446 61.942154 
L 248.064 58.703065 
L 240.738462 55.559086 
L 239.354912 55.118769 
L 233.412923 53.482369 
L 226.087385 51.575909 
L 218.761846 49.554453 
L 214.702153 48.295385 
L 211.436308 47.357045 
L 204.110769 45.251613 
L 196.785231 42.977174 
L 190.319825 41.472 
L 189.459692 41.472 
L 182.134154 41.472 
L 174.808615 41.472 
L 174.709047 41.472 
L 174.808615 41.495004 
L 182.134154 43.123329 
L 189.459692 44.782252 
L 196.785231 46.436082 
L 203.139541 48.295385 
L 204.110769 48.604558 
L 211.436308 50.865146 
L 218.761846 53.057282 
L 226.087385 55.022998 
L 226.473032 55.118769 
L 233.412923 56.972995 
L 240.738462 59.340961 
L 246.965586 61.942154 
L 248.064 62.441839 
L 255.389538 66.006966 
L 261.293145 68.765538 
L 262.715077 69.474665 
L 270.040615 73.137942 
L 274.578135 75.588923 
L 277.366154 77.195058 
L 284.691692 81.14205 
L 287.546835 82.412308 
L 292.017231 84.583955 
L 299.342769 88.418416 
L 300.715575 89.235692 
L 306.668308 93.108128 
L 311.504943 96.059077 
L 313.993846 97.330454 
L 321.319385 100.552246 
L 327.033151 102.882462 
z
M 60.245554 61.942154 
L 64.925538 55.934293 
L 65.558512 55.118769 
L 71.463583 48.295385 
L 72.251077 47.535369 
L 79.452831 41.472 
L 73.090024 41.472 
L 72.251077 42.178335 
L 65.91287 48.295385 
L 64.925538 49.438319 
L 60.449628 55.118769 
L 57.6 58.674869 
L 57.6 61.942154 
L 57.6 65.587971 
z
" clip-path="url(#pbf358c28c7)" style="fill: #39568c"/>
    <path d="M 64.925538 307.584 
L 64.98307 307.584 
L 64.925538 307.486576 
L 61.414206 300.760615 
L 58.14505 293.937231 
L 57.6 292.859123 
L 57.6 293.937231 
L 57.6 300.760615 
L 57.6 302.25195 
L 60.435009 307.584 
z
M 335.970462 102.892063 
L 343.296 105.292563 
L 343.296 102.882462 
L 343.296 102.384484 
L 335.970462 99.9512 
L 328.644923 97.009615 
L 326.509116 96.059077 
L 321.319385 93.697478 
L 313.993846 89.478908 
L 313.615596 89.235692 
L 306.668308 84.845855 
L 302.662167 82.412308 
L 299.342769 80.63091 
L 292.017231 77.218384 
L 288.695241 75.588923 
L 284.691692 73.582886 
L 277.366154 69.405567 
L 276.234309 68.765538 
L 270.040615 65.490075 
L 262.74168 61.942154 
L 262.715077 61.929991 
L 255.389538 58.566361 
L 248.264364 55.118769 
L 248.064 55.028436 
L 240.738462 52.246405 
L 233.412923 50.209761 
L 226.646327 48.295385 
L 226.087385 48.146887 
L 218.761846 46.290234 
L 211.436308 44.111951 
L 204.110769 41.935378 
L 202.657973 41.472 
L 196.785231 41.472 
L 190.319825 41.472 
L 196.785231 42.977174 
L 204.110769 45.251613 
L 211.436308 47.357045 
L 214.702153 48.295385 
L 218.761846 49.554453 
L 226.087385 51.575909 
L 233.412923 53.482369 
L 239.354912 55.118769 
L 240.738462 55.559086 
L 248.064 58.703065 
L 255.099446 61.942154 
L 255.389538 62.084275 
L 262.715077 65.663343 
L 269.416635 68.765538 
L 270.040615 69.07942 
L 277.366154 73.201516 
L 281.681841 75.588923 
L 284.691692 77.282047 
L 292.017231 80.716577 
L 295.685205 82.412308 
L 299.342769 84.369452 
L 306.668308 88.748801 
L 307.438855 89.235692 
L 313.993846 93.450573 
L 319.08894 96.059077 
L 321.319385 97.062442 
L 328.644923 100.251334 
L 335.94336 102.882462 
z
M 60.449628 55.118769 
L 64.925538 49.438319 
L 65.91287 48.295385 
L 72.251077 42.178335 
L 73.090024 41.472 
L 72.251077 41.472 
L 67.405091 41.472 
L 64.925538 43.865521 
L 61.01421 48.295385 
L 57.6 52.535694 
L 57.6 55.118769 
L 57.6 58.674869 
z
" clip-path="url(#pbf358c28c7)" style="fill: #365d8d"/>
    <path d="M 57.6 302.25195 
L 57.6 307.584 
L 60.435009 307.584 
z
M 328.644923 97.009615 
L 335.970462 99.9512 
L 343.296 102.384484 
L 343.296 99.612883 
L 335.970462 97.011078 
L 333.668853 96.059077 
L 328.644923 93.992562 
L 321.319385 90.382891 
L 319.346099 89.235692 
L 313.993846 85.773387 
L 308.809906 82.412308 
L 306.668308 81.129161 
L 299.342769 77.182805 
L 295.944478 75.588923 
L 292.017231 73.877779 
L 284.691692 70.009401 
L 282.52981 68.765538 
L 277.366154 65.849015 
L 270.0445 61.942154 
L 270.040615 61.940277 
L 262.715077 58.590917 
L 255.498718 55.118769 
L 255.389538 55.069173 
L 248.064 51.764749 
L 240.738462 48.995549 
L 238.235701 48.295385 
L 233.412923 47.06682 
L 226.087385 45.073689 
L 218.761846 43.159908 
L 213.318738 41.472 
L 211.436308 41.472 
L 204.110769 41.472 
L 202.657973 41.472 
L 204.110769 41.935378 
L 211.436308 44.111951 
L 218.761846 46.290234 
L 226.087385 48.146887 
L 226.646327 48.295385 
L 233.412923 50.209761 
L 240.738462 52.246405 
L 248.064 55.028436 
L 248.264364 55.118769 
L 255.389538 58.566361 
L 262.715077 61.929991 
L 262.74168 61.942154 
L 270.040615 65.490075 
L 276.234309 68.765538 
L 277.366154 69.405567 
L 284.691692 73.582886 
L 288.695241 75.588923 
L 292.017231 77.218384 
L 299.342769 80.63091 
L 302.662167 82.412308 
L 306.668308 84.845855 
L 313.615596 89.235692 
L 313.993846 89.478908 
L 321.319385 93.697478 
L 326.509116 96.059077 
z
M 61.01421 48.295385 
L 64.925538 43.865521 
L 67.405091 41.472 
L 64.925538 41.472 
L 62.309429 41.472 
L 57.6 46.793549 
L 57.6 48.295385 
L 57.6 52.535694 
z
" clip-path="url(#pbf358c28c7)" style="fill: #33638d"/>
    <path d="M 335.970462 97.011078 
L 343.296 99.612883 
L 343.296 96.841283 
L 341.138893 96.059077 
L 335.970462 94.221821 
L 328.644923 91.068717 
L 325.059284 89.235692 
L 321.319385 86.938108 
L 314.465732 82.412308 
L 313.993846 82.11832 
L 306.668308 77.720928 
L 302.729109 75.588923 
L 299.342769 74.00456 
L 292.017231 70.674583 
L 288.518646 68.765538 
L 284.691692 66.659228 
L 277.366154 62.341013 
L 276.618671 61.942154 
L 270.040615 58.762897 
L 262.715077 55.251843 
L 262.438502 55.118769 
L 255.389538 51.916691 
L 248.064 48.501062 
L 247.519365 48.295385 
L 240.738462 46.087854 
L 233.412923 44.10664 
L 226.087385 42.000491 
L 224.096482 41.472 
L 218.761846 41.472 
L 213.318738 41.472 
L 218.761846 43.159908 
L 226.087385 45.073689 
L 233.412923 47.06682 
L 238.235701 48.295385 
L 240.738462 48.995549 
L 248.064 51.764749 
L 255.389538 55.069173 
L 255.498718 55.118769 
L 262.715077 58.590917 
L 270.040615 61.940277 
L 270.0445 61.942154 
L 277.366154 65.849015 
L 282.52981 68.765538 
L 284.691692 70.009401 
L 292.017231 73.877779 
L 295.944478 75.588923 
L 299.342769 77.182805 
L 306.668308 81.129161 
L 308.809906 82.412308 
L 313.993846 85.773387 
L 319.346099 89.235692 
L 321.319385 90.382891 
L 328.644923 93.992562 
L 333.668853 96.059077 
z
M 62.309429 41.472 
L 57.602448 41.472 
L 57.6 41.474766 
L 57.6 46.793549 
z
" clip-path="url(#pbf358c28c7)" style="fill: #30698e"/>
    <path d="M 343.296 96.841283 
L 343.296 96.059077 
L 343.296 94.25034 
L 335.970462 91.504805 
L 330.906911 89.235692 
L 328.644923 88.088594 
L 321.319385 83.424412 
L 319.786702 82.412308 
L 313.993846 78.803318 
L 308.70913 75.588923 
L 306.668308 74.492939 
L 299.342769 71.058287 
L 294.520734 68.765538 
L 292.017231 67.53763 
L 284.691692 63.428288 
L 282.188832 61.942154 
L 277.366154 59.193524 
L 270.040615 55.585517 
L 269.068567 55.118769 
L 262.715077 52.245191 
L 255.389538 48.764209 
L 254.386105 48.295385 
L 248.064 45.577791 
L 240.738462 43.274356 
L 234.486238 41.472 
L 233.412923 41.472 
L 226.087385 41.472 
L 224.096482 41.472 
L 226.087385 42.000491 
L 233.412923 44.10664 
L 240.738462 46.087854 
L 247.519365 48.295385 
L 248.064 48.501062 
L 255.389538 51.916691 
L 262.438502 55.118769 
L 262.715077 55.251843 
L 270.040615 58.762897 
L 276.618671 61.942154 
L 277.366154 62.341013 
L 284.691692 66.659228 
L 288.518646 68.765538 
L 292.017231 70.674583 
L 299.342769 74.00456 
L 302.729109 75.588923 
L 306.668308 77.720928 
L 313.993846 82.11832 
L 314.465732 82.412308 
L 321.319385 86.938108 
L 325.059284 89.235692 
L 328.644923 91.068717 
L 335.970462 94.221821 
L 341.138893 96.059077 
z
M 57.602448 41.472 
L 57.6 41.472 
L 57.6 41.474766 
z
" clip-path="url(#pbf358c28c7)" style="fill: #2e6f8e"/>
    <path d="M 335.970462 91.504805 
L 343.296 94.25034 
L 343.296 91.730431 
L 337.016147 89.235692 
L 335.970462 88.821613 
L 328.644923 85.013902 
L 324.666728 82.412308 
L 321.319385 80.188947 
L 314.141732 75.588923 
L 313.993846 75.503394 
L 306.668308 71.566056 
L 300.721398 68.765538 
L 299.342769 68.158325 
L 292.017231 64.498391 
L 287.556069 61.942154 
L 284.691692 60.315505 
L 277.366154 56.092283 
L 275.395682 55.118769 
L 270.040615 52.67494 
L 262.715077 49.252338 
L 260.714862 48.295385 
L 255.389538 45.869939 
L 248.064 42.677415 
L 244.135539 41.472 
L 240.738462 41.472 
L 234.486238 41.472 
L 240.738462 43.274356 
L 248.064 45.577791 
L 254.386105 48.295385 
L 255.389538 48.764209 
L 262.715077 52.245191 
L 269.068567 55.118769 
L 270.040615 55.585517 
L 277.366154 59.193524 
L 282.188832 61.942154 
L 284.691692 63.428288 
L 292.017231 67.53763 
L 294.520734 68.765538 
L 299.342769 71.058287 
L 306.668308 74.492939 
L 308.70913 75.588923 
L 313.993846 78.803318 
L 319.786702 82.412308 
L 321.319385 83.424412 
L 328.644923 88.088594 
L 330.906911 89.235692 
z
" clip-path="url(#pbf358c28c7)" style="fill: #2b748e"/>
    <path d="M 343.296 91.730431 
L 343.296 89.235692 
L 343.296 89.212351 
L 335.970462 86.309772 
L 329.305823 82.412308 
L 328.644923 81.95224 
L 321.319385 77.066048 
L 319.014551 75.588923 
L 313.993846 72.685222 
L 306.888854 68.765538 
L 306.668308 68.655696 
L 299.342769 65.420833 
L 292.831534 61.942154 
L 292.017231 61.502747 
L 284.691692 57.303363 
L 280.927259 55.118769 
L 277.366154 53.230992 
L 270.040615 49.810305 
L 266.836547 48.295385 
L 262.715077 46.443222 
L 255.389538 43.020779 
L 251.859261 41.472 
L 248.064 41.472 
L 244.135539 41.472 
L 248.064 42.677415 
L 255.389538 45.869939 
L 260.714862 48.295385 
L 262.715077 49.252338 
L 270.040615 52.67494 
L 275.395682 55.118769 
L 277.366154 56.092283 
L 284.691692 60.315505 
L 287.556069 61.942154 
L 292.017231 64.498391 
L 299.342769 68.158325 
L 300.721398 68.765538 
L 306.668308 71.566056 
L 313.993846 75.503394 
L 314.141732 75.588923 
L 321.319385 80.188947 
L 324.666728 82.412308 
L 328.644923 85.013902 
L 335.970462 88.821613 
L 337.016147 89.235692 
z
" clip-path="url(#pbf358c28c7)" style="fill: #297a8e"/>
    <path d="M 335.970462 86.309772 
L 343.296 89.212351 
L 343.296 86.875676 
L 335.970462 83.797932 
L 333.601054 82.412308 
L 328.644923 78.962229 
L 323.651784 75.588923 
L 321.319385 74.09221 
L 313.993846 69.867051 
L 311.997197 68.765538 
L 306.668308 66.111514 
L 299.342769 62.683342 
L 297.955447 61.942154 
L 292.017231 58.737829 
L 285.962547 55.118769 
L 284.691692 54.374288 
L 277.366154 50.479486 
L 272.769211 48.295385 
L 270.040615 47.070753 
L 262.715077 43.72047 
L 257.997085 41.472 
L 255.389538 41.472 
L 251.859261 41.472 
L 255.389538 43.020779 
L 262.715077 46.443222 
L 266.836547 48.295385 
L 270.040615 49.810305 
L 277.366154 53.230992 
L 280.927259 55.118769 
L 284.691692 57.303363 
L 292.017231 61.502747 
L 292.831534 61.942154 
L 299.342769 65.420833 
L 306.668308 68.655696 
L 306.888854 68.765538 
L 313.993846 72.685222 
L 319.014551 75.588923 
L 321.319385 77.066048 
L 328.644923 81.95224 
L 329.305823 82.412308 
z
" clip-path="url(#pbf358c28c7)" style="fill: #27808e"/>
    <path d="M 335.970462 83.797932 
L 343.296 86.875676 
L 343.296 84.539001 
L 338.388203 82.412308 
L 335.970462 81.12493 
L 328.644923 75.972219 
L 328.077572 75.588923 
L 321.319385 71.252158 
L 316.999365 68.765538 
L 313.993846 67.24554 
L 306.668308 63.567331 
L 303.247747 61.942154 
L 299.342769 60.024603 
L 292.017231 55.97291 
L 290.588254 55.118769 
L 284.691692 51.664497 
L 278.408316 48.295385 
L 277.366154 47.790043 
L 270.040615 44.471593 
L 263.675773 41.472 
L 262.715077 41.472 
L 257.997085 41.472 
L 262.715077 43.72047 
L 270.040615 47.070753 
L 272.769211 48.295385 
L 277.366154 50.479486 
L 284.691692 54.374288 
L 285.962547 55.118769 
L 292.017231 58.737829 
L 297.955447 61.942154 
L 299.342769 62.683342 
L 306.668308 66.111514 
L 311.997197 68.765538 
L 313.993846 69.867051 
L 321.319385 74.09221 
L 323.651784 75.588923 
L 328.644923 78.962229 
L 333.601054 82.412308 
z
" clip-path="url(#pbf358c28c7)" style="fill: #25858e"/>
    <path d="M 343.296 84.539001 
L 343.296 82.412308 
L 343.296 82.197272 
L 335.970462 78.253645 
L 332.19322 75.588923 
L 328.644923 73.312313 
L 321.80804 68.765538 
L 321.319385 68.483456 
L 313.993846 64.750219 
L 308.448347 61.942154 
L 306.668308 61.095063 
L 299.342769 57.395103 
L 295.269173 55.118769 
L 292.017231 53.327081 
L 284.691692 48.954705 
L 283.462063 48.295385 
L 277.366154 45.339494 
L 270.040615 41.872433 
L 269.190936 41.472 
L 263.675773 41.472 
L 270.040615 44.471593 
L 277.366154 47.790043 
L 278.408316 48.295385 
L 284.691692 51.664497 
L 290.588254 55.118769 
L 292.017231 55.97291 
L 299.342769 60.024603 
L 303.247747 61.942154 
L 306.668308 63.567331 
L 313.993846 67.24554 
L 316.999365 68.765538 
L 321.319385 71.252158 
L 328.077572 75.588923 
L 328.644923 75.972219 
L 335.970462 81.12493 
L 338.388203 82.412308 
z
" clip-path="url(#pbf358c28c7)" style="fill: #228b8d"/>
    <path d="M 335.970462 78.253645 
L 343.296 82.197272 
L 343.296 79.804348 
L 336.257883 75.588923 
L 335.970462 75.412319 
L 328.644923 70.700946 
L 325.734694 68.765538 
L 321.319385 66.216748 
L 313.993846 62.254898 
L 313.376225 61.942154 
L 306.668308 58.74997 
L 299.927464 55.118769 
L 299.342769 54.802422 
L 292.017231 50.734487 
L 287.957204 48.295385 
L 284.691692 46.490051 
L 277.366154 42.888945 
L 274.391937 41.472 
L 270.040615 41.472 
L 269.190936 41.472 
L 270.040615 41.872433 
L 277.366154 45.339494 
L 283.462063 48.295385 
L 284.691692 48.954705 
L 292.017231 53.327081 
L 295.269173 55.118769 
L 299.342769 57.395103 
L 306.668308 61.095063 
L 308.448347 61.942154 
L 313.993846 64.750219 
L 321.319385 68.483456 
L 321.80804 68.765538 
L 328.644923 73.312313 
L 332.19322 75.588923 
z
" clip-path="url(#pbf358c28c7)" style="fill: #21918c"/>
    <path d="M 343.296 79.804348 
L 343.296 77.411424 
L 340.253133 75.588923 
L 335.970462 72.957476 
L 329.609205 68.765538 
L 328.644923 68.175146 
L 321.319385 63.950039 
L 317.633423 61.942154 
L 313.993846 60.010352 
L 306.668308 56.404878 
L 304.280818 55.118769 
L 299.342769 52.447056 
L 292.255287 48.295385 
L 292.017231 48.160638 
L 284.691692 44.10422 
L 279.392177 41.472 
L 277.366154 41.472 
L 274.391937 41.472 
L 277.366154 42.888945 
L 284.691692 46.490051 
L 287.957204 48.295385 
L 292.017231 50.734487 
L 299.342769 54.802422 
L 299.927464 55.118769 
L 306.668308 58.74997 
L 313.376225 61.942154 
L 313.993846 62.254898 
L 321.319385 66.216748 
L 325.734694 68.765538 
L 328.644923 70.700946 
L 335.970462 75.412319 
L 336.257883 75.588923 
z
" clip-path="url(#pbf358c28c7)" style="fill: #1f958b"/>
    <path d="M 343.296 77.411424 
L 343.296 75.588923 
L 343.296 75.030932 
L 335.970462 70.502634 
L 333.334424 68.765538 
L 328.644923 65.894338 
L 321.772265 61.942154 
L 321.319385 61.698077 
L 313.993846 57.801741 
L 308.653499 55.118769 
L 306.668308 54.110273 
L 299.342769 50.09169 
L 296.276225 48.295385 
L 292.017231 45.884673 
L 284.691692 41.718388 
L 284.195632 41.472 
L 279.392177 41.472 
L 284.691692 44.10422 
L 292.017231 48.160638 
L 292.255287 48.295385 
L 299.342769 52.447056 
L 304.280818 55.118769 
L 306.668308 56.404878 
L 313.993846 60.010352 
L 317.633423 61.942154 
L 321.319385 63.950039 
L 328.644923 68.175146 
L 329.609205 68.765538 
L 335.970462 72.957476 
L 340.253133 75.588923 
z
" clip-path="url(#pbf358c28c7)" style="fill: #1e9b8a"/>
    <path d="M 335.970462 70.502634 
L 343.296 75.030932 
L 343.296 72.69016 
L 337.058235 68.765538 
L 335.970462 68.10969 
L 328.644923 63.61353 
L 325.73848 61.942154 
L 321.319385 59.560515 
L 313.993846 55.59313 
L 313.04965 55.118769 
L 306.668308 51.876986 
L 300.287187 48.295385 
L 299.342769 47.778412 
L 292.017231 43.608707 
L 288.270482 41.472 
L 284.691692 41.472 
L 284.195632 41.472 
L 284.691692 41.718388 
L 292.017231 45.884673 
L 296.276225 48.295385 
L 299.342769 50.09169 
L 306.668308 54.110273 
L 308.653499 55.118769 
L 313.993846 57.801741 
L 321.319385 61.698077 
L 321.772265 61.942154 
L 328.644923 65.894338 
L 333.334424 68.765538 
z
" clip-path="url(#pbf358c28c7)" style="fill: #1fa188"/>
    <path d="M 343.296 72.69016 
L 343.296 70.349388 
L 340.778641 68.765538 
L 335.970462 65.866555 
L 329.615502 61.942154 
L 328.644923 61.414654 
L 321.319385 57.422953 
L 317.081149 55.118769 
L 313.993846 53.573154 
L 306.668308 49.643699 
L 304.266098 48.295385 
L 299.342769 45.600366 
L 292.24631 41.472 
L 292.017231 41.472 
L 288.270482 41.472 
L 292.017231 43.608707 
L 299.342769 47.778412 
L 300.287187 48.295385 
L 306.668308 51.876986 
L 313.04965 55.118769 
L 313.993846 55.59313 
L 321.319385 59.560515 
L 325.73848 61.942154 
L 328.644923 63.61353 
L 335.970462 68.10969 
L 337.058235 68.765538 
z
" clip-path="url(#pbf358c28c7)" style="fill: #21a685"/>
    <path d="M 343.296 70.349388 
L 343.296 68.765538 
L 343.296 68.087937 
L 335.970462 63.623421 
L 333.247911 61.942154 
L 328.644923 59.440477 
L 321.319385 55.285391 
L 321.012907 55.118769 
L 313.993846 51.604775 
L 308.065561 48.295385 
L 306.668308 47.498131 
L 299.342769 43.422319 
L 295.990266 41.472 
L 292.24631 41.472 
L 299.342769 45.600366 
L 304.266098 48.295385 
L 306.668308 49.643699 
L 313.993846 53.573154 
L 317.081149 55.118769 
L 321.319385 57.422953 
L 328.644923 61.414654 
L 329.615502 61.942154 
L 335.970462 65.866555 
L 340.778641 68.765538 
z
" clip-path="url(#pbf358c28c7)" style="fill: #25ac82"/>
    <path d="M 335.970462 63.623421 
L 343.296 68.087937 
L 343.296 65.992464 
L 336.810872 61.942154 
L 335.970462 61.465317 
L 328.644923 57.4663 
L 324.518805 55.118769 
L 321.319385 53.335106 
L 313.993846 49.636396 
L 311.591622 48.295385 
L 306.668308 45.48621 
L 299.707536 41.472 
L 299.342769 41.472 
L 295.990266 41.472 
L 299.342769 43.422319 
L 306.668308 47.498131 
L 308.065561 48.295385 
L 313.993846 51.604775 
L 321.012907 55.118769 
L 321.319385 55.285391 
L 328.644923 59.440477 
L 333.247911 61.942154 
z
" clip-path="url(#pbf358c28c7)" style="fill: #2cb17e"/>
    <path d="M 343.296 65.992464 
L 343.296 63.896991 
L 340.166025 61.942154 
L 335.970462 59.561652 
L 328.644923 55.492123 
L 327.988701 55.118769 
L 321.319385 51.400653 
L 315.20739 48.295385 
L 313.993846 47.673795 
L 306.668308 43.474289 
L 303.196273 41.472 
L 299.707536 41.472 
L 306.668308 45.48621 
L 311.591622 48.295385 
L 313.993846 49.636396 
L 321.319385 53.335106 
L 324.518805 55.118769 
L 328.644923 57.4663 
L 335.970462 61.465317 
L 336.810872 61.942154 
z
" clip-path="url(#pbf358c28c7)" style="fill: #34b679"/>
    <path d="M 343.296 63.896991 
L 343.296 61.942154 
L 343.296 61.815673 
L 335.970462 57.657987 
L 331.414558 55.118769 
L 328.644923 53.600613 
L 321.319385 49.466201 
L 319.014907 48.295385 
L 313.993846 45.723545 
L 306.68436 41.472 
L 306.668308 41.472 
L 303.196273 41.472 
L 306.668308 43.474289 
L 313.993846 47.673795 
L 315.20739 48.295385 
L 321.319385 51.400653 
L 327.988701 55.118769 
L 328.644923 55.492123 
L 335.970462 59.561652 
L 340.166025 61.942154 
z
" clip-path="url(#pbf358c28c7)" style="fill: #3dbc74"/>
    <path d="M 335.970462 57.657987 
L 343.296 61.815673 
L 343.296 59.931109 
L 335.970462 55.754322 
L 334.830143 55.118769 
L 328.644923 51.728384 
L 322.617088 48.295385 
L 321.319385 47.619926 
L 313.993846 43.773295 
L 310.037336 41.472 
L 306.68436 41.472 
L 313.993846 45.723545 
L 319.014907 48.295385 
L 321.319385 49.466201 
L 328.644923 53.600613 
L 331.414558 55.118769 
z
" clip-path="url(#pbf358c28c7)" style="fill: #48c16e"/>
    <path d="M 335.970462 55.754322 
L 343.296 59.931109 
L 343.296 58.046546 
L 338.168891 55.118769 
L 335.970462 53.955586 
L 328.644923 49.856155 
L 325.904443 48.295385 
L 321.319385 45.908847 
L 313.993846 41.823045 
L 313.390311 41.472 
L 310.037336 41.472 
L 313.993846 43.773295 
L 321.319385 47.619926 
L 322.617088 48.295385 
L 328.644923 51.728384 
L 334.830143 55.118769 
z
" clip-path="url(#pbf358c28c7)" style="fill: #54c568"/>
    <path d="M 343.296 58.046546 
L 343.296 56.161983 
L 341.469129 55.118769 
L 335.970462 52.209439 
L 329.151032 48.295385 
L 328.644923 48.012325 
L 321.319385 44.197767 
L 316.483244 41.472 
L 313.993846 41.472 
L 313.390311 41.472 
L 313.993846 41.823045 
L 321.319385 45.908847 
L 325.904443 48.295385 
L 328.644923 49.856155 
L 335.970462 53.955586 
L 338.168891 55.118769 
z
" clip-path="url(#pbf358c28c7)" style="fill: #60ca60"/>
    <path d="M 343.296 56.161983 
L 343.296 55.118769 
L 343.296 54.384847 
L 335.970462 50.463293 
L 332.193331 48.295385 
L 328.644923 46.310809 
L 321.319385 42.486688 
L 319.519094 41.472 
L 316.483244 41.472 
L 321.319385 44.197767 
L 328.644923 48.012325 
L 329.151032 48.295385 
L 335.970462 52.209439 
L 341.469129 55.118769 
z
" clip-path="url(#pbf358c28c7)" style="fill: #6ece58"/>
    <path d="M 335.970462 50.463293 
L 343.296 54.384847 
L 343.296 52.740914 
L 335.970462 48.717146 
L 335.23563 48.295385 
L 328.644923 44.609294 
L 322.643981 41.472 
L 321.319385 41.472 
L 319.519094 41.472 
L 321.319385 42.486688 
L 328.644923 46.310809 
L 332.193331 48.295385 
z
" clip-path="url(#pbf358c28c7)" style="fill: #7cd250"/>
    <path d="M 335.970462 48.717146 
L 343.296 52.740914 
L 343.296 51.096982 
L 338.226611 48.295385 
L 335.970462 47.036643 
L 328.644923 42.907778 
L 325.8986 41.472 
L 322.643981 41.472 
L 328.644923 44.609294 
L 335.23563 48.295385 
z
" clip-path="url(#pbf358c28c7)" style="fill: #8bd646"/>
    <path d="M 343.296 51.096982 
L 343.296 49.453049 
L 341.201248 48.295385 
L 335.970462 45.377046 
L 329.10088 41.472 
L 328.644923 41.472 
L 325.8986 41.472 
L 328.644923 42.907778 
L 335.970462 47.036643 
L 338.226611 48.295385 
z
" clip-path="url(#pbf358c28c7)" style="fill: #9bd93c"/>
    <path d="M 343.296 49.453049 
L 343.296 48.295385 
L 343.296 47.844133 
L 335.970462 43.717448 
L 332.020369 41.472 
L 329.10088 41.472 
L 335.970462 45.377046 
L 341.201248 48.295385 
z
" clip-path="url(#pbf358c28c7)" style="fill: #aadc32"/>
    <path d="M 335.970462 43.717448 
L 343.296 47.844133 
L 343.296 46.318584 
L 335.970462 42.057851 
L 334.939859 41.472 
L 332.020369 41.472 
z
" clip-path="url(#pbf358c28c7)" style="fill: #bade28"/>
    <path d="M 335.970462 42.057851 
L 343.296 46.318584 
L 343.296 44.793035 
L 337.648816 41.472 
L 335.970462 41.472 
L 334.939859 41.472 
z
" clip-path="url(#pbf358c28c7)" style="fill: #cae11f"/>
    <path d="M 343.296 44.793035 
L 343.296 43.267485 
L 340.242905 41.472 
L 337.648816 41.472 
z
" clip-path="url(#pbf358c28c7)" style="fill: #dae319"/>
    <path d="M 343.296 43.267485 
L 343.296 41.741936 
L 342.836993 41.472 
L 340.242905 41.472 
z
" clip-path="url(#pbf358c28c7)" style="fill: #eae51a"/>
    <path d="M 343.296 41.741936 
L 343.296 41.472 
L 342.836993 41.472 
z
" clip-path="url(#pbf358c28c7)" style="fill: #f8e621"/>
   </g>
   <g id="matplotlib.axis_1">
    <g id="xtick_1">
     <g id="line2d_1">
      <defs>
       <path id="mdc1d1d704e" d="M 0 0 
L 0 3.5 
" style="stroke: #000000; stroke-width: 0.8"/>
      </defs>
      <g>
       <use xlink:href="#mdc1d1d704e" x="57.6" y="307.584" style="stroke: #000000; stroke-width: 0.8"/>
      </g>
     </g>
     <g id="text_1">
      <!-- 4 -->
      <g transform="translate(50.228906 322.182437) scale(0.1 -0.1)">
       <defs>
        <path id="DejaVuSans-2212" d="M 678 2272 
L 4684 2272 
L 4684 1741 
L 678 1741 
L 678 2272 
z
" transform="scale(0.015625)"/>
        <path id="DejaVuSans-34" d="M 2419 4116 
L 825 1625 
L 2419 1625 
L 2419 4116 
z
M 2253 4666 
L 3047 4666 
L 3047 1625 
L 3713 1625 
L 3713 1100 
L 3047 1100 
L 3047 0 
L 2419 0 
L 2419 1100 
L 313 1100 
L 313 1709 
L 2253 4666 
z
" transform="scale(0.015625)"/>
       </defs>
       <use xlink:href="#DejaVuSans-2212"/>
       <use xlink:href="#DejaVuSans-34" x="83.789062"/>
      </g>
     </g>
    </g>
    <g id="xtick_2">
     <g id="line2d_2">
      <g>
       <use xlink:href="#mdc1d1d704e" x="93.312" y="307.584" style="stroke: #000000; stroke-width: 0.8"/>
      </g>
     </g>
     <g id="text_2">
      <!-- 3 -->
      <g transform="translate(85.940906 322.182437) scale(0.1 -0.1)">
       <defs>
        <path id="DejaVuSans-33" d="M 2597 2516 
Q 3050 2419 3304 2112 
Q 3559 1806 3559 1356 
Q 3559 666 3084 287 
Q 2609 -91 1734 -91 
Q 1441 -91 1130 -33 
Q 819 25 488 141 
L 488 750 
Q 750 597 1062 519 
Q 1375 441 1716 441 
Q 2309 441 2620 675 
Q 2931 909 2931 1356 
Q 2931 1769 2642 2001 
Q 2353 2234 1838 2234 
L 1294 2234 
L 1294 2753 
L 1863 2753 
Q 2328 2753 2575 2939 
Q 2822 3125 2822 3475 
Q 2822 3834 2567 4026 
Q 2313 4219 1838 4219 
Q 1578 4219 1281 4162 
Q 984 4106 628 3988 
L 628 4550 
Q 988 4650 1302 4700 
Q 1616 4750 1894 4750 
Q 2613 4750 3031 4423 
Q 3450 4097 3450 3541 
Q 3450 3153 3228 2886 
Q 3006 2619 2597 2516 
z
" transform="scale(0.015625)"/>
       </defs>
       <use xlink:href="#DejaVuSans-2212"/>
       <use xlink:href="#DejaVuSans-33" x="83.789062"/>
      </g>
     </g>
    </g>
    <g id="xtick_3">
     <g id="line2d_3">
      <g>
       <use xlink:href="#mdc1d1d704e" x="129.024" y="307.584" style="stroke: #000000; stroke-width: 0.8"/>
      </g>
     </g>
     <g id="text_3">
      <!-- 2 -->
      <g transform="translate(121.652906 322.182437) scale(0.1 -0.1)">
       <defs>
        <path id="DejaVuSans-32" d="M 1228 531 
L 3431 531 
L 3431 0 
L 469 0 
L 469 531 
Q 828 903 1448 1529 
Q 2069 2156 2228 2338 
Q 2531 2678 2651 2914 
Q 2772 3150 2772 3378 
Q 2772 3750 2511 3984 
Q 2250 4219 1831 4219 
Q 1534 4219 1204 4116 
Q 875 4013 500 3803 
L 500 4441 
Q 881 4594 1212 4672 
Q 1544 4750 1819 4750 
Q 2544 4750 2975 4387 
Q 3406 4025 3406 3419 
Q 3406 3131 3298 2873 
Q 3191 2616 2906 2266 
Q 2828 2175 2409 1742 
Q 1991 1309 1228 531 
z
" transform="scale(0.015625)"/>
       </defs>
       <use xlink:href="#DejaVuSans-2212"/>
       <use xlink:href="#DejaVuSans-32" x="83.789062"/>
      </g>
     </g>
    </g>
    <g id="xtick_4">
     <g id="line2d_4">
      <g>
       <use xlink:href="#mdc1d1d704e" x="164.736" y="307.584" style="stroke: #000000; stroke-width: 0.8"/>
      </g>
     </g>
     <g id="text_4">
      <!-- 1 -->
      <g transform="translate(157.364906 322.182437) scale(0.1 -0.1)">
       <defs>
        <path id="DejaVuSans-31" d="M 794 531 
L 1825 531 
L 1825 4091 
L 703 3866 
L 703 4441 
L 1819 4666 
L 2450 4666 
L 2450 531 
L 3481 531 
L 3481 0 
L 794 0 
L 794 531 
z
" transform="scale(0.015625)"/>
       </defs>
       <use xlink:href="#DejaVuSans-2212"/>
       <use xlink:href="#DejaVuSans-31" x="83.789062"/>
      </g>
     </g>
    </g>
    <g id="xtick_5">
     <g id="line2d_5">
      <g>
       <use xlink:href="#mdc1d1d704e" x="200.448" y="307.584" style="stroke: #000000; stroke-width: 0.8"/>
      </g>
     </g>
     <g id="text_5">
      <!-- 0 -->
      <g transform="translate(197.26675 322.182437) scale(0.1 -0.1)">
       <defs>
        <path id="DejaVuSans-30" d="M 2034 4250 
Q 1547 4250 1301 3770 
Q 1056 3291 1056 2328 
Q 1056 1369 1301 889 
Q 1547 409 2034 409 
Q 2525 409 2770 889 
Q 3016 1369 3016 2328 
Q 3016 3291 2770 3770 
Q 2525 4250 2034 4250 
z
M 2034 4750 
Q 2819 4750 3233 4129 
Q 3647 3509 3647 2328 
Q 3647 1150 3233 529 
Q 2819 -91 2034 -91 
Q 1250 -91 836 529 
Q 422 1150 422 2328 
Q 422 3509 836 4129 
Q 1250 4750 2034 4750 
z
" transform="scale(0.015625)"/>
       </defs>
       <use xlink:href="#DejaVuSans-30"/>
      </g>
     </g>
    </g>
    <g id="xtick_6">
     <g id="line2d_6">
      <g>
       <use xlink:href="#mdc1d1d704e" x="236.16" y="307.584" style="stroke: #000000; stroke-width: 0.8"/>
      </g>
     </g>
     <g id="text_6">
      <!-- 1 -->
      <g transform="translate(232.97875 322.182437) scale(0.1 -0.1)">
       <use xlink:href="#DejaVuSans-31"/>
      </g>
     </g>
    </g>
    <g id="xtick_7">
     <g id="line2d_7">
      <g>
       <use xlink:href="#mdc1d1d704e" x="271.872" y="307.584" style="stroke: #000000; stroke-width: 0.8"/>
      </g>
     </g>
     <g id="text_7">
      <!-- 2 -->
      <g transform="translate(268.69075 322.182437) scale(0.1 -0.1)">
       <use xlink:href="#DejaVuSans-32"/>
      </g>
     </g>
    </g>
    <g id="xtick_8">
     <g id="line2d_8">
      <g>
       <use xlink:href="#mdc1d1d704e" x="307.584" y="307.584" style="stroke: #000000; stroke-width: 0.8"/>
      </g>
     </g>
     <g id="text_8">
      <!-- 3 -->
      <g transform="translate(304.40275 322.182437) scale(0.1 -0.1)">
       <use xlink:href="#DejaVuSans-33"/>
      </g>
     </g>
    </g>
    <g id="xtick_9">
     <g id="line2d_9">
      <g>
       <use xlink:href="#mdc1d1d704e" x="343.296" y="307.584" style="stroke: #000000; stroke-width: 0.8"/>
      </g>
     </g>
     <g id="text_9">
      <!-- 4 -->
      <g transform="translate(340.11475 322.182437) scale(0.1 -0.1)">
       <use xlink:href="#DejaVuSans-34"/>
      </g>
     </g>
    </g>
    <g id="text_10">
     <!-- Alpha -->
     <g transform="translate(186.231594 335.860562) scale(0.1 -0.1)">
      <defs>
       <path id="DejaVuSans-41" d="M 2188 4044 
L 1331 1722 
L 3047 1722 
L 2188 4044 
z
M 1831 4666 
L 2547 4666 
L 4325 0 
L 3669 0 
L 3244 1197 
L 1141 1197 
L 716 0 
L 50 0 
L 1831 4666 
z
" transform="scale(0.015625)"/>
       <path id="DejaVuSans-6c" d="M 603 4863 
L 1178 4863 
L 1178 0 
L 603 0 
L 603 4863 
z
" transform="scale(0.015625)"/>
       <path id="DejaVuSans-70" d="M 1159 525 
L 1159 -1331 
L 581 -1331 
L 581 3500 
L 1159 3500 
L 1159 2969 
Q 1341 3281 1617 3432 
Q 1894 3584 2278 3584 
Q 2916 3584 3314 3078 
Q 3713 2572 3713 1747 
Q 3713 922 3314 415 
Q 2916 -91 2278 -91 
Q 1894 -91 1617 61 
Q 1341 213 1159 525 
z
M 3116 1747 
Q 3116 2381 2855 2742 
Q 2594 3103 2138 3103 
Q 1681 3103 1420 2742 
Q 1159 2381 1159 1747 
Q 1159 1113 1420 752 
Q 1681 391 2138 391 
Q 2594 391 2855 752 
Q 3116 1113 3116 1747 
z
" transform="scale(0.015625)"/>
       <path id="DejaVuSans-68" d="M 3513 2113 
L 3513 0 
L 2938 0 
L 2938 2094 
Q 2938 2591 2744 2837 
Q 2550 3084 2163 3084 
Q 1697 3084 1428 2787 
Q 1159 2491 1159 1978 
L 1159 0 
L 581 0 
L 581 4863 
L 1159 4863 
L 1159 2956 
Q 1366 3272 1645 3428 
Q 1925 3584 2291 3584 
Q 2894 3584 3203 3211 
Q 3513 2838 3513 2113 
z
" transform="scale(0.015625)"/>
       <path id="DejaVuSans-61" d="M 2194 1759 
Q 1497 1759 1228 1600 
Q 959 1441 959 1056 
Q 959 750 1161 570 
Q 1363 391 1709 391 
Q 2188 391 2477 730 
Q 2766 1069 2766 1631 
L 2766 1759 
L 2194 1759 
z
M 3341 1997 
L 3341 0 
L 2766 0 
L 2766 531 
Q 2569 213 2275 61 
Q 1981 -91 1556 -91 
Q 1019 -91 701 211 
Q 384 513 384 1019 
Q 384 1609 779 1909 
Q 1175 2209 1959 2209 
L 2766 2209 
L 2766 2266 
Q 2766 2663 2505 2880 
Q 2244 3097 1772 3097 
Q 1472 3097 1187 3025 
Q 903 2953 641 2809 
L 641 3341 
Q 956 3463 1253 3523 
Q 1550 3584 1831 3584 
Q 2591 3584 2966 3190 
Q 3341 2797 3341 1997 
z
" transform="scale(0.015625)"/>
      </defs>
      <use xlink:href="#DejaVuSans-41"/>
      <use xlink:href="#DejaVuSans-6c" x="68.408203"/>
      <use xlink:href="#DejaVuSans-70" x="96.191406"/>
      <use xlink:href="#DejaVuSans-68" x="159.667969"/>
      <use xlink:href="#DejaVuSans-61" x="223.046875"/>
     </g>
    </g>
   </g>
   <g id="matplotlib.axis_2">
    <g id="ytick_1">
     <g id="line2d_10">
      <defs>
       <path id="m0e0e7419ac" d="M 0 0 
L -3.5 0 
" style="stroke: #000000; stroke-width: 0.8"/>
      </defs>
      <g>
       <use xlink:href="#m0e0e7419ac" x="57.6" y="307.584" style="stroke: #000000; stroke-width: 0.8"/>
      </g>
     </g>
     <g id="text_11">
      <!-- 4 -->
      <g transform="translate(35.857813 311.383219) scale(0.1 -0.1)">
       <use xlink:href="#DejaVuSans-2212"/>
       <use xlink:href="#DejaVuSans-34" x="83.789062"/>
      </g>
     </g>
    </g>
    <g id="ytick_2">
     <g id="line2d_11">
      <g>
       <use xlink:href="#m0e0e7419ac" x="57.6" y="274.32" style="stroke: #000000; stroke-width: 0.8"/>
      </g>
     </g>
     <g id="text_12">
      <!-- 3 -->
      <g transform="translate(35.857813 278.119219) scale(0.1 -0.1)">
       <use xlink:href="#DejaVuSans-2212"/>
       <use xlink:href="#DejaVuSans-33" x="83.789062"/>
      </g>
     </g>
    </g>
    <g id="ytick_3">
     <g id="line2d_12">
      <g>
       <use xlink:href="#m0e0e7419ac" x="57.6" y="241.056" style="stroke: #000000; stroke-width: 0.8"/>
      </g>
     </g>
     <g id="text_13">
      <!-- 2 -->
      <g transform="translate(35.857813 244.855219) scale(0.1 -0.1)">
       <use xlink:href="#DejaVuSans-2212"/>
       <use xlink:href="#DejaVuSans-32" x="83.789062"/>
      </g>
     </g>
    </g>
    <g id="ytick_4">
     <g id="line2d_13">
      <g>
       <use xlink:href="#m0e0e7419ac" x="57.6" y="207.792" style="stroke: #000000; stroke-width: 0.8"/>
      </g>
     </g>
     <g id="text_14">
      <!-- 1 -->
      <g transform="translate(35.857813 211.591219) scale(0.1 -0.1)">
       <use xlink:href="#DejaVuSans-2212"/>
       <use xlink:href="#DejaVuSans-31" x="83.789062"/>
      </g>
     </g>
    </g>
    <g id="ytick_5">
     <g id="line2d_14">
      <g>
       <use xlink:href="#m0e0e7419ac" x="57.6" y="174.528" style="stroke: #000000; stroke-width: 0.8"/>
      </g>
     </g>
     <g id="text_15">
      <!-- 0 -->
      <g transform="translate(44.2375 178.327219) scale(0.1 -0.1)">
       <use xlink:href="#DejaVuSans-30"/>
      </g>
     </g>
    </g>
    <g id="ytick_6">
     <g id="line2d_15">
      <g>
       <use xlink:href="#m0e0e7419ac" x="57.6" y="141.264" style="stroke: #000000; stroke-width: 0.8"/>
      </g>
     </g>
     <g id="text_16">
      <!-- 1 -->
      <g transform="translate(44.2375 145.063219) scale(0.1 -0.1)">
       <use xlink:href="#DejaVuSans-31"/>
      </g>
     </g>
    </g>
    <g id="ytick_7">
     <g id="line2d_16">
      <g>
       <use xlink:href="#m0e0e7419ac" x="57.6" y="108" style="stroke: #000000; stroke-width: 0.8"/>
      </g>
     </g>
     <g id="text_17">
      <!-- 2 -->
      <g transform="translate(44.2375 111.799219) scale(0.1 -0.1)">
       <use xlink:href="#DejaVuSans-32"/>
      </g>
     </g>
    </g>
    <g id="ytick_8">
     <g id="line2d_17">
      <g>
       <use xlink:href="#m0e0e7419ac" x="57.6" y="74.736" style="stroke: #000000; stroke-width: 0.8"/>
      </g>
     </g>
     <g id="text_18">
      <!-- 3 -->
      <g transform="translate(44.2375 78.535219) scale(0.1 -0.1)">
       <use xlink:href="#DejaVuSans-33"/>
      </g>
     </g>
    </g>
    <g id="ytick_9">
     <g id="line2d_18">
      <g>
       <use xlink:href="#m0e0e7419ac" x="57.6" y="41.472" style="stroke: #000000; stroke-width: 0.8"/>
      </g>
     </g>
     <g id="text_19">
      <!-- 4 -->
      <g transform="translate(44.2375 45.271219) scale(0.1 -0.1)">
       <use xlink:href="#DejaVuSans-34"/>
      </g>
     </g>
    </g>
    <g id="text_20">
     <!-- Beta -->
     <g transform="translate(29.778125 186.05925) rotate(-90) scale(0.1 -0.1)">
      <defs>
       <path id="DejaVuSans-42" d="M 1259 2228 
L 1259 519 
L 2272 519 
Q 2781 519 3026 730 
Q 3272 941 3272 1375 
Q 3272 1813 3026 2020 
Q 2781 2228 2272 2228 
L 1259 2228 
z
M 1259 4147 
L 1259 2741 
L 2194 2741 
Q 2656 2741 2882 2914 
Q 3109 3088 3109 3444 
Q 3109 3797 2882 3972 
Q 2656 4147 2194 4147 
L 1259 4147 
z
M 628 4666 
L 2241 4666 
Q 2963 4666 3353 4366 
Q 3744 4066 3744 3513 
Q 3744 3084 3544 2831 
Q 3344 2578 2956 2516 
Q 3422 2416 3680 2098 
Q 3938 1781 3938 1306 
Q 3938 681 3513 340 
Q 3088 0 2303 0 
L 628 0 
L 628 4666 
z
" transform="scale(0.015625)"/>
       <path id="DejaVuSans-65" d="M 3597 1894 
L 3597 1613 
L 953 1613 
Q 991 1019 1311 708 
Q 1631 397 2203 397 
Q 2534 397 2845 478 
Q 3156 559 3463 722 
L 3463 178 
Q 3153 47 2828 -22 
Q 2503 -91 2169 -91 
Q 1331 -91 842 396 
Q 353 884 353 1716 
Q 353 2575 817 3079 
Q 1281 3584 2069 3584 
Q 2775 3584 3186 3129 
Q 3597 2675 3597 1894 
z
M 3022 2063 
Q 3016 2534 2758 2815 
Q 2500 3097 2075 3097 
Q 1594 3097 1305 2825 
Q 1016 2553 972 2059 
L 3022 2063 
z
" transform="scale(0.015625)"/>
       <path id="DejaVuSans-74" d="M 1172 4494 
L 1172 3500 
L 2356 3500 
L 2356 3053 
L 1172 3053 
L 1172 1153 
Q 1172 725 1289 603 
Q 1406 481 1766 481 
L 2356 481 
L 2356 0 
L 1766 0 
Q 1100 0 847 248 
Q 594 497 594 1153 
L 594 3053 
L 172 3053 
L 172 3500 
L 594 3500 
L 594 4494 
L 1172 4494 
z
" transform="scale(0.015625)"/>
      </defs>
      <use xlink:href="#DejaVuSans-42"/>
      <use xlink:href="#DejaVuSans-65" x="68.603516"/>
      <use xlink:href="#DejaVuSans-74" x="130.126953"/>
      <use xlink:href="#DejaVuSans-61" x="169.335938"/>
     </g>
    </g>
   </g>
   <g id="patch_3">
    <path d="M 57.6 307.584 
L 57.6 41.472 
" style="fill: none; stroke: #000000; stroke-width: 0.8; stroke-linejoin: miter; stroke-linecap: square"/>
   </g>
   <g id="patch_4">
    <path d="M 343.296 307.584 
L 343.296 41.472 
" style="fill: none; stroke: #000000; stroke-width: 0.8; stroke-linejoin: miter; stroke-linecap: square"/>
   </g>
   <g id="patch_5">
    <path d="M 57.6 307.584 
L 343.296 307.584 
" style="fill: none; stroke: #000000; stroke-width: 0.8; stroke-linejoin: miter; stroke-linecap: square"/>
   </g>
   <g id="patch_6">
    <path d="M 57.6 41.472 
L 343.296 41.472 
" style="fill: none; stroke: #000000; stroke-width: 0.8; stroke-linejoin: miter; stroke-linecap: square"/>
   </g>
   <g id="text_21">
    <!-- Loss Surface -->
    <g transform="translate(162.522375 35.472) scale(0.12 -0.12)">
     <defs>
      <path id="DejaVuSans-4c" d="M 628 4666 
L 1259 4666 
L 1259 531 
L 3531 531 
L 3531 0 
L 628 0 
L 628 4666 
z
" transform="scale(0.015625)"/>
      <path id="DejaVuSans-6f" d="M 1959 3097 
Q 1497 3097 1228 2736 
Q 959 2375 959 1747 
Q 959 1119 1226 758 
Q 1494 397 1959 397 
Q 2419 397 2687 759 
Q 2956 1122 2956 1747 
Q 2956 2369 2687 2733 
Q 2419 3097 1959 3097 
z
M 1959 3584 
Q 2709 3584 3137 3096 
Q 3566 2609 3566 1747 
Q 3566 888 3137 398 
Q 2709 -91 1959 -91 
Q 1206 -91 779 398 
Q 353 888 353 1747 
Q 353 2609 779 3096 
Q 1206 3584 1959 3584 
z
" transform="scale(0.015625)"/>
      <path id="DejaVuSans-73" d="M 2834 3397 
L 2834 2853 
Q 2591 2978 2328 3040 
Q 2066 3103 1784 3103 
Q 1356 3103 1142 2972 
Q 928 2841 928 2578 
Q 928 2378 1081 2264 
Q 1234 2150 1697 2047 
L 1894 2003 
Q 2506 1872 2764 1633 
Q 3022 1394 3022 966 
Q 3022 478 2636 193 
Q 2250 -91 1575 -91 
Q 1294 -91 989 -36 
Q 684 19 347 128 
L 347 722 
Q 666 556 975 473 
Q 1284 391 1588 391 
Q 1994 391 2212 530 
Q 2431 669 2431 922 
Q 2431 1156 2273 1281 
Q 2116 1406 1581 1522 
L 1381 1569 
Q 847 1681 609 1914 
Q 372 2147 372 2553 
Q 372 3047 722 3315 
Q 1072 3584 1716 3584 
Q 2034 3584 2315 3537 
Q 2597 3491 2834 3397 
z
" transform="scale(0.015625)"/>
      <path id="DejaVuSans-20" transform="scale(0.015625)"/>
      <path id="DejaVuSans-53" d="M 3425 4513 
L 3425 3897 
Q 3066 4069 2747 4153 
Q 2428 4238 2131 4238 
Q 1616 4238 1336 4038 
Q 1056 3838 1056 3469 
Q 1056 3159 1242 3001 
Q 1428 2844 1947 2747 
L 2328 2669 
Q 3034 2534 3370 2195 
Q 3706 1856 3706 1288 
Q 3706 609 3251 259 
Q 2797 -91 1919 -91 
Q 1588 -91 1214 -16 
Q 841 59 441 206 
L 441 856 
Q 825 641 1194 531 
Q 1563 422 1919 422 
Q 2459 422 2753 634 
Q 3047 847 3047 1241 
Q 3047 1584 2836 1778 
Q 2625 1972 2144 2069 
L 1759 2144 
Q 1053 2284 737 2584 
Q 422 2884 422 3419 
Q 422 4038 858 4394 
Q 1294 4750 2059 4750 
Q 2388 4750 2728 4690 
Q 3069 4631 3425 4513 
z
" transform="scale(0.015625)"/>
      <path id="DejaVuSans-75" d="M 544 1381 
L 544 3500 
L 1119 3500 
L 1119 1403 
Q 1119 906 1312 657 
Q 1506 409 1894 409 
Q 2359 409 2629 706 
Q 2900 1003 2900 1516 
L 2900 3500 
L 3475 3500 
L 3475 0 
L 2900 0 
L 2900 538 
Q 2691 219 2414 64 
Q 2138 -91 1772 -91 
Q 1169 -91 856 284 
Q 544 659 544 1381 
z
M 1991 3584 
L 1991 3584 
z
" transform="scale(0.015625)"/>
      <path id="DejaVuSans-72" d="M 2631 2963 
Q 2534 3019 2420 3045 
Q 2306 3072 2169 3072 
Q 1681 3072 1420 2755 
Q 1159 2438 1159 1844 
L 1159 0 
L 581 0 
L 581 3500 
L 1159 3500 
L 1159 2956 
Q 1341 3275 1631 3429 
Q 1922 3584 2338 3584 
Q 2397 3584 2469 3576 
Q 2541 3569 2628 3553 
L 2631 2963 
z
" transform="scale(0.015625)"/>
      <path id="DejaVuSans-66" d="M 2375 4863 
L 2375 4384 
L 1825 4384 
Q 1516 4384 1395 4259 
Q 1275 4134 1275 3809 
L 1275 3500 
L 2222 3500 
L 2222 3053 
L 1275 3053 
L 1275 0 
L 697 0 
L 697 3053 
L 147 3053 
L 147 3500 
L 697 3500 
L 697 3744 
Q 697 4328 969 4595 
Q 1241 4863 1831 4863 
L 2375 4863 
z
" transform="scale(0.015625)"/>
      <path id="DejaVuSans-63" d="M 3122 3366 
L 3122 2828 
Q 2878 2963 2633 3030 
Q 2388 3097 2138 3097 
Q 1578 3097 1268 2742 
Q 959 2388 959 1747 
Q 959 1106 1268 751 
Q 1578 397 2138 397 
Q 2388 397 2633 464 
Q 2878 531 3122 666 
L 3122 134 
Q 2881 22 2623 -34 
Q 2366 -91 2075 -91 
Q 1284 -91 818 406 
Q 353 903 353 1747 
Q 353 2603 823 3093 
Q 1294 3584 2113 3584 
Q 2378 3584 2631 3529 
Q 2884 3475 3122 3366 
z
" transform="scale(0.015625)"/>
     </defs>
     <use xlink:href="#DejaVuSans-4c"/>
     <use xlink:href="#DejaVuSans-6f" x="53.962891"/>
     <use xlink:href="#DejaVuSans-73" x="115.144531"/>
     <use xlink:href="#DejaVuSans-73" x="167.244141"/>
     <use xlink:href="#DejaVuSans-20" x="219.34375"/>
     <use xlink:href="#DejaVuSans-53" x="251.130859"/>
     <use xlink:href="#DejaVuSans-75" x="314.607422"/>
     <use xlink:href="#DejaVuSans-72" x="377.986328"/>
     <use xlink:href="#DejaVuSans-66" x="419.099609"/>
     <use xlink:href="#DejaVuSans-61" x="454.304688"/>
     <use xlink:href="#DejaVuSans-63" x="515.583984"/>
     <use xlink:href="#DejaVuSans-65" x="570.564453"/>
    </g>
   </g>
  </g>
  <g id="axes_2">
   <g id="patch_7">
    <path d="M 361.152 307.584 
L 374.4576 307.584 
L 374.4576 41.472 
L 361.152 41.472 
z
" style="fill: #ffffff"/>
   </g>
   <g id="QuadMesh_1">
    <path d="M 361.152 307.584 
L 374.4576 307.584 
L 374.4576 301.395349 
L 361.152 301.395349 
L 361.152 307.584 
" clip-path="url(#p626783ded4)" style="fill: #450457"/>
    <path d="M 361.152 301.395349 
L 374.4576 301.395349 
L 374.4576 295.206698 
L 361.152 295.206698 
L 361.152 301.395349 
" clip-path="url(#p626783ded4)" style="fill: #470d60"/>
    <path d="M 361.152 295.206698 
L 374.4576 295.206698 
L 374.4576 289.018047 
L 361.152 289.018047 
L 361.152 295.206698 
" clip-path="url(#p626783ded4)" style="fill: #481668"/>
    <path d="M 361.152 289.018047 
L 374.4576 289.018047 
L 374.4576 282.829395 
L 361.152 282.829395 
L 361.152 289.018047 
" clip-path="url(#p626783ded4)" style="fill: #481d6f"/>
    <path d="M 361.152 282.829395 
L 374.4576 282.829395 
L 374.4576 276.640744 
L 361.152 276.640744 
L 361.152 282.829395 
" clip-path="url(#p626783ded4)" style="fill: #482576"/>
    <path d="M 361.152 276.640744 
L 374.4576 276.640744 
L 374.4576 270.452093 
L 361.152 270.452093 
L 361.152 276.640744 
" clip-path="url(#p626783ded4)" style="fill: #472d7b"/>
    <path d="M 361.152 270.452093 
L 374.4576 270.452093 
L 374.4576 264.263442 
L 361.152 264.263442 
L 361.152 270.452093 
" clip-path="url(#p626783ded4)" style="fill: #463480"/>
    <path d="M 361.152 264.263442 
L 374.4576 264.263442 
L 374.4576 258.074791 
L 361.152 258.074791 
L 361.152 264.263442 
" clip-path="url(#p626783ded4)" style="fill: #443b84"/>
    <path d="M 361.152 258.074791 
L 374.4576 258.074791 
L 374.4576 251.88614 
L 361.152 251.88614 
L 361.152 258.074791 
" clip-path="url(#p626783ded4)" style="fill: #414287"/>
    <path d="M 361.152 251.88614 
L 374.4576 251.88614 
L 374.4576 245.697488 
L 361.152 245.697488 
L 361.152 251.88614 
" clip-path="url(#p626783ded4)" style="fill: #3e4989"/>
    <path d="M 361.152 245.697488 
L 374.4576 245.697488 
L 374.4576 239.508837 
L 361.152 239.508837 
L 361.152 245.697488 
" clip-path="url(#p626783ded4)" style="fill: #3c508b"/>
    <path d="M 361.152 239.508837 
L 374.4576 239.508837 
L 374.4576 233.320186 
L 361.152 233.320186 
L 361.152 239.508837 
" clip-path="url(#p626783ded4)" style="fill: #39568c"/>
    <path d="M 361.152 233.320186 
L 374.4576 233.320186 
L 374.4576 227.131535 
L 361.152 227.131535 
L 361.152 233.320186 
" clip-path="url(#p626783ded4)" style="fill: #365d8d"/>
    <path d="M 361.152 227.131535 
L 374.4576 227.131535 
L 374.4576 220.942884 
L 361.152 220.942884 
L 361.152 227.131535 
" clip-path="url(#p626783ded4)" style="fill: #33638d"/>
    <path d="M 361.152 220.942884 
L 374.4576 220.942884 
L 374.4576 214.754233 
L 361.152 214.754233 
L 361.152 220.942884 
" clip-path="url(#p626783ded4)" style="fill: #30698e"/>
    <path d="M 361.152 214.754233 
L 374.4576 214.754233 
L 374.4576 208.565581 
L 361.152 208.565581 
L 361.152 214.754233 
" clip-path="url(#p626783ded4)" style="fill: #2e6f8e"/>
    <path d="M 361.152 208.565581 
L 374.4576 208.565581 
L 374.4576 202.37693 
L 361.152 202.37693 
L 361.152 208.565581 
" clip-path="url(#p626783ded4)" style="fill: #2b748e"/>
    <path d="M 361.152 202.37693 
L 374.4576 202.37693 
L 374.4576 196.188279 
L 361.152 196.188279 
L 361.152 202.37693 
" clip-path="url(#p626783ded4)" style="fill: #297a8e"/>
    <path d="M 361.152 196.188279 
L 374.4576 196.188279 
L 374.4576 189.999628 
L 361.152 189.999628 
L 361.152 196.188279 
" clip-path="url(#p626783ded4)" style="fill: #27808e"/>
    <path d="M 361.152 189.999628 
L 374.4576 189.999628 
L 374.4576 183.810977 
L 361.152 183.810977 
L 361.152 189.999628 
" clip-path="url(#p626783ded4)" style="fill: #25858e"/>
    <path d="M 361.152 183.810977 
L 374.4576 183.810977 
L 374.4576 177.622326 
L 361.152 177.622326 
L 361.152 183.810977 
" clip-path="url(#p626783ded4)" style="fill: #228b8d"/>
    <path d="M 361.152 177.622326 
L 374.4576 177.622326 
L 374.4576 171.433674 
L 361.152 171.433674 
L 361.152 177.622326 
" clip-path="url(#p626783ded4)" style="fill: #21918c"/>
    <path d="M 361.152 171.433674 
L 374.4576 171.433674 
L 374.4576 165.245023 
L 361.152 165.245023 
L 361.152 171.433674 
" clip-path="url(#p626783ded4)" style="fill: #1f958b"/>
    <path d="M 361.152 165.245023 
L 374.4576 165.245023 
L 374.4576 159.056372 
L 361.152 159.056372 
L 361.152 165.245023 
" clip-path="url(#p626783ded4)" style="fill: #1e9b8a"/>
    <path d="M 361.152 159.056372 
L 374.4576 159.056372 
L 374.4576 152.867721 
L 361.152 152.867721 
L 361.152 159.056372 
" clip-path="url(#p626783ded4)" style="fill: #1fa188"/>
    <path d="M 361.152 152.867721 
L 374.4576 152.867721 
L 374.4576 146.67907 
L 361.152 146.67907 
L 361.152 152.867721 
" clip-path="url(#p626783ded4)" style="fill: #21a685"/>
    <path d="M 361.152 146.67907 
L 374.4576 146.67907 
L 374.4576 140.490419 
L 361.152 140.490419 
L 361.152 146.67907 
" clip-path="url(#p626783ded4)" style="fill: #25ac82"/>
    <path d="M 361.152 140.490419 
L 374.4576 140.490419 
L 374.4576 134.301767 
L 361.152 134.301767 
L 361.152 140.490419 
" clip-path="url(#p626783ded4)" style="fill: #2cb17e"/>
    <path d="M 361.152 134.301767 
L 374.4576 134.301767 
L 374.4576 128.113116 
L 361.152 128.113116 
L 361.152 134.301767 
" clip-path="url(#p626783ded4)" style="fill: #34b679"/>
    <path d="M 361.152 128.113116 
L 374.4576 128.113116 
L 374.4576 121.924465 
L 361.152 121.924465 
L 361.152 128.113116 
" clip-path="url(#p626783ded4)" style="fill: #3dbc74"/>
    <path d="M 361.152 121.924465 
L 374.4576 121.924465 
L 374.4576 115.735814 
L 361.152 115.735814 
L 361.152 121.924465 
" clip-path="url(#p626783ded4)" style="fill: #48c16e"/>
    <path d="M 361.152 115.735814 
L 374.4576 115.735814 
L 374.4576 109.547163 
L 361.152 109.547163 
L 361.152 115.735814 
" clip-path="url(#p626783ded4)" style="fill: #54c568"/>
    <path d="M 361.152 109.547163 
L 374.4576 109.547163 
L 374.4576 103.358512 
L 361.152 103.358512 
L 361.152 109.547163 
" clip-path="url(#p626783ded4)" style="fill: #60ca60"/>
    <path d="M 361.152 103.358512 
L 374.4576 103.358512 
L 374.4576 97.16986 
L 361.152 97.16986 
L 361.152 103.358512 
" clip-path="url(#p626783ded4)" style="fill: #6ece58"/>
    <path d="M 361.152 97.16986 
L 374.4576 97.16986 
L 374.4576 90.981209 
L 361.152 90.981209 
L 361.152 97.16986 
" clip-path="url(#p626783ded4)" style="fill: #7cd250"/>
    <path d="M 361.152 90.981209 
L 374.4576 90.981209 
L 374.4576 84.792558 
L 361.152 84.792558 
L 361.152 90.981209 
" clip-path="url(#p626783ded4)" style="fill: #8bd646"/>
    <path d="M 361.152 84.792558 
L 374.4576 84.792558 
L 374.4576 78.603907 
L 361.152 78.603907 
L 361.152 84.792558 
" clip-path="url(#p626783ded4)" style="fill: #9bd93c"/>
    <path d="M 361.152 78.603907 
L 374.4576 78.603907 
L 374.4576 72.415256 
L 361.152 72.415256 
L 361.152 78.603907 
" clip-path="url(#p626783ded4)" style="fill: #aadc32"/>
    <path d="M 361.152 72.415256 
L 374.4576 72.415256 
L 374.4576 66.226605 
L 361.152 66.226605 
L 361.152 72.415256 
" clip-path="url(#p626783ded4)" style="fill: #bade28"/>
    <path d="M 361.152 66.226605 
L 374.4576 66.226605 
L 374.4576 60.037953 
L 361.152 60.037953 
L 361.152 66.226605 
" clip-path="url(#p626783ded4)" style="fill: #cae11f"/>
    <path d="M 361.152 60.037953 
L 374.4576 60.037953 
L 374.4576 53.849302 
L 361.152 53.849302 
L 361.152 60.037953 
" clip-path="url(#p626783ded4)" style="fill: #dae319"/>
    <path d="M 361.152 53.849302 
L 374.4576 53.849302 
L 374.4576 47.660651 
L 361.152 47.660651 
L 361.152 53.849302 
" clip-path="url(#p626783ded4)" style="fill: #eae51a"/>
    <path d="M 361.152 47.660651 
L 374.4576 47.660651 
L 374.4576 41.472 
L 361.152 41.472 
L 361.152 47.660651 
" clip-path="url(#p626783ded4)" style="fill: #f8e621"/>
   </g>
   <g id="matplotlib.axis_3"/>
   <g id="matplotlib.axis_4">
    <g id="ytick_10">
     <g id="line2d_19">
      <defs>
       <path id="m0000d7239f" d="M 0 0 
L 3.5 0 
" style="stroke: #000000; stroke-width: 0.8"/>
      </defs>
      <g>
       <use xlink:href="#m0000d7239f" x="374.4576" y="307.584" style="stroke: #000000; stroke-width: 0.8"/>
      </g>
     </g>
     <g id="text_22">
      <!-- 0 -->
      <g transform="translate(381.4576 311.383219) scale(0.1 -0.1)">
       <use xlink:href="#DejaVuSans-30"/>
      </g>
     </g>
    </g>
    <g id="ytick_11">
     <g id="line2d_20">
      <g>
       <use xlink:href="#m0000d7239f" x="374.4576" y="276.640744" style="stroke: #000000; stroke-width: 0.8"/>
      </g>
     </g>
     <g id="text_23">
      <!-- 250 -->
      <g transform="translate(381.4576 280.439963) scale(0.1 -0.1)">
       <defs>
        <path id="DejaVuSans-35" d="M 691 4666 
L 3169 4666 
L 3169 4134 
L 1269 4134 
L 1269 2991 
Q 1406 3038 1543 3061 
Q 1681 3084 1819 3084 
Q 2600 3084 3056 2656 
Q 3513 2228 3513 1497 
Q 3513 744 3044 326 
Q 2575 -91 1722 -91 
Q 1428 -91 1123 -41 
Q 819 9 494 109 
L 494 744 
Q 775 591 1075 516 
Q 1375 441 1709 441 
Q 2250 441 2565 725 
Q 2881 1009 2881 1497 
Q 2881 1984 2565 2268 
Q 2250 2553 1709 2553 
Q 1456 2553 1204 2497 
Q 953 2441 691 2322 
L 691 4666 
z
" transform="scale(0.015625)"/>
       </defs>
       <use xlink:href="#DejaVuSans-32"/>
       <use xlink:href="#DejaVuSans-35" x="63.623047"/>
       <use xlink:href="#DejaVuSans-30" x="127.246094"/>
      </g>
     </g>
    </g>
    <g id="ytick_12">
     <g id="line2d_21">
      <g>
       <use xlink:href="#m0000d7239f" x="374.4576" y="245.697488" style="stroke: #000000; stroke-width: 0.8"/>
      </g>
     </g>
     <g id="text_24">
      <!-- 500 -->
      <g transform="translate(381.4576 249.496707) scale(0.1 -0.1)">
       <use xlink:href="#DejaVuSans-35"/>
       <use xlink:href="#DejaVuSans-30" x="63.623047"/>
       <use xlink:href="#DejaVuSans-30" x="127.246094"/>
      </g>
     </g>
    </g>
    <g id="ytick_13">
     <g id="line2d_22">
      <g>
       <use xlink:href="#m0000d7239f" x="374.4576" y="214.754233" style="stroke: #000000; stroke-width: 0.8"/>
      </g>
     </g>
     <g id="text_25">
      <!-- 750 -->
      <g transform="translate(381.4576 218.553451) scale(0.1 -0.1)">
       <defs>
        <path id="DejaVuSans-37" d="M 525 4666 
L 3525 4666 
L 3525 4397 
L 1831 0 
L 1172 0 
L 2766 4134 
L 525 4134 
L 525 4666 
z
" transform="scale(0.015625)"/>
       </defs>
       <use xlink:href="#DejaVuSans-37"/>
       <use xlink:href="#DejaVuSans-35" x="63.623047"/>
       <use xlink:href="#DejaVuSans-30" x="127.246094"/>
      </g>
     </g>
    </g>
    <g id="ytick_14">
     <g id="line2d_23">
      <g>
       <use xlink:href="#m0000d7239f" x="374.4576" y="183.810977" style="stroke: #000000; stroke-width: 0.8"/>
      </g>
     </g>
     <g id="text_26">
      <!-- 1000 -->
      <g transform="translate(381.4576 187.610195) scale(0.1 -0.1)">
       <use xlink:href="#DejaVuSans-31"/>
       <use xlink:href="#DejaVuSans-30" x="63.623047"/>
       <use xlink:href="#DejaVuSans-30" x="127.246094"/>
       <use xlink:href="#DejaVuSans-30" x="190.869141"/>
      </g>
     </g>
    </g>
    <g id="ytick_15">
     <g id="line2d_24">
      <g>
       <use xlink:href="#m0000d7239f" x="374.4576" y="152.867721" style="stroke: #000000; stroke-width: 0.8"/>
      </g>
     </g>
     <g id="text_27">
      <!-- 1250 -->
      <g transform="translate(381.4576 156.66694) scale(0.1 -0.1)">
       <use xlink:href="#DejaVuSans-31"/>
       <use xlink:href="#DejaVuSans-32" x="63.623047"/>
       <use xlink:href="#DejaVuSans-35" x="127.246094"/>
       <use xlink:href="#DejaVuSans-30" x="190.869141"/>
      </g>
     </g>
    </g>
    <g id="ytick_16">
     <g id="line2d_25">
      <g>
       <use xlink:href="#m0000d7239f" x="374.4576" y="121.924465" style="stroke: #000000; stroke-width: 0.8"/>
      </g>
     </g>
     <g id="text_28">
      <!-- 1500 -->
      <g transform="translate(381.4576 125.723684) scale(0.1 -0.1)">
       <use xlink:href="#DejaVuSans-31"/>
       <use xlink:href="#DejaVuSans-35" x="63.623047"/>
       <use xlink:href="#DejaVuSans-30" x="127.246094"/>
       <use xlink:href="#DejaVuSans-30" x="190.869141"/>
      </g>
     </g>
    </g>
    <g id="ytick_17">
     <g id="line2d_26">
      <g>
       <use xlink:href="#m0000d7239f" x="374.4576" y="90.981209" style="stroke: #000000; stroke-width: 0.8"/>
      </g>
     </g>
     <g id="text_29">
      <!-- 1750 -->
      <g transform="translate(381.4576 94.780428) scale(0.1 -0.1)">
       <use xlink:href="#DejaVuSans-31"/>
       <use xlink:href="#DejaVuSans-37" x="63.623047"/>
       <use xlink:href="#DejaVuSans-35" x="127.246094"/>
       <use xlink:href="#DejaVuSans-30" x="190.869141"/>
      </g>
     </g>
    </g>
    <g id="ytick_18">
     <g id="line2d_27">
      <g>
       <use xlink:href="#m0000d7239f" x="374.4576" y="60.037953" style="stroke: #000000; stroke-width: 0.8"/>
      </g>
     </g>
     <g id="text_30">
      <!-- 2000 -->
      <g transform="translate(381.4576 63.837172) scale(0.1 -0.1)">
       <use xlink:href="#DejaVuSans-32"/>
       <use xlink:href="#DejaVuSans-30" x="63.623047"/>
       <use xlink:href="#DejaVuSans-30" x="127.246094"/>
       <use xlink:href="#DejaVuSans-30" x="190.869141"/>
      </g>
     </g>
    </g>
   </g>
   <g id="LineCollection_1"/>
   <g id="patch_8">
    <path d="M 361.152 307.584 
L 367.8048 307.584 
L 374.4576 307.584 
L 374.4576 41.472 
L 367.8048 41.472 
L 361.152 41.472 
L 361.152 307.584 
z
" style="fill: none; stroke: #000000; stroke-width: 0.8; stroke-linejoin: miter; stroke-linecap: square"/>
   </g>
  </g>
 </g>
 <defs>
  <clipPath id="pbf358c28c7">
   <rect x="57.6" y="41.472" width="285.696" height="266.112"/>
  </clipPath>
  <clipPath id="p626783ded4">
   <rect x="361.152" y="41.472" width="13.3056" height="266.112"/>
  </clipPath>
 </defs>
</svg>
