<?xml version="1.0" encoding="utf-8" standalone="no"?>
<!DOCTYPE svg PUBLIC "-//W3C//DTD SVG 1.1//EN"
  "http://www.w3.org/Graphics/SVG/1.1/DTD/svg11.dtd">
<svg xmlns:xlink="http://www.w3.org/1999/xlink" width="460.8pt" height="345.6pt" viewBox="0 0 460.8 345.6" xmlns="http://www.w3.org/2000/svg" version="1.1">
 <metadata>
  <rdf:RDF xmlns:dc="http://purl.org/dc/elements/1.1/" xmlns:cc="http://creativecommons.org/ns#" xmlns:rdf="http://www.w3.org/1999/02/22-rdf-syntax-ns#">
   <cc:Work>
    <dc:type rdf:resource="http://purl.org/dc/dcmitype/StillImage"/>
    <dc:date>2024-06-13T00:38:31.906063</dc:date>
    <dc:format>image/svg+xml</dc:format>
    <dc:creator>
     <cc:Agent>
      <dc:title>Matplotlib v3.8.4, https://matplotlib.org/</dc:title>
     </cc:Agent>
    </dc:creator>
   </cc:Work>
  </rdf:RDF>
 </metadata>
 <defs>
  <style type="text/css">*{stroke-linejoin: round; stroke-linecap: butt}</style>
 </defs>
 <g id="figure_1">
  <g id="patch_1">
   <path d="M 0 345.6 
L 460.8 345.6 
L 460.8 0 
L 0 0 
z
" style="fill: #ffffff"/>
  </g>
  <g id="axes_1">
   <g id="patch_2">
    <path d="M 57.6 307.584 
L 343.296 307.584 
L 343.296 41.472 
L 57.6 41.472 
z
" style="fill: #ffffff"/>
   </g>
   <g id="QuadContourSet_1">
    <path d="M 64.925538 307.584 
L 72.251077 307.584 
L 79.576615 307.584 
L 86.902154 307.584 
L 94.227692 307.584 
L 101.553231 307.584 
L 108.878769 307.584 
L 116.204308 307.584 
L 123.529846 307.584 
L 126.274449 307.584 
L 130.64906 300.760615 
L 130.855385 300.325171 
L 135.31531 293.937231 
L 138.119895 287.113846 
L 138.180923 286.842255 
L 144.325642 280.290462 
L 145.506462 278.855308 
L 152.832 277.509722 
L 159.696008 273.467077 
L 160.157538 273.238442 
L 167.483077 268.653379 
L 172.841453 266.643692 
L 174.808615 265.688304 
L 182.134154 263.062231 
L 189.459692 263.604798 
L 196.785231 262.975486 
L 204.110769 261.408219 
L 209.697708 259.820308 
L 211.436308 259.260055 
L 218.761846 257.786411 
L 226.087385 258.494277 
L 233.412923 259.753037 
L 236.385643 259.820308 
L 240.738462 259.894788 
L 241.122424 259.820308 
L 248.064 257.963384 
L 255.389538 256.538443 
L 262.715077 254.622156 
L 265.644665 252.996923 
L 267.711892 246.173538 
L 268.026755 239.350154 
L 269.16575 232.526769 
L 268.387793 225.703385 
L 269.009053 218.88 
L 269.020044 212.056615 
L 270.040615 207.195154 
L 270.453181 205.233231 
L 275.883861 198.409846 
L 277.366154 197.315647 
L 284.691692 193.460444 
L 289.888706 191.586462 
L 292.017231 190.876668 
L 299.342769 188.622736 
L 306.668308 186.45164 
L 310.861384 184.763077 
L 313.993846 183.503043 
L 321.319385 181.031507 
L 328.644923 179.204684 
L 335.970462 177.992104 
L 336.340291 177.939692 
L 343.296 177.118608 
L 343.296 171.116308 
L 343.296 164.292923 
L 343.296 157.469538 
L 343.296 150.646154 
L 343.296 143.822769 
L 343.296 136.999385 
L 343.296 130.176 
L 343.296 123.352615 
L 343.296 116.529231 
L 343.296 109.705846 
L 343.296 102.882462 
L 343.296 96.059077 
L 343.296 89.235692 
L 343.296 82.412308 
L 343.296 75.588923 
L 343.296 68.765538 
L 343.296 61.942154 
L 343.296 55.118769 
L 343.296 48.295385 
L 343.296 41.472 
L 335.970462 41.472 
L 328.644923 41.472 
L 321.319385 41.472 
L 316.315416 41.472 
L 313.996733 48.295385 
L 313.993846 48.30068 
L 310.415448 55.118769 
L 306.921479 61.942154 
L 306.668308 62.435184 
L 302.447329 68.765538 
L 299.342769 73.133384 
L 297.225915 75.588923 
L 292.017231 82.35195 
L 291.955655 82.412308 
L 285.713 89.235692 
L 284.691692 90.437267 
L 277.366154 94.597719 
L 271.641468 96.059077 
L 270.040615 96.60476 
L 262.715077 98.026111 
L 255.389538 97.266782 
L 251.622256 96.059077 
L 248.064 95.185535 
L 240.738462 95.689151 
L 233.412923 95.055987 
L 226.608141 96.059077 
L 226.087385 96.141902 
L 218.761846 99.173598 
L 211.436308 102.011147 
L 206.762782 102.882462 
L 204.110769 103.421882 
L 196.785231 104.309963 
L 189.459692 106.781875 
L 186.020738 109.705846 
L 182.134154 112.391548 
L 176.16066 116.529231 
L 174.808615 117.601975 
L 167.483077 123.030012 
L 167.038575 123.352615 
L 160.157538 128.363741 
L 157.598904 130.176 
L 152.832 134.001952 
L 148.775586 136.999385 
L 145.506462 142.720405 
L 144.986276 143.822769 
L 142.863606 150.646154 
L 140.305081 157.469538 
L 138.180923 163.226448 
L 137.796746 164.292923 
L 135.012315 171.116308 
L 132.221579 177.939692 
L 130.855385 181.989683 
L 129.75016 184.763077 
L 126.125182 191.586462 
L 123.529846 195.782028 
L 121.559396 198.409846 
L 116.204308 203.848357 
L 115.004535 205.233231 
L 108.878769 209.124289 
L 103.436498 212.056615 
L 101.553231 216.015058 
L 100.081748 218.88 
L 101.553231 219.471858 
L 108.878769 222.200512 
L 115.368245 225.703385 
L 113.472162 232.526769 
L 108.878769 236.847073 
L 106.598426 239.350154 
L 101.553231 242.185103 
L 95.177423 246.173538 
L 94.227692 246.591666 
L 86.902154 249.609847 
L 81.385328 252.996923 
L 79.576615 253.681647 
L 72.251077 255.761961 
L 64.925538 258.921038 
L 62.493105 259.820308 
L 57.6 260.987705 
L 57.6 266.643692 
L 57.6 273.467077 
L 57.6 280.290462 
L 57.6 287.113846 
L 57.6 293.937231 
L 57.6 300.760615 
L 57.6 307.584 
z
" clip-path="url(#pbbff23ade0)" style="fill: #450457"/>
    <path d="M 130.855385 307.584 
L 134.777913 307.584 
L 138.180923 304.145793 
L 142.538952 300.760615 
L 145.506462 298.264057 
L 151.989641 293.937231 
L 152.832 293.3206 
L 160.157538 287.902095 
L 161.780277 287.113846 
L 167.483077 284.001402 
L 174.808615 282.026292 
L 182.134154 281.248947 
L 189.459692 281.239454 
L 195.660935 280.290462 
L 196.785231 280.087566 
L 204.110769 279.077214 
L 211.436308 276.712019 
L 218.761846 274.692561 
L 224.821151 273.467077 
L 226.087385 273.175161 
L 233.412923 271.417978 
L 240.738462 271.330842 
L 248.064 271.471595 
L 255.389538 269.976514 
L 262.715077 268.826753 
L 270.040615 267.416421 
L 273.176266 266.643692 
L 277.366154 264.968282 
L 280.916942 259.820308 
L 282.046005 252.996923 
L 283.135467 246.173538 
L 284.691692 241.225841 
L 285.242956 239.350154 
L 285.42623 232.526769 
L 285.454089 225.703385 
L 285.939924 218.88 
L 287.098946 212.056615 
L 292.017231 205.811942 
L 292.645945 205.233231 
L 299.342769 200.56078 
L 303.506963 198.409846 
L 306.668308 197.238954 
L 313.993846 194.526846 
L 321.319385 191.745491 
L 321.697996 191.586462 
L 328.644923 188.185014 
L 335.970462 185.403472 
L 337.968808 184.763077 
L 343.296 183.433114 
L 343.296 177.939692 
L 343.296 177.118608 
L 336.340291 177.939692 
L 335.970462 177.992104 
L 328.644923 179.204684 
L 321.319385 181.031507 
L 313.993846 183.503043 
L 310.861384 184.763077 
L 306.668308 186.45164 
L 299.342769 188.622736 
L 292.017231 190.876668 
L 289.888706 191.586462 
L 284.691692 193.460444 
L 277.366154 197.315647 
L 275.883861 198.409846 
L 270.453181 205.233231 
L 270.040615 207.195154 
L 269.020044 212.056615 
L 269.009053 218.88 
L 268.387793 225.703385 
L 269.16575 232.526769 
L 268.026755 239.350154 
L 267.711892 246.173538 
L 265.644665 252.996923 
L 262.715077 254.622156 
L 255.389538 256.538443 
L 248.064 257.963384 
L 241.122424 259.820308 
L 240.738462 259.894788 
L 236.385643 259.820308 
L 233.412923 259.753037 
L 226.087385 258.494277 
L 218.761846 257.786411 
L 211.436308 259.260055 
L 209.697708 259.820308 
L 204.110769 261.408219 
L 196.785231 262.975486 
L 189.459692 263.604798 
L 182.134154 263.062231 
L 174.808615 265.688304 
L 172.841453 266.643692 
L 167.483077 268.653379 
L 160.157538 273.238442 
L 159.696008 273.467077 
L 152.832 277.509722 
L 145.506462 278.855308 
L 144.325642 280.290462 
L 138.180923 286.842255 
L 138.119895 287.113846 
L 135.31531 293.937231 
L 130.855385 300.325171 
L 130.64906 300.760615 
L 126.274449 307.584 
z
M 62.493105 259.820308 
L 64.925538 258.921038 
L 72.251077 255.761961 
L 79.576615 253.681647 
L 81.385328 252.996923 
L 86.902154 249.609847 
L 94.227692 246.591666 
L 95.177423 246.173538 
L 101.553231 242.185103 
L 106.598426 239.350154 
L 108.878769 236.847073 
L 113.472162 232.526769 
L 115.368245 225.703385 
L 108.878769 222.200512 
L 101.553231 219.471858 
L 100.081748 218.88 
L 101.553231 216.015058 
L 103.436498 212.056615 
L 108.878769 209.124289 
L 115.004535 205.233231 
L 116.204308 203.848357 
L 121.559396 198.409846 
L 123.529846 195.782028 
L 126.125182 191.586462 
L 129.75016 184.763077 
L 130.855385 181.989683 
L 132.221579 177.939692 
L 135.012315 171.116308 
L 137.796746 164.292923 
L 138.180923 163.226448 
L 140.305081 157.469538 
L 142.863606 150.646154 
L 144.986276 143.822769 
L 145.506462 142.720405 
L 148.775586 136.999385 
L 152.832 134.001952 
L 157.598904 130.176 
L 160.157538 128.363741 
L 167.038575 123.352615 
L 167.483077 123.030012 
L 174.808615 117.601975 
L 176.16066 116.529231 
L 182.134154 112.391548 
L 186.020738 109.705846 
L 189.459692 106.781875 
L 196.785231 104.309963 
L 204.110769 103.421882 
L 206.762782 102.882462 
L 211.436308 102.011147 
L 218.761846 99.173598 
L 226.087385 96.141902 
L 226.608141 96.059077 
L 233.412923 95.055987 
L 240.738462 95.689151 
L 248.064 95.185535 
L 251.622256 96.059077 
L 255.389538 97.266782 
L 262.715077 98.026111 
L 270.040615 96.60476 
L 271.641468 96.059077 
L 277.366154 94.597719 
L 284.691692 90.437267 
L 285.713 89.235692 
L 291.955655 82.412308 
L 292.017231 82.35195 
L 297.225915 75.588923 
L 299.342769 73.133384 
L 302.447329 68.765538 
L 306.668308 62.435184 
L 306.921479 61.942154 
L 310.415448 55.118769 
L 313.993846 48.30068 
L 313.996733 48.295385 
L 316.315416 41.472 
L 313.993846 41.472 
L 309.942644 41.472 
L 306.668308 47.642628 
L 306.292425 48.295385 
L 302.67672 55.118769 
L 299.342769 60.27491 
L 297.747903 61.942154 
L 292.017231 68.214996 
L 291.018046 68.765538 
L 284.691692 73.228703 
L 277.366154 74.229155 
L 270.040615 75.517808 
L 262.715077 75.290711 
L 255.389538 74.788049 
L 248.064 74.780445 
L 240.738462 72.710043 
L 233.412923 70.986402 
L 226.087385 72.348168 
L 218.761846 74.159619 
L 214.103693 75.588923 
L 211.436308 76.515915 
L 204.110769 78.318829 
L 196.785231 78.251527 
L 189.459692 79.731527 
L 187.003912 82.412308 
L 182.134154 86.591097 
L 180.172818 89.235692 
L 174.808615 95.484022 
L 174.327371 96.059077 
L 168.029277 102.882462 
L 167.483077 103.347315 
L 160.157538 108.862562 
L 159.085772 109.705846 
L 152.832 114.66739 
L 150.183121 116.529231 
L 145.506462 119.848247 
L 139.804307 123.352615 
L 138.180923 124.325614 
L 130.855385 128.324976 
L 126.912769 130.176 
L 123.529846 136.70977 
L 123.434027 136.999385 
L 121.271674 143.822769 
L 118.861311 150.646154 
L 116.204308 155.913762 
L 115.439891 157.469538 
L 112.091346 164.292923 
L 108.878769 170.941648 
L 108.798244 171.116308 
L 105.457621 177.939692 
L 101.553231 182.124505 
L 98.958062 184.763077 
L 94.227692 188.018236 
L 88.745247 191.586462 
L 86.902154 192.814305 
L 79.576615 196.660178 
L 77.238702 198.409846 
L 72.251077 201.703213 
L 68.908249 205.233231 
L 64.925538 208.687935 
L 60.746917 212.056615 
L 57.6 217.758914 
L 57.6 218.88 
L 57.6 225.703385 
L 57.6 232.526769 
L 57.6 239.350154 
L 57.6 246.173538 
L 57.6 252.996923 
L 57.6 259.820308 
L 57.6 260.987705 
z
" clip-path="url(#pbbff23ade0)" style="fill: #470d60"/>
    <path d="M 138.180923 307.584 
L 145.506462 307.584 
L 145.92012 307.584 
L 152.832 302.550989 
L 155.601391 300.760615 
L 160.157538 297.506539 
L 167.483077 294.276084 
L 168.827883 293.937231 
L 174.808615 292.271892 
L 182.134154 291.190146 
L 189.459692 291.432537 
L 196.785231 291.08098 
L 204.110769 290.549142 
L 211.436308 288.334166 
L 215.154182 287.113846 
L 218.761846 285.819972 
L 226.087385 283.887519 
L 233.412923 281.430213 
L 237.529422 280.290462 
L 240.738462 279.468492 
L 248.064 280.002753 
L 255.389538 279.566427 
L 262.715077 278.387812 
L 270.040615 277.194928 
L 277.366154 275.721648 
L 284.691692 273.892284 
L 285.424284 273.467077 
L 289.724537 266.643692 
L 291.888683 259.820308 
L 292.017231 259.308697 
L 293.530012 252.996923 
L 295.52847 246.173538 
L 296.771238 239.350154 
L 296.70586 232.526769 
L 296.832285 225.703385 
L 298.090713 218.88 
L 299.342769 216.613802 
L 302.718539 212.056615 
L 306.668308 208.515285 
L 310.581702 205.233231 
L 313.993846 203.317611 
L 321.319385 199.909315 
L 325.188539 198.409846 
L 328.644923 196.966584 
L 335.970462 193.345334 
L 340.059524 191.586462 
L 343.296 190.260841 
L 343.296 184.763077 
L 343.296 183.433114 
L 337.968808 184.763077 
L 335.970462 185.403472 
L 328.644923 188.185014 
L 321.697996 191.586462 
L 321.319385 191.745491 
L 313.993846 194.526846 
L 306.668308 197.238954 
L 303.506963 198.409846 
L 299.342769 200.56078 
L 292.645945 205.233231 
L 292.017231 205.811942 
L 287.098946 212.056615 
L 285.939924 218.88 
L 285.454089 225.703385 
L 285.42623 232.526769 
L 285.242956 239.350154 
L 284.691692 241.225841 
L 283.135467 246.173538 
L 282.046005 252.996923 
L 280.916942 259.820308 
L 277.366154 264.968282 
L 273.176266 266.643692 
L 270.040615 267.416421 
L 262.715077 268.826753 
L 255.389538 269.976514 
L 248.064 271.471595 
L 240.738462 271.330842 
L 233.412923 271.417978 
L 226.087385 273.175161 
L 224.821151 273.467077 
L 218.761846 274.692561 
L 211.436308 276.712019 
L 204.110769 279.077214 
L 196.785231 280.087566 
L 195.660935 280.290462 
L 189.459692 281.239454 
L 182.134154 281.248947 
L 174.808615 282.026292 
L 167.483077 284.001402 
L 161.780277 287.113846 
L 160.157538 287.902095 
L 152.832 293.3206 
L 151.989641 293.937231 
L 145.506462 298.264057 
L 142.538952 300.760615 
L 138.180923 304.145793 
L 134.777913 307.584 
z
M 60.746917 212.056615 
L 64.925538 208.687935 
L 68.908249 205.233231 
L 72.251077 201.703213 
L 77.238702 198.409846 
L 79.576615 196.660178 
L 86.902154 192.814305 
L 88.745247 191.586462 
L 94.227692 188.018236 
L 98.958062 184.763077 
L 101.553231 182.124505 
L 105.457621 177.939692 
L 108.798244 171.116308 
L 108.878769 170.941648 
L 112.091346 164.292923 
L 115.439891 157.469538 
L 116.204308 155.913762 
L 118.861311 150.646154 
L 121.271674 143.822769 
L 123.434027 136.999385 
L 123.529846 136.70977 
L 126.912769 130.176 
L 130.855385 128.324976 
L 138.180923 124.325614 
L 139.804307 123.352615 
L 145.506462 119.848247 
L 150.183121 116.529231 
L 152.832 114.66739 
L 159.085772 109.705846 
L 160.157538 108.862562 
L 167.483077 103.347315 
L 168.029277 102.882462 
L 174.327371 96.059077 
L 174.808615 95.484022 
L 180.172818 89.235692 
L 182.134154 86.591097 
L 187.003912 82.412308 
L 189.459692 79.731527 
L 196.785231 78.251527 
L 204.110769 78.318829 
L 211.436308 76.515915 
L 214.103693 75.588923 
L 218.761846 74.159619 
L 226.087385 72.348168 
L 233.412923 70.986402 
L 240.738462 72.710043 
L 248.064 74.780445 
L 255.389538 74.788049 
L 262.715077 75.290711 
L 270.040615 75.517808 
L 277.366154 74.229155 
L 284.691692 73.228703 
L 291.018046 68.765538 
L 292.017231 68.214996 
L 297.747903 61.942154 
L 299.342769 60.27491 
L 302.67672 55.118769 
L 306.292425 48.295385 
L 306.668308 47.642628 
L 309.942644 41.472 
L 306.668308 41.472 
L 303.359391 41.472 
L 299.342769 48.108456 
L 299.151186 48.295385 
L 292.555854 55.118769 
L 292.017231 55.673998 
L 284.691692 57.847135 
L 277.366154 58.631607 
L 270.040615 59.427164 
L 262.715077 59.421933 
L 255.389538 57.187653 
L 251.569818 55.118769 
L 248.064 53.40692 
L 240.738462 50.683957 
L 233.412923 49.909725 
L 226.087385 51.676377 
L 218.761846 53.885258 
L 212.034882 55.118769 
L 211.436308 55.251332 
L 204.110769 55.141488 
L 196.785231 56.849075 
L 189.459692 57.725774 
L 184.544379 61.942154 
L 182.134154 64.465606 
L 179.696034 68.765538 
L 175.330522 75.588923 
L 174.808615 76.323764 
L 170.379512 82.412308 
L 167.483077 85.852762 
L 164.5376 89.235692 
L 160.157538 93.919235 
L 157.967496 96.059077 
L 152.832 100.527219 
L 149.967599 102.882462 
L 145.506462 106.267151 
L 140.616214 109.705846 
L 138.180923 111.451348 
L 130.855385 116.15932 
L 130.248017 116.529231 
L 123.529846 120.413262 
L 117.584346 123.352615 
L 116.204308 124.208421 
L 108.878769 130.142131 
L 108.846967 130.176 
L 106.860461 136.999385 
L 103.476117 143.822769 
L 101.553231 149.785872 
L 101.303797 150.646154 
L 97.730854 157.469538 
L 94.227692 163.960797 
L 94.059392 164.292923 
L 90.568193 171.116308 
L 86.902154 176.763105 
L 86.158179 177.939692 
L 79.576615 183.863826 
L 78.431914 184.763077 
L 72.251077 190.329164 
L 71.603037 191.586462 
L 65.132038 198.409846 
L 64.925538 198.625175 
L 59.145914 205.233231 
L 57.6 206.519797 
L 57.6 212.056615 
L 57.6 217.758914 
z
" clip-path="url(#pbbff23ade0)" style="fill: #481668"/>
    <path d="M 152.832 307.584 
L 156.605231 307.584 
L 160.157538 305.222458 
L 167.483077 302.298681 
L 172.815077 300.760615 
L 174.808615 300.139486 
L 182.134154 298.545141 
L 189.459692 298.814375 
L 196.785231 299.806669 
L 204.110769 298.908572 
L 211.436308 296.987454 
L 218.761846 294.379153 
L 220.476897 293.937231 
L 226.087385 292.330247 
L 233.412923 289.337772 
L 240.235366 287.113846 
L 240.738462 286.940214 
L 248.064 286.164868 
L 255.389538 286.673472 
L 262.715077 285.939378 
L 270.040615 284.909138 
L 277.366154 283.649942 
L 284.691692 282.096239 
L 291.648993 280.290462 
L 292.017231 280.126569 
L 296.407485 273.467077 
L 298.475071 266.643692 
L 299.342769 264.392954 
L 301.055655 259.820308 
L 303.068923 252.996923 
L 305.740266 246.173538 
L 305.339751 239.350154 
L 305.320097 232.526769 
L 306.092979 225.703385 
L 306.668308 224.274626 
L 309.539937 218.88 
L 313.993846 214.131491 
L 316.063837 212.056615 
L 321.319385 208.124109 
L 325.626989 205.233231 
L 328.644923 203.813535 
L 335.970462 200.38873 
L 339.923554 198.409846 
L 343.296 196.74297 
L 343.296 191.586462 
L 343.296 190.260841 
L 340.059524 191.586462 
L 335.970462 193.345334 
L 328.644923 196.966584 
L 325.188539 198.409846 
L 321.319385 199.909315 
L 313.993846 203.317611 
L 310.581702 205.233231 
L 306.668308 208.515285 
L 302.718539 212.056615 
L 299.342769 216.613802 
L 298.090713 218.88 
L 296.832285 225.703385 
L 296.70586 232.526769 
L 296.771238 239.350154 
L 295.52847 246.173538 
L 293.530012 252.996923 
L 292.017231 259.308697 
L 291.888683 259.820308 
L 289.724537 266.643692 
L 285.424284 273.467077 
L 284.691692 273.892284 
L 277.366154 275.721648 
L 270.040615 277.194928 
L 262.715077 278.387812 
L 255.389538 279.566427 
L 248.064 280.002753 
L 240.738462 279.468492 
L 237.529422 280.290462 
L 233.412923 281.430213 
L 226.087385 283.887519 
L 218.761846 285.819972 
L 215.154182 287.113846 
L 211.436308 288.334166 
L 204.110769 290.549142 
L 196.785231 291.08098 
L 189.459692 291.432537 
L 182.134154 291.190146 
L 174.808615 292.271892 
L 168.827883 293.937231 
L 167.483077 294.276084 
L 160.157538 297.506539 
L 155.601391 300.760615 
L 152.832 302.550989 
L 145.92012 307.584 
z
M 59.145914 205.233231 
L 64.925538 198.625175 
L 65.132038 198.409846 
L 71.603037 191.586462 
L 72.251077 190.329164 
L 78.431914 184.763077 
L 79.576615 183.863826 
L 86.158179 177.939692 
L 86.902154 176.763105 
L 90.568193 171.116308 
L 94.059392 164.292923 
L 94.227692 163.960797 
L 97.730854 157.469538 
L 101.303797 150.646154 
L 101.553231 149.785872 
L 103.476117 143.822769 
L 106.860461 136.999385 
L 108.846967 130.176 
L 108.878769 130.142131 
L 116.204308 124.208421 
L 117.584346 123.352615 
L 123.529846 120.413262 
L 130.248017 116.529231 
L 130.855385 116.15932 
L 138.180923 111.451348 
L 140.616214 109.705846 
L 145.506462 106.267151 
L 149.967599 102.882462 
L 152.832 100.527219 
L 157.967496 96.059077 
L 160.157538 93.919235 
L 164.5376 89.235692 
L 167.483077 85.852762 
L 170.379512 82.412308 
L 174.808615 76.323764 
L 175.330522 75.588923 
L 179.696034 68.765538 
L 182.134154 64.465606 
L 184.544379 61.942154 
L 189.459692 57.725774 
L 196.785231 56.849075 
L 204.110769 55.141488 
L 211.436308 55.251332 
L 212.034882 55.118769 
L 218.761846 53.885258 
L 226.087385 51.676377 
L 233.412923 49.909725 
L 240.738462 50.683957 
L 248.064 53.40692 
L 251.569818 55.118769 
L 255.389538 57.187653 
L 262.715077 59.421933 
L 270.040615 59.427164 
L 277.366154 58.631607 
L 284.691692 57.847135 
L 292.017231 55.673998 
L 292.555854 55.118769 
L 299.151186 48.295385 
L 299.342769 48.108456 
L 303.359391 41.472 
L 299.342769 41.472 
L 295.965671 41.472 
L 292.017231 45.280486 
L 284.691692 46.337881 
L 277.366154 46.564809 
L 270.040615 47.144653 
L 262.715077 44.36188 
L 257.020526 41.472 
L 255.389538 41.472 
L 248.064 41.472 
L 240.738462 41.472 
L 233.412923 41.472 
L 226.087385 41.472 
L 218.761846 41.472 
L 211.436308 41.472 
L 204.110769 41.472 
L 196.785231 41.472 
L 194.79798 41.472 
L 189.459692 42.837603 
L 182.134154 46.619719 
L 181.014611 48.295385 
L 177.065708 55.118769 
L 174.808615 58.829587 
L 173.078626 61.942154 
L 168.905275 68.765538 
L 167.483077 70.834036 
L 163.960956 75.588923 
L 160.157538 79.904576 
L 157.906684 82.412308 
L 152.832 88.070457 
L 151.655856 89.235692 
L 145.506462 94.559577 
L 143.752831 96.059077 
L 138.180923 100.490729 
L 135.294716 102.882462 
L 130.855385 106.304873 
L 126.028483 109.705846 
L 123.529846 111.353914 
L 116.204308 115.551487 
L 114.261646 116.529231 
L 108.878769 119.272136 
L 101.553231 122.504089 
L 99.669791 123.352615 
L 95.24967 130.176 
L 94.227692 132.592913 
L 92.409246 136.999385 
L 89.03031 143.822769 
L 87.327397 150.646154 
L 86.902154 151.369833 
L 83.413092 157.469538 
L 79.917988 164.292923 
L 79.576615 164.88823 
L 76.001991 171.116308 
L 72.251077 176.360345 
L 71.387208 177.939692 
L 67.038031 184.763077 
L 64.925538 188.580254 
L 63.411866 191.586462 
L 57.6 197.744196 
L 57.6 198.409846 
L 57.6 205.233231 
L 57.6 206.519797 
z
" clip-path="url(#pbbff23ade0)" style="fill: #481c6e"/>
    <path d="M 160.157538 307.584 
L 167.483077 307.584 
L 171.757089 307.584 
L 174.808615 306.486067 
L 182.134154 304.668289 
L 189.459692 305.012701 
L 196.785231 305.917368 
L 204.110769 305.922487 
L 211.436308 304.217703 
L 218.761846 301.430652 
L 221.257042 300.760615 
L 226.087385 299.347144 
L 233.412923 296.019487 
L 238.961207 293.937231 
L 240.738462 293.241907 
L 248.064 292.080755 
L 255.389538 291.928537 
L 262.715077 292.14473 
L 270.040615 291.239128 
L 277.366154 290.163262 
L 284.691692 288.758468 
L 292.017231 287.145265 
L 292.137218 287.113846 
L 299.342769 283.764169 
L 301.495845 280.290462 
L 303.562882 273.467077 
L 306.027187 266.643692 
L 306.668308 265.183854 
L 308.953862 259.820308 
L 311.394828 252.996923 
L 312.837922 246.173538 
L 312.475851 239.350154 
L 312.725426 232.526769 
L 313.993846 226.621856 
L 314.261259 225.703385 
L 320.627174 218.88 
L 321.319385 218.19357 
L 327.812396 212.056615 
L 328.644923 211.466128 
L 335.970462 206.896597 
L 338.828707 205.233231 
L 343.296 202.877061 
L 343.296 198.409846 
L 343.296 196.74297 
L 339.923554 198.409846 
L 335.970462 200.38873 
L 328.644923 203.813535 
L 325.626989 205.233231 
L 321.319385 208.124109 
L 316.063837 212.056615 
L 313.993846 214.131491 
L 309.539937 218.88 
L 306.668308 224.274626 
L 306.092979 225.703385 
L 305.320097 232.526769 
L 305.339751 239.350154 
L 305.740266 246.173538 
L 303.068923 252.996923 
L 301.055655 259.820308 
L 299.342769 264.392954 
L 298.475071 266.643692 
L 296.407485 273.467077 
L 292.017231 280.126569 
L 291.648993 280.290462 
L 284.691692 282.096239 
L 277.366154 283.649942 
L 270.040615 284.909138 
L 262.715077 285.939378 
L 255.389538 286.673472 
L 248.064 286.164868 
L 240.738462 286.940214 
L 240.235366 287.113846 
L 233.412923 289.337772 
L 226.087385 292.330247 
L 220.476897 293.937231 
L 218.761846 294.379153 
L 211.436308 296.987454 
L 204.110769 298.908572 
L 196.785231 299.806669 
L 189.459692 298.814375 
L 182.134154 298.545141 
L 174.808615 300.139486 
L 172.815077 300.760615 
L 167.483077 302.298681 
L 160.157538 305.222458 
L 156.605231 307.584 
z
M 63.411866 191.586462 
L 64.925538 188.580254 
L 67.038031 184.763077 
L 71.387208 177.939692 
L 72.251077 176.360345 
L 76.001991 171.116308 
L 79.576615 164.88823 
L 79.917988 164.292923 
L 83.413092 157.469538 
L 86.902154 151.369833 
L 87.327397 150.646154 
L 89.03031 143.822769 
L 92.409246 136.999385 
L 94.227692 132.592913 
L 95.24967 130.176 
L 99.669791 123.352615 
L 101.553231 122.504089 
L 108.878769 119.272136 
L 114.261646 116.529231 
L 116.204308 115.551487 
L 123.529846 111.353914 
L 126.028483 109.705846 
L 130.855385 106.304873 
L 135.294716 102.882462 
L 138.180923 100.490729 
L 143.752831 96.059077 
L 145.506462 94.559577 
L 151.655856 89.235692 
L 152.832 88.070457 
L 157.906684 82.412308 
L 160.157538 79.904576 
L 163.960956 75.588923 
L 167.483077 70.834036 
L 168.905275 68.765538 
L 173.078626 61.942154 
L 174.808615 58.829587 
L 177.065708 55.118769 
L 181.014611 48.295385 
L 182.134154 46.619719 
L 189.459692 42.837603 
L 194.79798 41.472 
L 189.459692 41.472 
L 182.134154 41.472 
L 176.354998 41.472 
L 174.808615 43.819224 
L 172.431718 48.295385 
L 168.562045 55.118769 
L 167.483077 56.884076 
L 164.485613 61.942154 
L 160.157538 68.276343 
L 159.769689 68.765538 
L 153.439212 75.588923 
L 152.832 76.259165 
L 147.616563 82.412308 
L 145.506462 84.475488 
L 140.303471 89.235692 
L 138.180923 91.075438 
L 132.434678 96.059077 
L 130.855385 97.386827 
L 124.047535 102.882462 
L 123.529846 103.263145 
L 116.204308 108.15172 
L 113.487967 109.705846 
L 108.878769 112.25149 
L 101.553231 115.691235 
L 99.58123 116.529231 
L 94.227692 119.061496 
L 86.902154 122.385124 
L 85.148714 123.352615 
L 82.501334 130.176 
L 79.647781 136.999385 
L 79.576615 137.154173 
L 77.411091 143.822769 
L 75.266725 150.646154 
L 72.251077 156.149032 
L 71.739882 157.469538 
L 68.407304 164.292923 
L 64.925538 169.935775 
L 64.511138 171.116308 
L 62.681052 177.939692 
L 60.069856 184.763077 
L 57.6 189.280961 
L 57.6 191.586462 
L 57.6 197.744196 
z
M 262.715077 44.36188 
L 270.040615 47.144653 
L 277.366154 46.564809 
L 284.691692 46.337881 
L 292.017231 45.280486 
L 295.965671 41.472 
L 292.017231 41.472 
L 284.691692 41.472 
L 277.366154 41.472 
L 270.040615 41.472 
L 262.715077 41.472 
L 257.020526 41.472 
z
" clip-path="url(#pbbff23ade0)" style="fill: #482475"/>
    <path d="M 174.808615 307.584 
L 182.134154 307.584 
L 189.459692 307.584 
L 196.785231 307.584 
L 204.110769 307.584 
L 211.436308 307.584 
L 218.761846 307.584 
L 218.965247 307.584 
L 226.087385 305.339153 
L 233.412923 301.845558 
L 236.060651 300.760615 
L 240.738462 298.736419 
L 248.064 297.223309 
L 255.389538 296.908206 
L 262.715077 297.1939 
L 270.040615 296.644667 
L 277.366154 295.710159 
L 284.691692 294.50036 
L 287.516142 293.937231 
L 292.017231 292.8765 
L 299.342769 290.954156 
L 305.167026 287.113846 
L 306.668308 283.769229 
L 307.653391 280.290462 
L 309.8734 273.467077 
L 312.658701 266.643692 
L 313.993846 263.899243 
L 315.9277 259.820308 
L 318.904994 252.996923 
L 318.885636 246.173538 
L 318.758361 239.350154 
L 319.562876 232.526769 
L 321.319385 229.259165 
L 323.758717 225.703385 
L 328.644923 220.754664 
L 330.598349 218.88 
L 335.970462 213.950006 
L 338.130477 212.056615 
L 343.296 208.844812 
L 343.296 205.233231 
L 343.296 202.877061 
L 338.828707 205.233231 
L 335.970462 206.896597 
L 328.644923 211.466128 
L 327.812396 212.056615 
L 321.319385 218.19357 
L 320.627174 218.88 
L 314.261259 225.703385 
L 313.993846 226.621856 
L 312.725426 232.526769 
L 312.475851 239.350154 
L 312.837922 246.173538 
L 311.394828 252.996923 
L 308.953862 259.820308 
L 306.668308 265.183854 
L 306.027187 266.643692 
L 303.562882 273.467077 
L 301.495845 280.290462 
L 299.342769 283.764169 
L 292.137218 287.113846 
L 292.017231 287.145265 
L 284.691692 288.758468 
L 277.366154 290.163262 
L 270.040615 291.239128 
L 262.715077 292.14473 
L 255.389538 291.928537 
L 248.064 292.080755 
L 240.738462 293.241907 
L 238.961207 293.937231 
L 233.412923 296.019487 
L 226.087385 299.347144 
L 221.257042 300.760615 
L 218.761846 301.430652 
L 211.436308 304.217703 
L 204.110769 305.922487 
L 196.785231 305.917368 
L 189.459692 305.012701 
L 182.134154 304.668289 
L 174.808615 306.486067 
L 171.757089 307.584 
z
M 60.069856 184.763077 
L 62.681052 177.939692 
L 64.511138 171.116308 
L 64.925538 169.935775 
L 68.407304 164.292923 
L 71.739882 157.469538 
L 72.251077 156.149032 
L 75.266725 150.646154 
L 77.411091 143.822769 
L 79.576615 137.154173 
L 79.647781 136.999385 
L 82.501334 130.176 
L 85.148714 123.352615 
L 86.902154 122.385124 
L 94.227692 119.061496 
L 99.58123 116.529231 
L 101.553231 115.691235 
L 108.878769 112.25149 
L 113.487967 109.705846 
L 116.204308 108.15172 
L 123.529846 103.263145 
L 124.047535 102.882462 
L 130.855385 97.386827 
L 132.434678 96.059077 
L 138.180923 91.075438 
L 140.303471 89.235692 
L 145.506462 84.475488 
L 147.616563 82.412308 
L 152.832 76.259165 
L 153.439212 75.588923 
L 159.769689 68.765538 
L 160.157538 68.276343 
L 164.485613 61.942154 
L 167.483077 56.884076 
L 168.562045 55.118769 
L 172.431718 48.295385 
L 174.808615 43.819224 
L 176.354998 41.472 
L 174.808615 41.472 
L 168.866114 41.472 
L 167.483077 43.952819 
L 165.298481 48.295385 
L 161.368874 55.118769 
L 160.157538 57.008902 
L 156.88185 61.942154 
L 152.832 66.717651 
L 151.06626 68.765538 
L 145.506462 75.076928 
L 145.042395 75.588923 
L 138.521602 82.412308 
L 138.180923 82.724788 
L 130.855385 88.980148 
L 130.586908 89.235692 
L 123.529846 95.909737 
L 123.348287 96.059077 
L 116.204308 101.375263 
L 113.893149 102.882462 
L 108.878769 105.987875 
L 101.613604 109.705846 
L 101.553231 109.736464 
L 94.227692 113.192854 
L 86.902154 116.061387 
L 85.581783 116.529231 
L 79.576615 119.646774 
L 75.368455 123.352615 
L 74.331048 130.176 
L 72.251077 135.790892 
L 71.895221 136.999385 
L 69.899012 143.822769 
L 67.915833 150.646154 
L 64.925538 156.367896 
L 64.405481 157.469538 
L 61.092041 164.292923 
L 58.517422 171.116308 
L 57.6 174.311866 
L 57.6 177.939692 
L 57.6 184.763077 
L 57.6 189.280961 
z
" clip-path="url(#pbbff23ade0)" style="fill: #472c7a"/>
    <path d="M 226.087385 307.584 
L 232.188731 307.584 
L 233.412923 306.956502 
L 240.738462 303.746711 
L 248.064 301.928848 
L 255.389538 301.600322 
L 262.715077 301.708337 
L 270.040615 301.486695 
L 276.200732 300.760615 
L 277.366154 300.605297 
L 284.691692 299.349167 
L 292.017231 297.864356 
L 299.342769 296.203809 
L 306.668308 294.391636 
L 307.300704 293.937231 
L 310.906871 287.113846 
L 313.130913 280.290462 
L 313.993846 277.982821 
L 315.623338 273.467077 
L 318.772935 266.643692 
L 321.319385 261.653953 
L 322.327918 259.820308 
L 324.883979 252.996923 
L 324.463953 246.173538 
L 324.611526 239.350154 
L 326.192503 232.526769 
L 328.644923 229.370622 
L 332.18621 225.703385 
L 335.970462 222.082571 
L 339.279891 218.88 
L 343.296 215.328436 
L 343.296 212.056615 
L 343.296 208.844812 
L 338.130477 212.056615 
L 335.970462 213.950006 
L 330.598349 218.88 
L 328.644923 220.754664 
L 323.758717 225.703385 
L 321.319385 229.259165 
L 319.562876 232.526769 
L 318.758361 239.350154 
L 318.885636 246.173538 
L 318.904994 252.996923 
L 315.9277 259.820308 
L 313.993846 263.899243 
L 312.658701 266.643692 
L 309.8734 273.467077 
L 307.653391 280.290462 
L 306.668308 283.769229 
L 305.167026 287.113846 
L 299.342769 290.954156 
L 292.017231 292.8765 
L 287.516142 293.937231 
L 284.691692 294.50036 
L 277.366154 295.710159 
L 270.040615 296.644667 
L 262.715077 297.1939 
L 255.389538 296.908206 
L 248.064 297.223309 
L 240.738462 298.736419 
L 236.060651 300.760615 
L 233.412923 301.845558 
L 226.087385 305.339153 
L 218.965247 307.584 
z
M 58.517422 171.116308 
L 61.092041 164.292923 
L 64.405481 157.469538 
L 64.925538 156.367896 
L 67.915833 150.646154 
L 69.899012 143.822769 
L 71.895221 136.999385 
L 72.251077 135.790892 
L 74.331048 130.176 
L 75.368455 123.352615 
L 79.576615 119.646774 
L 85.581783 116.529231 
L 86.902154 116.061387 
L 94.227692 113.192854 
L 101.553231 109.736464 
L 101.613604 109.705846 
L 108.878769 105.987875 
L 113.893149 102.882462 
L 116.204308 101.375263 
L 123.348287 96.059077 
L 123.529846 95.909737 
L 130.586908 89.235692 
L 130.855385 88.980148 
L 138.180923 82.724788 
L 138.521602 82.412308 
L 145.042395 75.588923 
L 145.506462 75.076928 
L 151.06626 68.765538 
L 152.832 66.717651 
L 156.88185 61.942154 
L 160.157538 57.008902 
L 161.368874 55.118769 
L 165.298481 48.295385 
L 167.483077 43.952819 
L 168.866114 41.472 
L 167.483077 41.472 
L 162.805889 41.472 
L 160.157538 46.210847 
L 159.044191 48.295385 
L 154.914491 55.118769 
L 152.832 58.015451 
L 149.881418 61.942154 
L 145.506462 66.883147 
L 143.862554 68.765538 
L 138.180923 74.868796 
L 137.480576 75.588923 
L 130.855385 81.972426 
L 130.357296 82.412308 
L 123.529846 88.911682 
L 123.211369 89.235692 
L 116.204308 95.124303 
L 114.915233 96.059077 
L 108.878769 100.205582 
L 104.375001 102.882462 
L 101.553231 104.474422 
L 94.227692 108.076575 
L 90.389987 109.705846 
L 86.902154 111.253343 
L 79.576615 114.115076 
L 73.033545 116.529231 
L 72.251077 117.201166 
L 69.197435 123.352615 
L 68.521327 130.176 
L 66.3978 136.999385 
L 64.925538 141.665701 
L 64.3098 143.822769 
L 62.154177 150.646154 
L 58.94509 157.469538 
L 57.6 160.110504 
L 57.6 164.292923 
L 57.6 171.116308 
L 57.6 174.311866 
z
" clip-path="url(#pbbff23ade0)" style="fill: #46327e"/>
    <path d="M 233.412923 307.584 
L 240.738462 307.584 
L 243.799633 307.584 
L 248.064 306.366772 
L 255.389538 305.599687 
L 262.715077 305.802507 
L 270.040615 305.816025 
L 277.366154 304.80436 
L 284.691692 303.671096 
L 292.017231 302.388388 
L 299.342769 300.91118 
L 300.022508 300.760615 
L 306.668308 299.064701 
L 313.804223 293.937231 
L 313.993846 293.471065 
L 315.785655 287.113846 
L 318.107136 280.290462 
L 320.908977 273.467077 
L 321.319385 272.65617 
L 324.477424 266.643692 
L 328.644923 260.024031 
L 328.792161 259.820308 
L 329.995314 252.996923 
L 329.66365 246.173538 
L 330.075533 239.350154 
L 333.127988 232.526769 
L 335.970462 229.624657 
L 339.952004 225.703385 
L 343.296 222.478099 
L 343.296 218.88 
L 343.296 215.328436 
L 339.279891 218.88 
L 335.970462 222.082571 
L 332.18621 225.703385 
L 328.644923 229.370622 
L 326.192503 232.526769 
L 324.611526 239.350154 
L 324.463953 246.173538 
L 324.883979 252.996923 
L 322.327918 259.820308 
L 321.319385 261.653953 
L 318.772935 266.643692 
L 315.623338 273.467077 
L 313.993846 277.982821 
L 313.130913 280.290462 
L 310.906871 287.113846 
L 307.300704 293.937231 
L 306.668308 294.391636 
L 299.342769 296.203809 
L 292.017231 297.864356 
L 284.691692 299.349167 
L 277.366154 300.605297 
L 276.200732 300.760615 
L 270.040615 301.486695 
L 262.715077 301.708337 
L 255.389538 301.600322 
L 248.064 301.928848 
L 240.738462 303.746711 
L 233.412923 306.956502 
L 232.188731 307.584 
z
M 58.94509 157.469538 
L 62.154177 150.646154 
L 64.3098 143.822769 
L 64.925538 141.665701 
L 66.3978 136.999385 
L 68.521327 130.176 
L 69.197435 123.352615 
L 72.251077 117.201166 
L 73.033545 116.529231 
L 79.576615 114.115076 
L 86.902154 111.253343 
L 90.389987 109.705846 
L 94.227692 108.076575 
L 101.553231 104.474422 
L 104.375001 102.882462 
L 108.878769 100.205582 
L 114.915233 96.059077 
L 116.204308 95.124303 
L 123.211369 89.235692 
L 123.529846 88.911682 
L 130.357296 82.412308 
L 130.855385 81.972426 
L 137.480576 75.588923 
L 138.180923 74.868796 
L 143.862554 68.765538 
L 145.506462 66.883147 
L 149.881418 61.942154 
L 152.832 58.015451 
L 154.914491 55.118769 
L 159.044191 48.295385 
L 160.157538 46.210847 
L 162.805889 41.472 
L 160.157538 41.472 
L 157.467144 41.472 
L 153.49816 48.295385 
L 152.832 49.331373 
L 149.064781 55.118769 
L 145.506462 59.565617 
L 143.536946 61.942154 
L 138.180923 67.925732 
L 137.35542 68.765538 
L 130.855385 75.405457 
L 130.674153 75.588923 
L 123.529846 81.942393 
L 123.050791 82.412308 
L 116.252273 89.235692 
L 116.204308 89.276001 
L 108.878769 94.782979 
L 106.975641 96.059077 
L 101.553231 99.51751 
L 95.371418 102.882462 
L 94.227692 103.475955 
L 86.902154 106.896434 
L 79.767393 109.705846 
L 79.576615 109.784375 
L 72.251077 112.617901 
L 66.444267 116.529231 
L 64.925538 120.796488 
L 64.280291 123.352615 
L 63.413905 130.176 
L 61.414996 136.999385 
L 59.336087 143.822769 
L 57.6 148.41498 
L 57.6 150.646154 
L 57.6 157.469538 
L 57.6 160.110504 
z
" clip-path="url(#pbbff23ade0)" style="fill: #443983"/>
    <path d="M 248.064 307.584 
L 255.389538 307.584 
L 262.715077 307.584 
L 270.040615 307.584 
L 277.366154 307.584 
L 284.691692 307.584 
L 285.764494 307.584 
L 292.017231 306.468072 
L 299.342769 304.967447 
L 306.668308 303.333422 
L 313.993846 301.668675 
L 315.105517 300.760615 
L 318.079343 293.937231 
L 320.291972 287.113846 
L 321.319385 284.384953 
L 322.807442 280.290462 
L 325.714103 273.467077 
L 328.644923 268.560327 
L 329.962298 266.643692 
L 335.08947 259.820308 
L 334.570748 252.996923 
L 334.298125 246.173538 
L 335.020718 239.350154 
L 335.970462 237.699745 
L 340.102145 232.526769 
L 343.296 229.394352 
L 343.296 225.703385 
L 343.296 222.478099 
L 339.952004 225.703385 
L 335.970462 229.624657 
L 333.127988 232.526769 
L 330.075533 239.350154 
L 329.66365 246.173538 
L 329.995314 252.996923 
L 328.792161 259.820308 
L 328.644923 260.024031 
L 324.477424 266.643692 
L 321.319385 272.65617 
L 320.908977 273.467077 
L 318.107136 280.290462 
L 315.785655 287.113846 
L 313.993846 293.471065 
L 313.804223 293.937231 
L 306.668308 299.064701 
L 300.022508 300.760615 
L 299.342769 300.91118 
L 292.017231 302.388388 
L 284.691692 303.671096 
L 277.366154 304.80436 
L 270.040615 305.816025 
L 262.715077 305.802507 
L 255.389538 305.599687 
L 248.064 306.366772 
L 243.799633 307.584 
z
M 59.336087 143.822769 
L 61.414996 136.999385 
L 63.413905 130.176 
L 64.280291 123.352615 
L 64.925538 120.796488 
L 66.444267 116.529231 
L 72.251077 112.617901 
L 79.576615 109.784375 
L 79.767393 109.705846 
L 86.902154 106.896434 
L 94.227692 103.475955 
L 95.371418 102.882462 
L 101.553231 99.51751 
L 106.975641 96.059077 
L 108.878769 94.782979 
L 116.204308 89.276001 
L 116.252273 89.235692 
L 123.050791 82.412308 
L 123.529846 81.942393 
L 130.674153 75.588923 
L 130.855385 75.405457 
L 137.35542 68.765538 
L 138.180923 67.925732 
L 143.536946 61.942154 
L 145.506462 59.565617 
L 149.064781 55.118769 
L 152.832 49.331373 
L 153.49816 48.295385 
L 157.467144 41.472 
L 152.832 41.472 
L 152.54946 41.472 
L 148.502826 48.295385 
L 145.506462 52.55647 
L 143.576568 55.118769 
L 138.180923 61.454154 
L 137.731885 61.942154 
L 130.970184 68.765538 
L 130.855385 68.882809 
L 124.230953 75.588923 
L 123.529846 76.212421 
L 117.209356 82.412308 
L 116.204308 83.41989 
L 109.508298 89.235692 
L 108.878769 89.7094 
L 101.553231 94.797099 
L 99.51938 96.059077 
L 94.227692 99.187109 
L 86.902154 102.765948 
L 86.633211 102.882462 
L 79.576615 105.97917 
L 72.251077 108.654426 
L 69.186081 109.705846 
L 64.925538 112.15834 
L 61.413827 116.529231 
L 59.867508 123.352615 
L 58.775133 130.176 
L 57.6 133.953124 
L 57.6 136.999385 
L 57.6 143.822769 
L 57.6 148.41498 
z
" clip-path="url(#pbbff23ade0)" style="fill: #424086"/>
    <path d="M 292.017231 307.584 
L 299.342769 307.584 
L 305.723702 307.584 
L 306.668308 307.37181 
L 313.993846 305.613991 
L 319.935478 300.760615 
L 321.319385 296.976036 
L 322.18198 293.937231 
L 324.443067 287.113846 
L 327.157383 280.290462 
L 328.644923 277.080216 
L 330.498635 273.467077 
L 335.44517 266.643692 
L 335.970462 265.959817 
L 339.34797 259.820308 
L 338.76076 252.996923 
L 338.683512 246.173538 
L 340.217204 239.350154 
L 343.296 235.782942 
L 343.296 232.526769 
L 343.296 229.394352 
L 340.102145 232.526769 
L 335.970462 237.699745 
L 335.020718 239.350154 
L 334.298125 246.173538 
L 334.570748 252.996923 
L 335.08947 259.820308 
L 329.962298 266.643692 
L 328.644923 268.560327 
L 325.714103 273.467077 
L 322.807442 280.290462 
L 321.319385 284.384953 
L 320.291972 287.113846 
L 318.079343 293.937231 
L 315.105517 300.760615 
L 313.993846 301.668675 
L 306.668308 303.333422 
L 299.342769 304.967447 
L 292.017231 306.468072 
L 285.764494 307.584 
z
M 58.775133 130.176 
L 59.867508 123.352615 
L 61.413827 116.529231 
L 64.925538 112.15834 
L 69.186081 109.705846 
L 72.251077 108.654426 
L 79.576615 105.97917 
L 86.633211 102.882462 
L 86.902154 102.765948 
L 94.227692 99.187109 
L 99.51938 96.059077 
L 101.553231 94.797099 
L 108.878769 89.7094 
L 109.508298 89.235692 
L 116.204308 83.41989 
L 117.209356 82.412308 
L 123.529846 76.212421 
L 124.230953 75.588923 
L 130.855385 68.882809 
L 130.970184 68.765538 
L 137.731885 61.942154 
L 138.180923 61.454154 
L 143.576568 55.118769 
L 145.506462 52.55647 
L 148.502826 48.295385 
L 152.54946 41.472 
L 148.092792 41.472 
L 145.506462 45.548679 
L 143.69442 48.295385 
L 138.306598 55.118769 
L 138.180923 55.266333 
L 132.038093 61.942154 
L 130.855385 63.133461 
L 125.639297 68.765538 
L 123.529846 70.868923 
L 118.553331 75.588923 
L 116.204308 77.887746 
L 111.762434 82.412308 
L 108.878769 84.951949 
L 103.130601 89.235692 
L 101.553231 90.343668 
L 94.227692 95.022642 
L 92.399421 96.059077 
L 86.902154 99.018992 
L 79.576615 102.273208 
L 78.006696 102.882462 
L 72.251077 105.208444 
L 64.925538 107.889192 
L 61.972014 109.705846 
L 57.6 115.344658 
L 57.6 116.529231 
L 57.6 123.352615 
L 57.6 130.176 
L 57.6 133.953124 
z
" clip-path="url(#pbbff23ade0)" style="fill: #3f4788"/>
    <path d="M 306.668308 307.584 
L 313.993846 307.584 
L 321.319385 307.584 
L 321.642619 307.584 
L 323.80913 300.760615 
L 325.931351 293.937231 
L 328.489256 287.113846 
L 328.644923 286.736946 
L 331.373672 280.290462 
L 335.314903 273.467077 
L 335.970462 272.574308 
L 340.846143 266.643692 
L 343.274848 259.820308 
L 342.780896 252.996923 
L 342.928271 246.173538 
L 343.296 244.993398 
L 343.296 239.350154 
L 343.296 235.782942 
L 340.217204 239.350154 
L 338.683512 246.173538 
L 338.76076 252.996923 
L 339.34797 259.820308 
L 335.970462 265.959817 
L 335.44517 266.643692 
L 330.498635 273.467077 
L 328.644923 277.080216 
L 327.157383 280.290462 
L 324.443067 287.113846 
L 322.18198 293.937231 
L 321.319385 296.976036 
L 319.935478 300.760615 
L 313.993846 305.613991 
L 306.668308 307.37181 
L 305.723702 307.584 
z
M 61.972014 109.705846 
L 64.925538 107.889192 
L 72.251077 105.208444 
L 78.006696 102.882462 
L 79.576615 102.273208 
L 86.902154 99.018992 
L 92.399421 96.059077 
L 94.227692 95.022642 
L 101.553231 90.343668 
L 103.130601 89.235692 
L 108.878769 84.951949 
L 111.762434 82.412308 
L 116.204308 77.887746 
L 118.553331 75.588923 
L 123.529846 70.868923 
L 125.639297 68.765538 
L 130.855385 63.133461 
L 132.038093 61.942154 
L 138.180923 55.266333 
L 138.306598 55.118769 
L 143.69442 48.295385 
L 145.506462 45.548679 
L 148.092792 41.472 
L 145.506462 41.472 
L 143.847239 41.472 
L 139.06007 48.295385 
L 138.180923 49.405653 
L 133.295552 55.118769 
L 130.855385 57.718205 
L 126.8243 61.942154 
L 123.529846 65.475658 
L 120.464977 68.765538 
L 116.204308 72.799993 
L 113.373669 75.588923 
L 108.878769 80.129563 
L 106.422201 82.412308 
L 101.553231 86.162476 
L 97.035583 89.235692 
L 94.227692 91.077635 
L 86.902154 95.326628 
L 85.487758 96.059077 
L 79.576615 98.964033 
L 72.251077 101.913784 
L 69.640782 102.882462 
L 64.925538 104.734572 
L 57.6 109.119203 
L 57.6 109.705846 
L 57.6 115.344658 
z
" clip-path="url(#pbbff23ade0)" style="fill: #3d4d8a"/>
    <path d="M 327.298735 300.760615 
L 328.644923 296.78457 
L 329.585177 293.937231 
L 332.237609 287.113846 
L 335.520504 280.290462 
L 335.970462 279.529061 
L 339.954275 273.467077 
L 343.296 269.574713 
L 343.296 266.643692 
L 343.296 259.820308 
L 343.296 252.996923 
L 343.296 246.173538 
L 343.296 244.993398 
L 342.928271 246.173538 
L 342.780896 252.996923 
L 343.274848 259.820308 
L 340.846143 266.643692 
L 335.970462 272.574308 
L 335.314903 273.467077 
L 331.373672 280.290462 
L 328.644923 286.736946 
L 328.489256 287.113846 
L 325.931351 293.937231 
L 323.80913 300.760615 
L 321.642619 307.584 
L 325.147224 307.584 
z
M 64.925538 104.734572 
L 69.640782 102.882462 
L 72.251077 101.913784 
L 79.576615 98.964033 
L 85.487758 96.059077 
L 86.902154 95.326628 
L 94.227692 91.077635 
L 97.035583 89.235692 
L 101.553231 86.162476 
L 106.422201 82.412308 
L 108.878769 80.129563 
L 113.373669 75.588923 
L 116.204308 72.799993 
L 120.464977 68.765538 
L 123.529846 65.475658 
L 126.8243 61.942154 
L 130.855385 57.718205 
L 133.295552 55.118769 
L 138.180923 49.405653 
L 139.06007 48.295385 
L 143.847239 41.472 
L 139.893619 41.472 
L 138.180923 43.849067 
L 134.592132 48.295385 
L 130.855385 52.54049 
L 128.434127 55.118769 
L 123.529846 60.212298 
L 122.006444 61.942154 
L 116.204308 68.031131 
L 115.476662 68.765538 
L 108.878769 75.236196 
L 108.540702 75.588923 
L 101.553231 82.085127 
L 101.131433 82.412308 
L 94.227692 87.317996 
L 91.176334 89.235692 
L 86.902154 91.839581 
L 79.576615 95.679849 
L 78.753077 96.059077 
L 72.251077 98.933386 
L 64.925538 101.762125 
L 61.844161 102.882462 
L 57.6 105.143457 
L 57.6 109.119203 
z
" clip-path="url(#pbbff23ade0)" style="fill: #3a538b"/>
    <path d="M 328.644923 307.584 
L 328.650674 307.584 
L 330.585079 300.760615 
L 332.988696 293.937231 
L 335.970462 287.121309 
L 335.973918 287.113846 
L 339.498095 280.290462 
L 343.296 274.988208 
L 343.296 273.467077 
L 343.296 269.574713 
L 339.954275 273.467077 
L 335.970462 279.529061 
L 335.520504 280.290462 
L 332.237609 287.113846 
L 329.585177 293.937231 
L 328.644923 296.78457 
L 327.298735 300.760615 
L 325.147224 307.584 
z
M 61.844161 102.882462 
L 64.925538 101.762125 
L 72.251077 98.933386 
L 78.753077 96.059077 
L 79.576615 95.679849 
L 86.902154 91.839581 
L 91.176334 89.235692 
L 94.227692 87.317996 
L 101.131433 82.412308 
L 101.553231 82.085127 
L 108.540702 75.588923 
L 108.878769 75.236196 
L 115.476662 68.765538 
L 116.204308 68.031131 
L 122.006444 61.942154 
L 123.529846 60.212298 
L 128.434127 55.118769 
L 130.855385 52.54049 
L 134.592132 48.295385 
L 138.180923 43.849067 
L 139.893619 41.472 
L 138.180923 41.472 
L 135.907676 41.472 
L 130.855385 47.542239 
L 130.194882 48.295385 
L 123.709046 55.118769 
L 123.529846 55.304884 
L 117.684714 61.942154 
L 116.204308 63.495748 
L 110.983032 68.765538 
L 108.878769 70.829223 
L 104.316897 75.588923 
L 101.553231 78.158284 
L 96.068999 82.412308 
L 94.227692 83.720711 
L 86.902154 88.42652 
L 85.506073 89.235692 
L 79.576615 92.575257 
L 72.251077 95.961331 
L 72.021819 96.059077 
L 64.925538 99.048719 
L 57.6 101.80215 
L 57.6 102.882462 
L 57.6 105.143457 
z
" clip-path="url(#pbbff23ade0)" style="fill: #375a8c"/>
    <path d="M 333.743761 300.760615 
L 335.970462 294.957341 
L 336.387768 293.937231 
L 339.577139 287.113846 
L 343.296 280.546292 
L 343.296 280.290462 
L 343.296 274.988208 
L 339.498095 280.290462 
L 335.973918 287.113846 
L 335.970462 287.121309 
L 332.988696 293.937231 
L 330.585079 300.760615 
L 328.650674 307.584 
L 331.569428 307.584 
z
M 64.925538 99.048719 
L 72.021819 96.059077 
L 72.251077 95.961331 
L 79.576615 92.575257 
L 85.506073 89.235692 
L 86.902154 88.42652 
L 94.227692 83.720711 
L 96.068999 82.412308 
L 101.553231 78.158284 
L 104.316897 75.588923 
L 108.878769 70.829223 
L 110.983032 68.765538 
L 116.204308 63.495748 
L 117.684714 61.942154 
L 123.529846 55.304884 
L 123.709046 55.118769 
L 130.194882 48.295385 
L 130.855385 47.542239 
L 135.907676 41.472 
L 131.897029 41.472 
L 130.855385 42.723518 
L 125.968902 48.295385 
L 123.529846 50.853912 
L 119.599308 55.118769 
L 116.204308 58.928239 
L 113.628401 61.942154 
L 108.878769 66.685147 
L 106.729975 68.765538 
L 101.553231 74.138862 
L 100.099077 75.588923 
L 94.227692 80.275776 
L 91.15858 82.412308 
L 86.902154 85.231602 
L 79.993814 89.235692 
L 79.576615 89.470665 
L 72.251077 93.215326 
L 65.581221 96.059077 
L 64.925538 96.335314 
L 57.6 99.297388 
L 57.6 101.80215 
z
" clip-path="url(#pbbff23ade0)" style="fill: #355f8d"/>
    <path d="M 335.970462 303.268107 
L 336.888129 300.760615 
L 339.755406 293.937231 
L 343.180361 287.113846 
L 343.296 286.909626 
L 343.296 280.546292 
L 339.577139 287.113846 
L 336.387768 293.937231 
L 335.970462 294.957341 
L 333.743761 300.760615 
L 331.569428 307.584 
L 334.488181 307.584 
z
M 64.925538 96.335314 
L 65.581221 96.059077 
L 72.251077 93.215326 
L 79.576615 89.470665 
L 79.993814 89.235692 
L 86.902154 85.231602 
L 91.15858 82.412308 
L 94.227692 80.275776 
L 100.099077 75.588923 
L 101.553231 74.138862 
L 106.729975 68.765538 
L 108.878769 66.685147 
L 113.628401 61.942154 
L 116.204308 58.928239 
L 119.599308 55.118769 
L 123.529846 50.853912 
L 125.968902 48.295385 
L 130.855385 42.723518 
L 131.897029 41.472 
L 130.855385 41.472 
L 128.083137 41.472 
L 123.529846 46.534731 
L 121.846735 48.295385 
L 116.204308 54.391897 
L 115.62954 55.118769 
L 109.710377 61.942154 
L 108.878769 62.772599 
L 102.688784 68.765538 
L 101.553231 69.944213 
L 95.892586 75.588923 
L 94.227692 76.91793 
L 86.902154 82.059818 
L 86.359927 82.412308 
L 79.576615 86.602434 
L 74.647014 89.235692 
L 72.251077 90.469322 
L 64.925538 93.874289 
L 59.401233 96.059077 
L 57.6 96.792626 
L 57.6 99.297388 
z
" clip-path="url(#pbbff23ade0)" style="fill: #32658e"/>
    <path d="M 335.970462 307.584 
L 337.386867 307.584 
L 339.998297 300.760615 
L 343.123045 293.937231 
L 343.296 293.593419 
L 343.296 287.113846 
L 343.296 286.909626 
L 343.180361 287.113846 
L 339.755406 293.937231 
L 336.888129 300.760615 
L 335.970462 303.268107 
L 334.488181 307.584 
z
M 59.401233 96.059077 
L 64.925538 93.874289 
L 72.251077 90.469322 
L 74.647014 89.235692 
L 79.576615 86.602434 
L 86.359927 82.412308 
L 86.902154 82.059818 
L 94.227692 76.91793 
L 95.892586 75.588923 
L 101.553231 69.944213 
L 102.688784 68.765538 
L 108.878769 62.772599 
L 109.710377 61.942154 
L 115.62954 55.118769 
L 116.204308 54.391897 
L 121.846735 48.295385 
L 123.529846 46.534731 
L 128.083137 41.472 
L 124.338273 41.472 
L 123.529846 42.370877 
L 117.866266 48.295385 
L 116.204308 50.091092 
L 112.228715 55.118769 
L 108.878769 58.910144 
L 105.902423 61.942154 
L 101.553231 66.142128 
L 99.029595 68.765538 
L 94.227692 73.498611 
L 91.716402 75.588923 
L 86.902154 79.061663 
L 81.747935 82.412308 
L 79.576615 83.753556 
L 72.251077 87.835547 
L 69.483391 89.235692 
L 64.925538 91.441869 
L 57.6 94.501325 
L 57.6 96.059077 
L 57.6 96.792626 
z
" clip-path="url(#pbbff23ade0)" style="fill: #2f6b8e"/>
    <path d="M 343.108464 300.760615 
L 343.296 300.352827 
L 343.296 293.937231 
L 343.296 293.593419 
L 343.123045 293.937231 
L 339.998297 300.760615 
L 337.386867 307.584 
L 340.264847 307.584 
z
M 64.925538 91.441869 
L 69.483391 89.235692 
L 72.251077 87.835547 
L 79.576615 83.753556 
L 81.747935 82.412308 
L 86.902154 79.061663 
L 91.716402 75.588923 
L 94.227692 73.498611 
L 99.029595 68.765538 
L 101.553231 66.142128 
L 105.902423 61.942154 
L 108.878769 58.910144 
L 112.228715 55.118769 
L 116.204308 50.091092 
L 117.866266 48.295385 
L 123.529846 42.370877 
L 124.338273 41.472 
L 123.529846 41.472 
L 120.721705 41.472 
L 116.204308 46.139909 
L 114.351072 48.295385 
L 108.878769 55.059929 
L 108.830721 55.118769 
L 102.124126 61.942154 
L 101.553231 62.493462 
L 95.519697 68.765538 
L 94.227692 70.039023 
L 87.560071 75.588923 
L 86.902154 76.063509 
L 79.576615 80.988013 
L 77.244721 82.412308 
L 72.251077 85.293316 
L 64.925538 89.024257 
L 64.466195 89.235692 
L 57.6 92.298428 
L 57.6 94.501325 
z
" clip-path="url(#pbbff23ade0)" style="fill: #2d708e"/>
    <path d="M 343.296 307.218254 
L 343.296 300.760615 
L 343.296 300.352827 
L 343.108464 300.760615 
L 340.264847 307.584 
L 343.142826 307.584 
z
M 64.466195 89.235692 
L 64.925538 89.024257 
L 72.251077 85.293316 
L 77.244721 82.412308 
L 79.576615 80.988013 
L 86.902154 76.063509 
L 87.560071 75.588923 
L 94.227692 70.039023 
L 95.519697 68.765538 
L 101.553231 62.493462 
L 102.124126 61.942154 
L 108.830721 55.118769 
L 108.878769 55.059929 
L 114.351072 48.295385 
L 116.204308 46.139909 
L 120.721705 41.472 
L 117.140458 41.472 
L 116.204308 42.439341 
L 111.169398 48.295385 
L 108.878769 51.126927 
L 105.619086 55.118769 
L 101.553231 59.203282 
L 98.712972 61.942154 
L 94.227692 66.579606 
L 92.134995 68.765538 
L 86.902154 73.217407 
L 83.565155 75.588923 
L 79.576615 78.296607 
L 72.83828 82.412308 
L 72.251077 82.751086 
L 64.925538 86.751043 
L 59.52763 89.235692 
L 57.6 90.095531 
L 57.6 92.298428 
z
" clip-path="url(#pbbff23ade0)" style="fill: #2b758e"/>
    <path d="M 343.296 307.584 
L 343.296 307.218254 
L 343.142826 307.584 
z
M 59.52763 89.235692 
L 64.925538 86.751043 
L 72.251077 82.751086 
L 72.83828 82.412308 
L 79.576615 78.296607 
L 83.565155 75.588923 
L 86.902154 73.217407 
L 92.134995 68.765538 
L 94.227692 66.579606 
L 98.712972 61.942154 
L 101.553231 59.203282 
L 105.619086 55.118769 
L 108.878769 51.126927 
L 111.169398 48.295385 
L 116.204308 42.439341 
L 117.140458 41.472 
L 116.204308 41.472 
L 113.817671 41.472 
L 108.878769 47.238751 
L 108.10649 48.295385 
L 102.407452 55.118769 
L 101.553231 55.97691 
L 95.367167 61.942154 
L 94.227692 63.120287 
L 88.823225 68.765538 
L 86.902154 70.399901 
L 79.600595 75.588923 
L 79.576615 75.605202 
L 72.251077 80.302121 
L 68.67474 82.412308 
L 64.925538 84.477829 
L 57.6 87.99871 
L 57.6 89.235692 
L 57.6 90.095531 
z
" clip-path="url(#pbbff23ade0)" style="fill: #297b8e"/>
    <path d="M 64.925538 84.477829 
L 68.67474 82.412308 
L 72.251077 80.302121 
L 79.576615 75.605202 
L 79.600595 75.588923 
L 86.902154 70.399901 
L 88.823225 68.765538 
L 94.227692 63.120287 
L 95.367167 61.942154 
L 101.553231 55.97691 
L 102.407452 55.118769 
L 108.10649 48.295385 
L 108.878769 47.238751 
L 113.817671 41.472 
L 110.586358 41.472 
L 108.878769 43.465812 
L 105.3489 48.295385 
L 101.553231 52.745588 
L 99.215012 55.118769 
L 94.227692 59.919945 
L 92.286249 61.942154 
L 86.902154 67.491324 
L 85.472243 68.765538 
L 79.576615 73.100383 
L 75.803673 75.588923 
L 72.251077 77.867496 
L 64.925538 82.211868 
L 64.562727 82.412308 
L 57.6 85.969799 
L 57.6 87.99871 
z
" clip-path="url(#pbbff23ade0)" style="fill: #27808e"/>
    <path d="M 64.562727 82.412308 
L 64.925538 82.211868 
L 72.251077 77.867496 
L 75.803673 75.588923 
L 79.576615 73.100383 
L 85.472243 68.765538 
L 86.902154 67.491324 
L 92.286249 61.942154 
L 94.227692 59.919945 
L 99.215012 55.118769 
L 101.553231 52.745588 
L 105.3489 48.295385 
L 108.878769 43.465812 
L 110.586358 41.472 
L 108.878769 41.472 
L 107.698444 41.472 
L 102.59131 48.295385 
L 101.553231 49.512473 
L 96.029527 55.118769 
L 94.227692 56.853354 
L 89.342135 61.942154 
L 86.902154 64.456944 
L 82.067095 68.765538 
L 79.576615 70.596699 
L 72.251077 75.444287 
L 72.02566 75.588923 
L 64.925538 80.018047 
L 60.59174 82.412308 
L 57.6 83.940888 
L 57.6 85.969799 
z
" clip-path="url(#pbbff23ade0)" style="fill: #25858e"/>
    <path d="M 60.59174 82.412308 
L 64.925538 80.018047 
L 72.02566 75.588923 
L 72.251077 75.444287 
L 79.576615 70.596699 
L 82.067095 68.765538 
L 86.902154 64.456944 
L 89.342135 61.942154 
L 94.227692 56.853354 
L 96.029527 55.118769 
L 101.553231 49.512473 
L 102.59131 48.295385 
L 107.698444 41.472 
L 105.195365 41.472 
L 101.553231 46.248467 
L 99.86789 48.295385 
L 94.227692 53.943197 
L 93.006577 55.118769 
L 86.902154 61.443399 
L 86.424968 61.942154 
L 79.576615 68.0932 
L 78.693579 68.765538 
L 72.251077 73.187774 
L 68.508848 75.588923 
L 64.925538 77.824226 
L 57.6 81.924224 
L 57.6 82.412308 
L 57.6 83.940888 
z
" clip-path="url(#pbbff23ade0)" style="fill: #228b8d"/>
    <path d="M 64.925538 77.824226 
L 68.508848 75.588923 
L 72.251077 73.187774 
L 78.693579 68.765538 
L 79.576615 68.0932 
L 86.424968 61.942154 
L 86.902154 61.443399 
L 93.006577 55.118769 
L 94.227692 53.943197 
L 99.86789 48.295385 
L 101.553231 46.248467 
L 105.195365 41.472 
L 102.692286 41.472 
L 101.553231 42.965811 
L 97.165098 48.295385 
L 94.227692 51.236756 
L 90.195283 55.118769 
L 86.902154 58.530693 
L 83.638224 61.942154 
L 79.576615 65.590205 
L 75.406195 68.765538 
L 72.251077 70.931262 
L 64.992037 75.588923 
L 64.925538 75.630405 
L 57.6 79.944973 
L 57.6 81.924224 
z
" clip-path="url(#pbbff23ade0)" style="fill: #21918c"/>
    <path d="M 64.925538 75.630405 
L 64.992037 75.588923 
L 72.251077 70.931262 
L 75.406195 68.765538 
L 79.576615 65.590205 
L 83.638224 61.942154 
L 86.902154 58.530693 
L 90.195283 55.118769 
L 94.227692 51.236756 
L 97.165098 48.295385 
L 101.553231 42.965811 
L 102.692286 41.472 
L 101.553231 41.472 
L 100.272829 41.472 
L 94.462306 48.295385 
L 94.227692 48.530315 
L 87.383989 55.118769 
L 86.902154 55.617986 
L 80.85148 61.942154 
L 79.576615 63.087211 
L 72.251077 68.680272 
L 72.126891 68.765538 
L 64.925538 73.56903 
L 61.631685 75.588923 
L 57.6 77.965723 
L 57.6 79.944973 
z
" clip-path="url(#pbbff23ade0)" style="fill: #1f958b"/>
    <path d="M 61.631685 75.588923 
L 64.925538 73.56903 
L 72.126891 68.765538 
L 72.251077 68.680272 
L 79.576615 63.087211 
L 80.85148 61.942154 
L 86.902154 55.617986 
L 87.383989 55.118769 
L 94.227692 48.530315 
L 94.462306 48.295385 
L 100.272829 41.472 
L 97.923202 41.472 
L 94.227692 45.788917 
L 91.75665 48.295385 
L 86.902154 52.962954 
L 84.843127 55.118769 
L 79.576615 60.551476 
L 78.11656 61.942154 
L 72.251077 66.561026 
L 69.040322 68.765538 
L 64.925538 71.510208 
L 58.27435 75.588923 
L 57.6 75.986472 
L 57.6 77.965723 
z
" clip-path="url(#pbbff23ade0)" style="fill: #1e9b8a"/>
    <path d="M 58.27435 75.588923 
L 64.925538 71.510208 
L 69.040322 68.765538 
L 72.251077 66.561026 
L 78.11656 61.942154 
L 79.576615 60.551476 
L 84.843127 55.118769 
L 86.902154 52.962954 
L 91.75665 48.295385 
L 94.227692 45.788917 
L 97.923202 41.472 
L 95.573575 41.472 
L 94.227692 43.044195 
L 89.050722 48.295385 
L 86.902154 50.36122 
L 82.358202 55.118769 
L 79.576615 57.988135 
L 75.42534 61.942154 
L 72.251077 64.44178 
L 65.953754 68.765538 
L 64.925538 69.451385 
L 57.6 74.073977 
L 57.6 75.588923 
L 57.6 75.986472 
z
" clip-path="url(#pbbff23ade0)" style="fill: #1fa188"/>
    <path d="M 64.925538 69.451385 
L 65.953754 68.765538 
L 72.251077 64.44178 
L 75.42534 61.942154 
L 79.576615 57.988135 
L 82.358202 55.118769 
L 86.902154 50.36122 
L 89.050722 48.295385 
L 94.227692 43.044195 
L 95.573575 41.472 
L 94.227692 41.472 
L 93.219492 41.472 
L 86.902154 47.807842 
L 86.403418 48.295385 
L 79.873278 55.118769 
L 79.576615 55.424793 
L 72.734119 61.942154 
L 72.251077 62.322533 
L 64.925538 67.470437 
L 62.945396 68.765538 
L 57.6 72.178261 
L 57.6 74.073977 
z
" clip-path="url(#pbbff23ade0)" style="fill: #21a585"/>
    <path d="M 62.945396 68.765538 
L 64.925538 67.470437 
L 72.251077 62.322533 
L 72.734119 61.942154 
L 79.576615 55.424793 
L 79.873278 55.118769 
L 86.403418 48.295385 
L 86.902154 47.807842 
L 93.219492 41.472 
L 90.859436 41.472 
L 86.902154 45.440873 
L 83.982104 48.295385 
L 79.576615 52.89336 
L 77.467626 55.118769 
L 72.251077 60.075121 
L 69.997465 61.942154 
L 64.925538 65.528388 
L 59.976108 68.765538 
L 57.6 70.282544 
L 57.6 72.178261 
z
" clip-path="url(#pbbff23ade0)" style="fill: #25ab82"/>
    <path d="M 59.976108 68.765538 
L 64.925538 65.528388 
L 69.997465 61.942154 
L 72.251077 60.075121 
L 77.467626 55.118769 
L 79.576615 52.89336 
L 83.982104 48.295385 
L 86.902154 45.440873 
L 90.859436 41.472 
L 88.499379 41.472 
L 86.902154 43.073904 
L 81.56079 48.295385 
L 79.576615 50.366253 
L 75.072721 55.118769 
L 72.251077 57.799672 
L 67.250872 61.942154 
L 64.925538 63.58634 
L 57.6 68.412662 
L 57.6 68.765538 
L 57.6 70.282544 
z
" clip-path="url(#pbbff23ade0)" style="fill: #2ab07f"/>
    <path d="M 64.925538 63.58634 
L 67.250872 61.942154 
L 72.251077 57.799672 
L 75.072721 55.118769 
L 79.576615 50.366253 
L 81.56079 48.295385 
L 86.902154 43.073904 
L 88.499379 41.472 
L 86.902154 41.472 
L 86.163859 41.472 
L 79.576615 47.893392 
L 79.188364 48.295385 
L 72.677816 55.118769 
L 72.251077 55.524222 
L 64.925538 61.649911 
L 64.526618 61.942154 
L 57.6 66.646269 
L 57.6 68.412662 
z
" clip-path="url(#pbbff23ade0)" style="fill: #31b57b"/>
    <path d="M 64.526618 61.942154 
L 64.925538 61.649911 
L 72.251077 55.524222 
L 72.677816 55.118769 
L 79.188364 48.295385 
L 79.576615 47.893392 
L 86.163859 41.472 
L 83.879714 41.472 
L 79.576615 45.666757 
L 77.03784 48.295385 
L 72.251077 53.278823 
L 70.398409 55.118769 
L 64.925538 59.744498 
L 61.925676 61.942154 
L 57.6 64.879875 
L 57.6 66.646269 
z
" clip-path="url(#pbbff23ade0)" style="fill: #3aba76"/>
    <path d="M 61.925676 61.942154 
L 64.925538 59.744498 
L 70.398409 55.118769 
L 72.251077 53.278823 
L 77.03784 48.295385 
L 79.576615 45.666757 
L 83.879714 41.472 
L 81.595569 41.472 
L 79.576615 43.440121 
L 74.887316 48.295385 
L 72.251077 51.039939 
L 68.144044 55.118769 
L 64.925538 57.839084 
L 59.324733 61.942154 
L 57.6 63.113482 
L 57.6 64.879875 
z
" clip-path="url(#pbbff23ade0)" style="fill: #44bf70"/>
    <path d="M 59.324733 61.942154 
L 64.925538 57.839084 
L 68.144044 55.118769 
L 72.251077 51.039939 
L 74.887316 48.295385 
L 79.576615 43.440121 
L 81.595569 41.472 
L 79.576615 41.472 
L 79.333279 41.472 
L 72.736791 48.295385 
L 72.251077 48.801056 
L 65.889679 55.118769 
L 64.925538 55.933671 
L 57.6 61.382303 
L 57.6 61.942154 
L 57.6 63.113482 
z
" clip-path="url(#pbbff23ade0)" style="fill: #4ec36b"/>
    <path d="M 64.925538 55.933671 
L 65.889679 55.118769 
L 72.251077 48.801056 
L 72.736791 48.295385 
L 79.333279 41.472 
L 77.237381 41.472 
L 72.251077 46.620187 
L 70.690591 48.295385 
L 64.925538 53.980999 
L 63.670768 55.118769 
L 57.6 59.720439 
L 57.6 61.382303 
z
" clip-path="url(#pbbff23ade0)" style="fill: #5ac864"/>
    <path d="M 63.670768 55.118769 
L 64.925538 53.980999 
L 70.690591 48.295385 
L 72.251077 46.620187 
L 77.237381 41.472 
L 75.141483 41.472 
L 72.251077 44.456244 
L 68.674828 48.295385 
L 64.925538 51.993012 
L 61.478349 55.118769 
L 57.6 58.058576 
L 57.6 59.720439 
z
" clip-path="url(#pbbff23ade0)" style="fill: #67cc5c"/>
    <path d="M 61.478349 55.118769 
L 64.925538 51.993012 
L 68.674828 48.295385 
L 72.251077 44.456244 
L 75.141483 41.472 
L 73.045584 41.472 
L 72.251077 42.292301 
L 66.659065 48.295385 
L 64.925538 50.005025 
L 59.28593 55.118769 
L 57.6 56.396712 
L 57.6 58.058576 
z
" clip-path="url(#pbbff23ade0)" style="fill: #73d056"/>
    <path d="M 59.28593 55.118769 
L 64.925538 50.005025 
L 66.659065 48.295385 
L 72.251077 42.292301 
L 73.045584 41.472 
L 72.251077 41.472 
L 71.107957 41.472 
L 64.925538 48.02228 
L 64.659377 48.295385 
L 57.6 54.719154 
L 57.6 55.118769 
L 57.6 56.396712 
z
" clip-path="url(#pbbff23ade0)" style="fill: #81d34d"/>
    <path d="M 64.659377 48.295385 
L 64.925538 48.02228 
L 71.107957 41.472 
L 69.266956 41.472 
L 64.925538 46.071737 
L 62.758419 48.295385 
L 57.6 52.989354 
L 57.6 54.719154 
z
" clip-path="url(#pbbff23ade0)" style="fill: #90d743"/>
    <path d="M 62.758419 48.295385 
L 64.925538 46.071737 
L 69.266956 41.472 
L 67.425955 41.472 
L 64.925538 44.121194 
L 60.857462 48.295385 
L 57.6 51.259554 
L 57.6 52.989354 
z
" clip-path="url(#pbbff23ade0)" style="fill: #a0da39"/>
    <path d="M 60.857462 48.295385 
L 64.925538 44.121194 
L 67.425955 41.472 
L 65.584953 41.472 
L 64.925538 42.170651 
L 58.956505 48.295385 
L 57.6 49.529754 
L 57.6 51.259554 
z
" clip-path="url(#pbbff23ade0)" style="fill: #addc30"/>
    <path d="M 58.956505 48.295385 
L 64.925538 42.170651 
L 65.584953 41.472 
L 64.925538 41.472 
L 63.821655 41.472 
L 57.6 47.794773 
L 57.6 48.295385 
L 57.6 49.529754 
z
" clip-path="url(#pbbff23ade0)" style="fill: #bddf26"/>
    <path d="M 63.821655 41.472 
L 62.10172 41.472 
L 57.6 46.046885 
L 57.6 47.794773 
z
" clip-path="url(#pbbff23ade0)" style="fill: #cde11d"/>
    <path d="M 62.10172 41.472 
L 60.381786 41.472 
L 57.6 44.298997 
L 57.6 46.046885 
z
" clip-path="url(#pbbff23ade0)" style="fill: #dae319"/>
    <path d="M 60.381786 41.472 
L 58.661851 41.472 
L 57.6 42.551109 
L 57.6 44.298997 
z
" clip-path="url(#pbbff23ade0)" style="fill: #eae51a"/>
    <path d="M 58.661851 41.472 
L 57.6 41.472 
L 57.6 42.551109 
z
" clip-path="url(#pbbff23ade0)" style="fill: #f8e621"/>
   </g>
   <g id="matplotlib.axis_1">
    <g id="xtick_1">
     <g id="line2d_1">
      <defs>
       <path id="m63c69fefd2" d="M 0 0 
L 0 3.5 
" style="stroke: #000000; stroke-width: 0.8"/>
      </defs>
      <g>
       <use xlink:href="#m63c69fefd2" x="57.6" y="307.584" style="stroke: #000000; stroke-width: 0.8"/>
      </g>
     </g>
     <g id="text_1">
      <!-- 4 -->
      <g transform="translate(50.228906 322.182437) scale(0.1 -0.1)">
       <defs>
        <path id="DejaVuSans-2212" d="M 678 2272 
L 4684 2272 
L 4684 1741 
L 678 1741 
L 678 2272 
z
" transform="scale(0.015625)"/>
        <path id="DejaVuSans-34" d="M 2419 4116 
L 825 1625 
L 2419 1625 
L 2419 4116 
z
M 2253 4666 
L 3047 4666 
L 3047 1625 
L 3713 1625 
L 3713 1100 
L 3047 1100 
L 3047 0 
L 2419 0 
L 2419 1100 
L 313 1100 
L 313 1709 
L 2253 4666 
z
" transform="scale(0.015625)"/>
       </defs>
       <use xlink:href="#DejaVuSans-2212"/>
       <use xlink:href="#DejaVuSans-34" x="83.789062"/>
      </g>
     </g>
    </g>
    <g id="xtick_2">
     <g id="line2d_2">
      <g>
       <use xlink:href="#m63c69fefd2" x="93.312" y="307.584" style="stroke: #000000; stroke-width: 0.8"/>
      </g>
     </g>
     <g id="text_2">
      <!-- 3 -->
      <g transform="translate(85.940906 322.182437) scale(0.1 -0.1)">
       <defs>
        <path id="DejaVuSans-33" d="M 2597 2516 
Q 3050 2419 3304 2112 
Q 3559 1806 3559 1356 
Q 3559 666 3084 287 
Q 2609 -91 1734 -91 
Q 1441 -91 1130 -33 
Q 819 25 488 141 
L 488 750 
Q 750 597 1062 519 
Q 1375 441 1716 441 
Q 2309 441 2620 675 
Q 2931 909 2931 1356 
Q 2931 1769 2642 2001 
Q 2353 2234 1838 2234 
L 1294 2234 
L 1294 2753 
L 1863 2753 
Q 2328 2753 2575 2939 
Q 2822 3125 2822 3475 
Q 2822 3834 2567 4026 
Q 2313 4219 1838 4219 
Q 1578 4219 1281 4162 
Q 984 4106 628 3988 
L 628 4550 
Q 988 4650 1302 4700 
Q 1616 4750 1894 4750 
Q 2613 4750 3031 4423 
Q 3450 4097 3450 3541 
Q 3450 3153 3228 2886 
Q 3006 2619 2597 2516 
z
" transform="scale(0.015625)"/>
       </defs>
       <use xlink:href="#DejaVuSans-2212"/>
       <use xlink:href="#DejaVuSans-33" x="83.789062"/>
      </g>
     </g>
    </g>
    <g id="xtick_3">
     <g id="line2d_3">
      <g>
       <use xlink:href="#m63c69fefd2" x="129.024" y="307.584" style="stroke: #000000; stroke-width: 0.8"/>
      </g>
     </g>
     <g id="text_3">
      <!-- 2 -->
      <g transform="translate(121.652906 322.182437) scale(0.1 -0.1)">
       <defs>
        <path id="DejaVuSans-32" d="M 1228 531 
L 3431 531 
L 3431 0 
L 469 0 
L 469 531 
Q 828 903 1448 1529 
Q 2069 2156 2228 2338 
Q 2531 2678 2651 2914 
Q 2772 3150 2772 3378 
Q 2772 3750 2511 3984 
Q 2250 4219 1831 4219 
Q 1534 4219 1204 4116 
Q 875 4013 500 3803 
L 500 4441 
Q 881 4594 1212 4672 
Q 1544 4750 1819 4750 
Q 2544 4750 2975 4387 
Q 3406 4025 3406 3419 
Q 3406 3131 3298 2873 
Q 3191 2616 2906 2266 
Q 2828 2175 2409 1742 
Q 1991 1309 1228 531 
z
" transform="scale(0.015625)"/>
       </defs>
       <use xlink:href="#DejaVuSans-2212"/>
       <use xlink:href="#DejaVuSans-32" x="83.789062"/>
      </g>
     </g>
    </g>
    <g id="xtick_4">
     <g id="line2d_4">
      <g>
       <use xlink:href="#m63c69fefd2" x="164.736" y="307.584" style="stroke: #000000; stroke-width: 0.8"/>
      </g>
     </g>
     <g id="text_4">
      <!-- 1 -->
      <g transform="translate(157.364906 322.182437) scale(0.1 -0.1)">
       <defs>
        <path id="DejaVuSans-31" d="M 794 531 
L 1825 531 
L 1825 4091 
L 703 3866 
L 703 4441 
L 1819 4666 
L 2450 4666 
L 2450 531 
L 3481 531 
L 3481 0 
L 794 0 
L 794 531 
z
" transform="scale(0.015625)"/>
       </defs>
       <use xlink:href="#DejaVuSans-2212"/>
       <use xlink:href="#DejaVuSans-31" x="83.789062"/>
      </g>
     </g>
    </g>
    <g id="xtick_5">
     <g id="line2d_5">
      <g>
       <use xlink:href="#m63c69fefd2" x="200.448" y="307.584" style="stroke: #000000; stroke-width: 0.8"/>
      </g>
     </g>
     <g id="text_5">
      <!-- 0 -->
      <g transform="translate(197.26675 322.182437) scale(0.1 -0.1)">
       <defs>
        <path id="DejaVuSans-30" d="M 2034 4250 
Q 1547 4250 1301 3770 
Q 1056 3291 1056 2328 
Q 1056 1369 1301 889 
Q 1547 409 2034 409 
Q 2525 409 2770 889 
Q 3016 1369 3016 2328 
Q 3016 3291 2770 3770 
Q 2525 4250 2034 4250 
z
M 2034 4750 
Q 2819 4750 3233 4129 
Q 3647 3509 3647 2328 
Q 3647 1150 3233 529 
Q 2819 -91 2034 -91 
Q 1250 -91 836 529 
Q 422 1150 422 2328 
Q 422 3509 836 4129 
Q 1250 4750 2034 4750 
z
" transform="scale(0.015625)"/>
       </defs>
       <use xlink:href="#DejaVuSans-30"/>
      </g>
     </g>
    </g>
    <g id="xtick_6">
     <g id="line2d_6">
      <g>
       <use xlink:href="#m63c69fefd2" x="236.16" y="307.584" style="stroke: #000000; stroke-width: 0.8"/>
      </g>
     </g>
     <g id="text_6">
      <!-- 1 -->
      <g transform="translate(232.97875 322.182437) scale(0.1 -0.1)">
       <use xlink:href="#DejaVuSans-31"/>
      </g>
     </g>
    </g>
    <g id="xtick_7">
     <g id="line2d_7">
      <g>
       <use xlink:href="#m63c69fefd2" x="271.872" y="307.584" style="stroke: #000000; stroke-width: 0.8"/>
      </g>
     </g>
     <g id="text_7">
      <!-- 2 -->
      <g transform="translate(268.69075 322.182437) scale(0.1 -0.1)">
       <use xlink:href="#DejaVuSans-32"/>
      </g>
     </g>
    </g>
    <g id="xtick_8">
     <g id="line2d_8">
      <g>
       <use xlink:href="#m63c69fefd2" x="307.584" y="307.584" style="stroke: #000000; stroke-width: 0.8"/>
      </g>
     </g>
     <g id="text_8">
      <!-- 3 -->
      <g transform="translate(304.40275 322.182437) scale(0.1 -0.1)">
       <use xlink:href="#DejaVuSans-33"/>
      </g>
     </g>
    </g>
    <g id="xtick_9">
     <g id="line2d_9">
      <g>
       <use xlink:href="#m63c69fefd2" x="343.296" y="307.584" style="stroke: #000000; stroke-width: 0.8"/>
      </g>
     </g>
     <g id="text_9">
      <!-- 4 -->
      <g transform="translate(340.11475 322.182437) scale(0.1 -0.1)">
       <use xlink:href="#DejaVuSans-34"/>
      </g>
     </g>
    </g>
    <g id="text_10">
     <!-- Alpha -->
     <g transform="translate(186.231594 335.860562) scale(0.1 -0.1)">
      <defs>
       <path id="DejaVuSans-41" d="M 2188 4044 
L 1331 1722 
L 3047 1722 
L 2188 4044 
z
M 1831 4666 
L 2547 4666 
L 4325 0 
L 3669 0 
L 3244 1197 
L 1141 1197 
L 716 0 
L 50 0 
L 1831 4666 
z
" transform="scale(0.015625)"/>
       <path id="DejaVuSans-6c" d="M 603 4863 
L 1178 4863 
L 1178 0 
L 603 0 
L 603 4863 
z
" transform="scale(0.015625)"/>
       <path id="DejaVuSans-70" d="M 1159 525 
L 1159 -1331 
L 581 -1331 
L 581 3500 
L 1159 3500 
L 1159 2969 
Q 1341 3281 1617 3432 
Q 1894 3584 2278 3584 
Q 2916 3584 3314 3078 
Q 3713 2572 3713 1747 
Q 3713 922 3314 415 
Q 2916 -91 2278 -91 
Q 1894 -91 1617 61 
Q 1341 213 1159 525 
z
M 3116 1747 
Q 3116 2381 2855 2742 
Q 2594 3103 2138 3103 
Q 1681 3103 1420 2742 
Q 1159 2381 1159 1747 
Q 1159 1113 1420 752 
Q 1681 391 2138 391 
Q 2594 391 2855 752 
Q 3116 1113 3116 1747 
z
" transform="scale(0.015625)"/>
       <path id="DejaVuSans-68" d="M 3513 2113 
L 3513 0 
L 2938 0 
L 2938 2094 
Q 2938 2591 2744 2837 
Q 2550 3084 2163 3084 
Q 1697 3084 1428 2787 
Q 1159 2491 1159 1978 
L 1159 0 
L 581 0 
L 581 4863 
L 1159 4863 
L 1159 2956 
Q 1366 3272 1645 3428 
Q 1925 3584 2291 3584 
Q 2894 3584 3203 3211 
Q 3513 2838 3513 2113 
z
" transform="scale(0.015625)"/>
       <path id="DejaVuSans-61" d="M 2194 1759 
Q 1497 1759 1228 1600 
Q 959 1441 959 1056 
Q 959 750 1161 570 
Q 1363 391 1709 391 
Q 2188 391 2477 730 
Q 2766 1069 2766 1631 
L 2766 1759 
L 2194 1759 
z
M 3341 1997 
L 3341 0 
L 2766 0 
L 2766 531 
Q 2569 213 2275 61 
Q 1981 -91 1556 -91 
Q 1019 -91 701 211 
Q 384 513 384 1019 
Q 384 1609 779 1909 
Q 1175 2209 1959 2209 
L 2766 2209 
L 2766 2266 
Q 2766 2663 2505 2880 
Q 2244 3097 1772 3097 
Q 1472 3097 1187 3025 
Q 903 2953 641 2809 
L 641 3341 
Q 956 3463 1253 3523 
Q 1550 3584 1831 3584 
Q 2591 3584 2966 3190 
Q 3341 2797 3341 1997 
z
" transform="scale(0.015625)"/>
      </defs>
      <use xlink:href="#DejaVuSans-41"/>
      <use xlink:href="#DejaVuSans-6c" x="68.408203"/>
      <use xlink:href="#DejaVuSans-70" x="96.191406"/>
      <use xlink:href="#DejaVuSans-68" x="159.667969"/>
      <use xlink:href="#DejaVuSans-61" x="223.046875"/>
     </g>
    </g>
   </g>
   <g id="matplotlib.axis_2">
    <g id="ytick_1">
     <g id="line2d_10">
      <defs>
       <path id="m85c1812fea" d="M 0 0 
L -3.5 0 
" style="stroke: #000000; stroke-width: 0.8"/>
      </defs>
      <g>
       <use xlink:href="#m85c1812fea" x="57.6" y="307.584" style="stroke: #000000; stroke-width: 0.8"/>
      </g>
     </g>
     <g id="text_11">
      <!-- 4 -->
      <g transform="translate(35.857813 311.383219) scale(0.1 -0.1)">
       <use xlink:href="#DejaVuSans-2212"/>
       <use xlink:href="#DejaVuSans-34" x="83.789062"/>
      </g>
     </g>
    </g>
    <g id="ytick_2">
     <g id="line2d_11">
      <g>
       <use xlink:href="#m85c1812fea" x="57.6" y="274.32" style="stroke: #000000; stroke-width: 0.8"/>
      </g>
     </g>
     <g id="text_12">
      <!-- 3 -->
      <g transform="translate(35.857813 278.119219) scale(0.1 -0.1)">
       <use xlink:href="#DejaVuSans-2212"/>
       <use xlink:href="#DejaVuSans-33" x="83.789062"/>
      </g>
     </g>
    </g>
    <g id="ytick_3">
     <g id="line2d_12">
      <g>
       <use xlink:href="#m85c1812fea" x="57.6" y="241.056" style="stroke: #000000; stroke-width: 0.8"/>
      </g>
     </g>
     <g id="text_13">
      <!-- 2 -->
      <g transform="translate(35.857813 244.855219) scale(0.1 -0.1)">
       <use xlink:href="#DejaVuSans-2212"/>
       <use xlink:href="#DejaVuSans-32" x="83.789062"/>
      </g>
     </g>
    </g>
    <g id="ytick_4">
     <g id="line2d_13">
      <g>
       <use xlink:href="#m85c1812fea" x="57.6" y="207.792" style="stroke: #000000; stroke-width: 0.8"/>
      </g>
     </g>
     <g id="text_14">
      <!-- 1 -->
      <g transform="translate(35.857813 211.591219) scale(0.1 -0.1)">
       <use xlink:href="#DejaVuSans-2212"/>
       <use xlink:href="#DejaVuSans-31" x="83.789062"/>
      </g>
     </g>
    </g>
    <g id="ytick_5">
     <g id="line2d_14">
      <g>
       <use xlink:href="#m85c1812fea" x="57.6" y="174.528" style="stroke: #000000; stroke-width: 0.8"/>
      </g>
     </g>
     <g id="text_15">
      <!-- 0 -->
      <g transform="translate(44.2375 178.327219) scale(0.1 -0.1)">
       <use xlink:href="#DejaVuSans-30"/>
      </g>
     </g>
    </g>
    <g id="ytick_6">
     <g id="line2d_15">
      <g>
       <use xlink:href="#m85c1812fea" x="57.6" y="141.264" style="stroke: #000000; stroke-width: 0.8"/>
      </g>
     </g>
     <g id="text_16">
      <!-- 1 -->
      <g transform="translate(44.2375 145.063219) scale(0.1 -0.1)">
       <use xlink:href="#DejaVuSans-31"/>
      </g>
     </g>
    </g>
    <g id="ytick_7">
     <g id="line2d_16">
      <g>
       <use xlink:href="#m85c1812fea" x="57.6" y="108" style="stroke: #000000; stroke-width: 0.8"/>
      </g>
     </g>
     <g id="text_17">
      <!-- 2 -->
      <g transform="translate(44.2375 111.799219) scale(0.1 -0.1)">
       <use xlink:href="#DejaVuSans-32"/>
      </g>
     </g>
    </g>
    <g id="ytick_8">
     <g id="line2d_17">
      <g>
       <use xlink:href="#m85c1812fea" x="57.6" y="74.736" style="stroke: #000000; stroke-width: 0.8"/>
      </g>
     </g>
     <g id="text_18">
      <!-- 3 -->
      <g transform="translate(44.2375 78.535219) scale(0.1 -0.1)">
       <use xlink:href="#DejaVuSans-33"/>
      </g>
     </g>
    </g>
    <g id="ytick_9">
     <g id="line2d_18">
      <g>
       <use xlink:href="#m85c1812fea" x="57.6" y="41.472" style="stroke: #000000; stroke-width: 0.8"/>
      </g>
     </g>
     <g id="text_19">
      <!-- 4 -->
      <g transform="translate(44.2375 45.271219) scale(0.1 -0.1)">
       <use xlink:href="#DejaVuSans-34"/>
      </g>
     </g>
    </g>
    <g id="text_20">
     <!-- Beta -->
     <g transform="translate(29.778125 186.05925) rotate(-90) scale(0.1 -0.1)">
      <defs>
       <path id="DejaVuSans-42" d="M 1259 2228 
L 1259 519 
L 2272 519 
Q 2781 519 3026 730 
Q 3272 941 3272 1375 
Q 3272 1813 3026 2020 
Q 2781 2228 2272 2228 
L 1259 2228 
z
M 1259 4147 
L 1259 2741 
L 2194 2741 
Q 2656 2741 2882 2914 
Q 3109 3088 3109 3444 
Q 3109 3797 2882 3972 
Q 2656 4147 2194 4147 
L 1259 4147 
z
M 628 4666 
L 2241 4666 
Q 2963 4666 3353 4366 
Q 3744 4066 3744 3513 
Q 3744 3084 3544 2831 
Q 3344 2578 2956 2516 
Q 3422 2416 3680 2098 
Q 3938 1781 3938 1306 
Q 3938 681 3513 340 
Q 3088 0 2303 0 
L 628 0 
L 628 4666 
z
" transform="scale(0.015625)"/>
       <path id="DejaVuSans-65" d="M 3597 1894 
L 3597 1613 
L 953 1613 
Q 991 1019 1311 708 
Q 1631 397 2203 397 
Q 2534 397 2845 478 
Q 3156 559 3463 722 
L 3463 178 
Q 3153 47 2828 -22 
Q 2503 -91 2169 -91 
Q 1331 -91 842 396 
Q 353 884 353 1716 
Q 353 2575 817 3079 
Q 1281 3584 2069 3584 
Q 2775 3584 3186 3129 
Q 3597 2675 3597 1894 
z
M 3022 2063 
Q 3016 2534 2758 2815 
Q 2500 3097 2075 3097 
Q 1594 3097 1305 2825 
Q 1016 2553 972 2059 
L 3022 2063 
z
" transform="scale(0.015625)"/>
       <path id="DejaVuSans-74" d="M 1172 4494 
L 1172 3500 
L 2356 3500 
L 2356 3053 
L 1172 3053 
L 1172 1153 
Q 1172 725 1289 603 
Q 1406 481 1766 481 
L 2356 481 
L 2356 0 
L 1766 0 
Q 1100 0 847 248 
Q 594 497 594 1153 
L 594 3053 
L 172 3053 
L 172 3500 
L 594 3500 
L 594 4494 
L 1172 4494 
z
" transform="scale(0.015625)"/>
      </defs>
      <use xlink:href="#DejaVuSans-42"/>
      <use xlink:href="#DejaVuSans-65" x="68.603516"/>
      <use xlink:href="#DejaVuSans-74" x="130.126953"/>
      <use xlink:href="#DejaVuSans-61" x="169.335938"/>
     </g>
    </g>
   </g>
   <g id="patch_3">
    <path d="M 57.6 307.584 
L 57.6 41.472 
" style="fill: none; stroke: #000000; stroke-width: 0.8; stroke-linejoin: miter; stroke-linecap: square"/>
   </g>
   <g id="patch_4">
    <path d="M 343.296 307.584 
L 343.296 41.472 
" style="fill: none; stroke: #000000; stroke-width: 0.8; stroke-linejoin: miter; stroke-linecap: square"/>
   </g>
   <g id="patch_5">
    <path d="M 57.6 307.584 
L 343.296 307.584 
" style="fill: none; stroke: #000000; stroke-width: 0.8; stroke-linejoin: miter; stroke-linecap: square"/>
   </g>
   <g id="patch_6">
    <path d="M 57.6 41.472 
L 343.296 41.472 
" style="fill: none; stroke: #000000; stroke-width: 0.8; stroke-linejoin: miter; stroke-linecap: square"/>
   </g>
   <g id="text_21">
    <!-- Loss Surface -->
    <g transform="translate(162.522375 35.472) scale(0.12 -0.12)">
     <defs>
      <path id="DejaVuSans-4c" d="M 628 4666 
L 1259 4666 
L 1259 531 
L 3531 531 
L 3531 0 
L 628 0 
L 628 4666 
z
" transform="scale(0.015625)"/>
      <path id="DejaVuSans-6f" d="M 1959 3097 
Q 1497 3097 1228 2736 
Q 959 2375 959 1747 
Q 959 1119 1226 758 
Q 1494 397 1959 397 
Q 2419 397 2687 759 
Q 2956 1122 2956 1747 
Q 2956 2369 2687 2733 
Q 2419 3097 1959 3097 
z
M 1959 3584 
Q 2709 3584 3137 3096 
Q 3566 2609 3566 1747 
Q 3566 888 3137 398 
Q 2709 -91 1959 -91 
Q 1206 -91 779 398 
Q 353 888 353 1747 
Q 353 2609 779 3096 
Q 1206 3584 1959 3584 
z
" transform="scale(0.015625)"/>
      <path id="DejaVuSans-73" d="M 2834 3397 
L 2834 2853 
Q 2591 2978 2328 3040 
Q 2066 3103 1784 3103 
Q 1356 3103 1142 2972 
Q 928 2841 928 2578 
Q 928 2378 1081 2264 
Q 1234 2150 1697 2047 
L 1894 2003 
Q 2506 1872 2764 1633 
Q 3022 1394 3022 966 
Q 3022 478 2636 193 
Q 2250 -91 1575 -91 
Q 1294 -91 989 -36 
Q 684 19 347 128 
L 347 722 
Q 666 556 975 473 
Q 1284 391 1588 391 
Q 1994 391 2212 530 
Q 2431 669 2431 922 
Q 2431 1156 2273 1281 
Q 2116 1406 1581 1522 
L 1381 1569 
Q 847 1681 609 1914 
Q 372 2147 372 2553 
Q 372 3047 722 3315 
Q 1072 3584 1716 3584 
Q 2034 3584 2315 3537 
Q 2597 3491 2834 3397 
z
" transform="scale(0.015625)"/>
      <path id="DejaVuSans-20" transform="scale(0.015625)"/>
      <path id="DejaVuSans-53" d="M 3425 4513 
L 3425 3897 
Q 3066 4069 2747 4153 
Q 2428 4238 2131 4238 
Q 1616 4238 1336 4038 
Q 1056 3838 1056 3469 
Q 1056 3159 1242 3001 
Q 1428 2844 1947 2747 
L 2328 2669 
Q 3034 2534 3370 2195 
Q 3706 1856 3706 1288 
Q 3706 609 3251 259 
Q 2797 -91 1919 -91 
Q 1588 -91 1214 -16 
Q 841 59 441 206 
L 441 856 
Q 825 641 1194 531 
Q 1563 422 1919 422 
Q 2459 422 2753 634 
Q 3047 847 3047 1241 
Q 3047 1584 2836 1778 
Q 2625 1972 2144 2069 
L 1759 2144 
Q 1053 2284 737 2584 
Q 422 2884 422 3419 
Q 422 4038 858 4394 
Q 1294 4750 2059 4750 
Q 2388 4750 2728 4690 
Q 3069 4631 3425 4513 
z
" transform="scale(0.015625)"/>
      <path id="DejaVuSans-75" d="M 544 1381 
L 544 3500 
L 1119 3500 
L 1119 1403 
Q 1119 906 1312 657 
Q 1506 409 1894 409 
Q 2359 409 2629 706 
Q 2900 1003 2900 1516 
L 2900 3500 
L 3475 3500 
L 3475 0 
L 2900 0 
L 2900 538 
Q 2691 219 2414 64 
Q 2138 -91 1772 -91 
Q 1169 -91 856 284 
Q 544 659 544 1381 
z
M 1991 3584 
L 1991 3584 
z
" transform="scale(0.015625)"/>
      <path id="DejaVuSans-72" d="M 2631 2963 
Q 2534 3019 2420 3045 
Q 2306 3072 2169 3072 
Q 1681 3072 1420 2755 
Q 1159 2438 1159 1844 
L 1159 0 
L 581 0 
L 581 3500 
L 1159 3500 
L 1159 2956 
Q 1341 3275 1631 3429 
Q 1922 3584 2338 3584 
Q 2397 3584 2469 3576 
Q 2541 3569 2628 3553 
L 2631 2963 
z
" transform="scale(0.015625)"/>
      <path id="DejaVuSans-66" d="M 2375 4863 
L 2375 4384 
L 1825 4384 
Q 1516 4384 1395 4259 
Q 1275 4134 1275 3809 
L 1275 3500 
L 2222 3500 
L 2222 3053 
L 1275 3053 
L 1275 0 
L 697 0 
L 697 3053 
L 147 3053 
L 147 3500 
L 697 3500 
L 697 3744 
Q 697 4328 969 4595 
Q 1241 4863 1831 4863 
L 2375 4863 
z
" transform="scale(0.015625)"/>
      <path id="DejaVuSans-63" d="M 3122 3366 
L 3122 2828 
Q 2878 2963 2633 3030 
Q 2388 3097 2138 3097 
Q 1578 3097 1268 2742 
Q 959 2388 959 1747 
Q 959 1106 1268 751 
Q 1578 397 2138 397 
Q 2388 397 2633 464 
Q 2878 531 3122 666 
L 3122 134 
Q 2881 22 2623 -34 
Q 2366 -91 2075 -91 
Q 1284 -91 818 406 
Q 353 903 353 1747 
Q 353 2603 823 3093 
Q 1294 3584 2113 3584 
Q 2378 3584 2631 3529 
Q 2884 3475 3122 3366 
z
" transform="scale(0.015625)"/>
     </defs>
     <use xlink:href="#DejaVuSans-4c"/>
     <use xlink:href="#DejaVuSans-6f" x="53.962891"/>
     <use xlink:href="#DejaVuSans-73" x="115.144531"/>
     <use xlink:href="#DejaVuSans-73" x="167.244141"/>
     <use xlink:href="#DejaVuSans-20" x="219.34375"/>
     <use xlink:href="#DejaVuSans-53" x="251.130859"/>
     <use xlink:href="#DejaVuSans-75" x="314.607422"/>
     <use xlink:href="#DejaVuSans-72" x="377.986328"/>
     <use xlink:href="#DejaVuSans-66" x="419.099609"/>
     <use xlink:href="#DejaVuSans-61" x="454.304688"/>
     <use xlink:href="#DejaVuSans-63" x="515.583984"/>
     <use xlink:href="#DejaVuSans-65" x="570.564453"/>
    </g>
   </g>
  </g>
  <g id="axes_2">
   <g id="patch_7">
    <path d="M 361.152 307.584 
L 374.4576 307.584 
L 374.4576 41.472 
L 361.152 41.472 
z
" style="fill: #ffffff"/>
   </g>
   <g id="QuadMesh_1">
    <path d="M 361.152 307.584 
L 374.4576 307.584 
L 374.4576 301.6704 
L 361.152 301.6704 
L 361.152 307.584 
" clip-path="url(#pc195109190)" style="fill: #450457"/>
    <path d="M 361.152 301.6704 
L 374.4576 301.6704 
L 374.4576 295.7568 
L 361.152 295.7568 
L 361.152 301.6704 
" clip-path="url(#pc195109190)" style="fill: #470d60"/>
    <path d="M 361.152 295.7568 
L 374.4576 295.7568 
L 374.4576 289.8432 
L 361.152 289.8432 
L 361.152 295.7568 
" clip-path="url(#pc195109190)" style="fill: #481668"/>
    <path d="M 361.152 289.8432 
L 374.4576 289.8432 
L 374.4576 283.9296 
L 361.152 283.9296 
L 361.152 289.8432 
" clip-path="url(#pc195109190)" style="fill: #481c6e"/>
    <path d="M 361.152 283.9296 
L 374.4576 283.9296 
L 374.4576 278.016 
L 361.152 278.016 
L 361.152 283.9296 
" clip-path="url(#pc195109190)" style="fill: #482475"/>
    <path d="M 361.152 278.016 
L 374.4576 278.016 
L 374.4576 272.1024 
L 361.152 272.1024 
L 361.152 278.016 
" clip-path="url(#pc195109190)" style="fill: #472c7a"/>
    <path d="M 361.152 272.1024 
L 374.4576 272.1024 
L 374.4576 266.1888 
L 361.152 266.1888 
L 361.152 272.1024 
" clip-path="url(#pc195109190)" style="fill: #46327e"/>
    <path d="M 361.152 266.1888 
L 374.4576 266.1888 
L 374.4576 260.2752 
L 361.152 260.2752 
L 361.152 266.1888 
" clip-path="url(#pc195109190)" style="fill: #443983"/>
    <path d="M 361.152 260.2752 
L 374.4576 260.2752 
L 374.4576 254.3616 
L 361.152 254.3616 
L 361.152 260.2752 
" clip-path="url(#pc195109190)" style="fill: #424086"/>
    <path d="M 361.152 254.3616 
L 374.4576 254.3616 
L 374.4576 248.448 
L 361.152 248.448 
L 361.152 254.3616 
" clip-path="url(#pc195109190)" style="fill: #3f4788"/>
    <path d="M 361.152 248.448 
L 374.4576 248.448 
L 374.4576 242.5344 
L 361.152 242.5344 
L 361.152 248.448 
" clip-path="url(#pc195109190)" style="fill: #3d4d8a"/>
    <path d="M 361.152 242.5344 
L 374.4576 242.5344 
L 374.4576 236.6208 
L 361.152 236.6208 
L 361.152 242.5344 
" clip-path="url(#pc195109190)" style="fill: #3a538b"/>
    <path d="M 361.152 236.6208 
L 374.4576 236.6208 
L 374.4576 230.7072 
L 361.152 230.7072 
L 361.152 236.6208 
" clip-path="url(#pc195109190)" style="fill: #375a8c"/>
    <path d="M 361.152 230.7072 
L 374.4576 230.7072 
L 374.4576 224.7936 
L 361.152 224.7936 
L 361.152 230.7072 
" clip-path="url(#pc195109190)" style="fill: #355f8d"/>
    <path d="M 361.152 224.7936 
L 374.4576 224.7936 
L 374.4576 218.88 
L 361.152 218.88 
L 361.152 224.7936 
" clip-path="url(#pc195109190)" style="fill: #32658e"/>
    <path d="M 361.152 218.88 
L 374.4576 218.88 
L 374.4576 212.9664 
L 361.152 212.9664 
L 361.152 218.88 
" clip-path="url(#pc195109190)" style="fill: #2f6b8e"/>
    <path d="M 361.152 212.9664 
L 374.4576 212.9664 
L 374.4576 207.0528 
L 361.152 207.0528 
L 361.152 212.9664 
" clip-path="url(#pc195109190)" style="fill: #2d708e"/>
    <path d="M 361.152 207.0528 
L 374.4576 207.0528 
L 374.4576 201.1392 
L 361.152 201.1392 
L 361.152 207.0528 
" clip-path="url(#pc195109190)" style="fill: #2b758e"/>
    <path d="M 361.152 201.1392 
L 374.4576 201.1392 
L 374.4576 195.2256 
L 361.152 195.2256 
L 361.152 201.1392 
" clip-path="url(#pc195109190)" style="fill: #297b8e"/>
    <path d="M 361.152 195.2256 
L 374.4576 195.2256 
L 374.4576 189.312 
L 361.152 189.312 
L 361.152 195.2256 
" clip-path="url(#pc195109190)" style="fill: #27808e"/>
    <path d="M 361.152 189.312 
L 374.4576 189.312 
L 374.4576 183.3984 
L 361.152 183.3984 
L 361.152 189.312 
" clip-path="url(#pc195109190)" style="fill: #25858e"/>
    <path d="M 361.152 183.3984 
L 374.4576 183.3984 
L 374.4576 177.4848 
L 361.152 177.4848 
L 361.152 183.3984 
" clip-path="url(#pc195109190)" style="fill: #228b8d"/>
    <path d="M 361.152 177.4848 
L 374.4576 177.4848 
L 374.4576 171.5712 
L 361.152 171.5712 
L 361.152 177.4848 
" clip-path="url(#pc195109190)" style="fill: #21918c"/>
    <path d="M 361.152 171.5712 
L 374.4576 171.5712 
L 374.4576 165.6576 
L 361.152 165.6576 
L 361.152 171.5712 
" clip-path="url(#pc195109190)" style="fill: #1f958b"/>
    <path d="M 361.152 165.6576 
L 374.4576 165.6576 
L 374.4576 159.744 
L 361.152 159.744 
L 361.152 165.6576 
" clip-path="url(#pc195109190)" style="fill: #1e9b8a"/>
    <path d="M 361.152 159.744 
L 374.4576 159.744 
L 374.4576 153.8304 
L 361.152 153.8304 
L 361.152 159.744 
" clip-path="url(#pc195109190)" style="fill: #1fa188"/>
    <path d="M 361.152 153.8304 
L 374.4576 153.8304 
L 374.4576 147.9168 
L 361.152 147.9168 
L 361.152 153.8304 
" clip-path="url(#pc195109190)" style="fill: #21a585"/>
    <path d="M 361.152 147.9168 
L 374.4576 147.9168 
L 374.4576 142.0032 
L 361.152 142.0032 
L 361.152 147.9168 
" clip-path="url(#pc195109190)" style="fill: #25ab82"/>
    <path d="M 361.152 142.0032 
L 374.4576 142.0032 
L 374.4576 136.0896 
L 361.152 136.0896 
L 361.152 142.0032 
" clip-path="url(#pc195109190)" style="fill: #2ab07f"/>
    <path d="M 361.152 136.0896 
L 374.4576 136.0896 
L 374.4576 130.176 
L 361.152 130.176 
L 361.152 136.0896 
" clip-path="url(#pc195109190)" style="fill: #31b57b"/>
    <path d="M 361.152 130.176 
L 374.4576 130.176 
L 374.4576 124.2624 
L 361.152 124.2624 
L 361.152 130.176 
" clip-path="url(#pc195109190)" style="fill: #3aba76"/>
    <path d="M 361.152 124.2624 
L 374.4576 124.2624 
L 374.4576 118.3488 
L 361.152 118.3488 
L 361.152 124.2624 
" clip-path="url(#pc195109190)" style="fill: #44bf70"/>
    <path d="M 361.152 118.3488 
L 374.4576 118.3488 
L 374.4576 112.4352 
L 361.152 112.4352 
L 361.152 118.3488 
" clip-path="url(#pc195109190)" style="fill: #4ec36b"/>
    <path d="M 361.152 112.4352 
L 374.4576 112.4352 
L 374.4576 106.5216 
L 361.152 106.5216 
L 361.152 112.4352 
" clip-path="url(#pc195109190)" style="fill: #5ac864"/>
    <path d="M 361.152 106.5216 
L 374.4576 106.5216 
L 374.4576 100.608 
L 361.152 100.608 
L 361.152 106.5216 
" clip-path="url(#pc195109190)" style="fill: #67cc5c"/>
    <path d="M 361.152 100.608 
L 374.4576 100.608 
L 374.4576 94.6944 
L 361.152 94.6944 
L 361.152 100.608 
" clip-path="url(#pc195109190)" style="fill: #73d056"/>
    <path d="M 361.152 94.6944 
L 374.4576 94.6944 
L 374.4576 88.7808 
L 361.152 88.7808 
L 361.152 94.6944 
" clip-path="url(#pc195109190)" style="fill: #81d34d"/>
    <path d="M 361.152 88.7808 
L 374.4576 88.7808 
L 374.4576 82.8672 
L 361.152 82.8672 
L 361.152 88.7808 
" clip-path="url(#pc195109190)" style="fill: #90d743"/>
    <path d="M 361.152 82.8672 
L 374.4576 82.8672 
L 374.4576 76.9536 
L 361.152 76.9536 
L 361.152 82.8672 
" clip-path="url(#pc195109190)" style="fill: #a0da39"/>
    <path d="M 361.152 76.9536 
L 374.4576 76.9536 
L 374.4576 71.04 
L 361.152 71.04 
L 361.152 76.9536 
" clip-path="url(#pc195109190)" style="fill: #addc30"/>
    <path d="M 361.152 71.04 
L 374.4576 71.04 
L 374.4576 65.1264 
L 361.152 65.1264 
L 361.152 71.04 
" clip-path="url(#pc195109190)" style="fill: #bddf26"/>
    <path d="M 361.152 65.1264 
L 374.4576 65.1264 
L 374.4576 59.2128 
L 361.152 59.2128 
L 361.152 65.1264 
" clip-path="url(#pc195109190)" style="fill: #cde11d"/>
    <path d="M 361.152 59.2128 
L 374.4576 59.2128 
L 374.4576 53.2992 
L 361.152 53.2992 
L 361.152 59.2128 
" clip-path="url(#pc195109190)" style="fill: #dae319"/>
    <path d="M 361.152 53.2992 
L 374.4576 53.2992 
L 374.4576 47.3856 
L 361.152 47.3856 
L 361.152 53.2992 
" clip-path="url(#pc195109190)" style="fill: #eae51a"/>
    <path d="M 361.152 47.3856 
L 374.4576 47.3856 
L 374.4576 41.472 
L 361.152 41.472 
L 361.152 47.3856 
" clip-path="url(#pc195109190)" style="fill: #f8e621"/>
   </g>
   <g id="matplotlib.axis_3"/>
   <g id="matplotlib.axis_4">
    <g id="ytick_10">
     <g id="line2d_19">
      <defs>
       <path id="m800598928c" d="M 0 0 
L 3.5 0 
" style="stroke: #000000; stroke-width: 0.8"/>
      </defs>
      <g>
       <use xlink:href="#m800598928c" x="374.4576" y="307.584" style="stroke: #000000; stroke-width: 0.8"/>
      </g>
     </g>
     <g id="text_22">
      <!-- 0 -->
      <g transform="translate(381.4576 311.383219) scale(0.1 -0.1)">
       <use xlink:href="#DejaVuSans-30"/>
      </g>
     </g>
    </g>
    <g id="ytick_11">
     <g id="line2d_20">
      <g>
       <use xlink:href="#m800598928c" x="374.4576" y="278.016" style="stroke: #000000; stroke-width: 0.8"/>
      </g>
     </g>
     <g id="text_23">
      <!-- 150 -->
      <g transform="translate(381.4576 281.815219) scale(0.1 -0.1)">
       <defs>
        <path id="DejaVuSans-35" d="M 691 4666 
L 3169 4666 
L 3169 4134 
L 1269 4134 
L 1269 2991 
Q 1406 3038 1543 3061 
Q 1681 3084 1819 3084 
Q 2600 3084 3056 2656 
Q 3513 2228 3513 1497 
Q 3513 744 3044 326 
Q 2575 -91 1722 -91 
Q 1428 -91 1123 -41 
Q 819 9 494 109 
L 494 744 
Q 775 591 1075 516 
Q 1375 441 1709 441 
Q 2250 441 2565 725 
Q 2881 1009 2881 1497 
Q 2881 1984 2565 2268 
Q 2250 2553 1709 2553 
Q 1456 2553 1204 2497 
Q 953 2441 691 2322 
L 691 4666 
z
" transform="scale(0.015625)"/>
       </defs>
       <use xlink:href="#DejaVuSans-31"/>
       <use xlink:href="#DejaVuSans-35" x="63.623047"/>
       <use xlink:href="#DejaVuSans-30" x="127.246094"/>
      </g>
     </g>
    </g>
    <g id="ytick_12">
     <g id="line2d_21">
      <g>
       <use xlink:href="#m800598928c" x="374.4576" y="248.448" style="stroke: #000000; stroke-width: 0.8"/>
      </g>
     </g>
     <g id="text_24">
      <!-- 300 -->
      <g transform="translate(381.4576 252.247219) scale(0.1 -0.1)">
       <use xlink:href="#DejaVuSans-33"/>
       <use xlink:href="#DejaVuSans-30" x="63.623047"/>
       <use xlink:href="#DejaVuSans-30" x="127.246094"/>
      </g>
     </g>
    </g>
    <g id="ytick_13">
     <g id="line2d_22">
      <g>
       <use xlink:href="#m800598928c" x="374.4576" y="218.88" style="stroke: #000000; stroke-width: 0.8"/>
      </g>
     </g>
     <g id="text_25">
      <!-- 450 -->
      <g transform="translate(381.4576 222.679219) scale(0.1 -0.1)">
       <use xlink:href="#DejaVuSans-34"/>
       <use xlink:href="#DejaVuSans-35" x="63.623047"/>
       <use xlink:href="#DejaVuSans-30" x="127.246094"/>
      </g>
     </g>
    </g>
    <g id="ytick_14">
     <g id="line2d_23">
      <g>
       <use xlink:href="#m800598928c" x="374.4576" y="189.312" style="stroke: #000000; stroke-width: 0.8"/>
      </g>
     </g>
     <g id="text_26">
      <!-- 600 -->
      <g transform="translate(381.4576 193.111219) scale(0.1 -0.1)">
       <defs>
        <path id="DejaVuSans-36" d="M 2113 2584 
Q 1688 2584 1439 2293 
Q 1191 2003 1191 1497 
Q 1191 994 1439 701 
Q 1688 409 2113 409 
Q 2538 409 2786 701 
Q 3034 994 3034 1497 
Q 3034 2003 2786 2293 
Q 2538 2584 2113 2584 
z
M 3366 4563 
L 3366 3988 
Q 3128 4100 2886 4159 
Q 2644 4219 2406 4219 
Q 1781 4219 1451 3797 
Q 1122 3375 1075 2522 
Q 1259 2794 1537 2939 
Q 1816 3084 2150 3084 
Q 2853 3084 3261 2657 
Q 3669 2231 3669 1497 
Q 3669 778 3244 343 
Q 2819 -91 2113 -91 
Q 1303 -91 875 529 
Q 447 1150 447 2328 
Q 447 3434 972 4092 
Q 1497 4750 2381 4750 
Q 2619 4750 2861 4703 
Q 3103 4656 3366 4563 
z
" transform="scale(0.015625)"/>
       </defs>
       <use xlink:href="#DejaVuSans-36"/>
       <use xlink:href="#DejaVuSans-30" x="63.623047"/>
       <use xlink:href="#DejaVuSans-30" x="127.246094"/>
      </g>
     </g>
    </g>
    <g id="ytick_15">
     <g id="line2d_24">
      <g>
       <use xlink:href="#m800598928c" x="374.4576" y="159.744" style="stroke: #000000; stroke-width: 0.8"/>
      </g>
     </g>
     <g id="text_27">
      <!-- 750 -->
      <g transform="translate(381.4576 163.543219) scale(0.1 -0.1)">
       <defs>
        <path id="DejaVuSans-37" d="M 525 4666 
L 3525 4666 
L 3525 4397 
L 1831 0 
L 1172 0 
L 2766 4134 
L 525 4134 
L 525 4666 
z
" transform="scale(0.015625)"/>
       </defs>
       <use xlink:href="#DejaVuSans-37"/>
       <use xlink:href="#DejaVuSans-35" x="63.623047"/>
       <use xlink:href="#DejaVuSans-30" x="127.246094"/>
      </g>
     </g>
    </g>
    <g id="ytick_16">
     <g id="line2d_25">
      <g>
       <use xlink:href="#m800598928c" x="374.4576" y="130.176" style="stroke: #000000; stroke-width: 0.8"/>
      </g>
     </g>
     <g id="text_28">
      <!-- 900 -->
      <g transform="translate(381.4576 133.975219) scale(0.1 -0.1)">
       <defs>
        <path id="DejaVuSans-39" d="M 703 97 
L 703 672 
Q 941 559 1184 500 
Q 1428 441 1663 441 
Q 2288 441 2617 861 
Q 2947 1281 2994 2138 
Q 2813 1869 2534 1725 
Q 2256 1581 1919 1581 
Q 1219 1581 811 2004 
Q 403 2428 403 3163 
Q 403 3881 828 4315 
Q 1253 4750 1959 4750 
Q 2769 4750 3195 4129 
Q 3622 3509 3622 2328 
Q 3622 1225 3098 567 
Q 2575 -91 1691 -91 
Q 1453 -91 1209 -44 
Q 966 3 703 97 
z
M 1959 2075 
Q 2384 2075 2632 2365 
Q 2881 2656 2881 3163 
Q 2881 3666 2632 3958 
Q 2384 4250 1959 4250 
Q 1534 4250 1286 3958 
Q 1038 3666 1038 3163 
Q 1038 2656 1286 2365 
Q 1534 2075 1959 2075 
z
" transform="scale(0.015625)"/>
       </defs>
       <use xlink:href="#DejaVuSans-39"/>
       <use xlink:href="#DejaVuSans-30" x="63.623047"/>
       <use xlink:href="#DejaVuSans-30" x="127.246094"/>
      </g>
     </g>
    </g>
    <g id="ytick_17">
     <g id="line2d_26">
      <g>
       <use xlink:href="#m800598928c" x="374.4576" y="100.608" style="stroke: #000000; stroke-width: 0.8"/>
      </g>
     </g>
     <g id="text_29">
      <!-- 1050 -->
      <g transform="translate(381.4576 104.407219) scale(0.1 -0.1)">
       <use xlink:href="#DejaVuSans-31"/>
       <use xlink:href="#DejaVuSans-30" x="63.623047"/>
       <use xlink:href="#DejaVuSans-35" x="127.246094"/>
       <use xlink:href="#DejaVuSans-30" x="190.869141"/>
      </g>
     </g>
    </g>
    <g id="ytick_18">
     <g id="line2d_27">
      <g>
       <use xlink:href="#m800598928c" x="374.4576" y="71.04" style="stroke: #000000; stroke-width: 0.8"/>
      </g>
     </g>
     <g id="text_30">
      <!-- 1200 -->
      <g transform="translate(381.4576 74.839219) scale(0.1 -0.1)">
       <use xlink:href="#DejaVuSans-31"/>
       <use xlink:href="#DejaVuSans-32" x="63.623047"/>
       <use xlink:href="#DejaVuSans-30" x="127.246094"/>
       <use xlink:href="#DejaVuSans-30" x="190.869141"/>
      </g>
     </g>
    </g>
    <g id="ytick_19">
     <g id="line2d_28">
      <g>
       <use xlink:href="#m800598928c" x="374.4576" y="41.472" style="stroke: #000000; stroke-width: 0.8"/>
      </g>
     </g>
     <g id="text_31">
      <!-- 1350 -->
      <g transform="translate(381.4576 45.271219) scale(0.1 -0.1)">
       <use xlink:href="#DejaVuSans-31"/>
       <use xlink:href="#DejaVuSans-33" x="63.623047"/>
       <use xlink:href="#DejaVuSans-35" x="127.246094"/>
       <use xlink:href="#DejaVuSans-30" x="190.869141"/>
      </g>
     </g>
    </g>
   </g>
   <g id="LineCollection_1"/>
   <g id="patch_8">
    <path d="M 361.152 307.584 
L 367.8048 307.584 
L 374.4576 307.584 
L 374.4576 41.472 
L 367.8048 41.472 
L 361.152 41.472 
L 361.152 307.584 
z
" style="fill: none; stroke: #000000; stroke-width: 0.8; stroke-linejoin: miter; stroke-linecap: square"/>
   </g>
  </g>
 </g>
 <defs>
  <clipPath id="pbbff23ade0">
   <rect x="57.6" y="41.472" width="285.696" height="266.112"/>
  </clipPath>
  <clipPath id="pc195109190">
   <rect x="361.152" y="41.472" width="13.3056" height="266.112"/>
  </clipPath>
 </defs>
</svg>
